<?xml version="1.0" standalone="no"?>
<!DOCTYPE svg PUBLIC "-//W3C//DTD SVG 1.1//EN" "http://www.w3.org/Graphics/SVG/1.1/DTD/svg11.dtd" >
<svg xmlns="http://www.w3.org/2000/svg" xmlns:xlink="http://www.w3.org/1999/xlink" version="1.1">
<metadata>
Created by FontForge 20200427 at Tue Jul 21 19:35:23 2015
 By www
2014 Kosal Sen
</metadata>
<defs>
<font id="LovatoW00-Light" horiz-adv-x="549" >
  <font-face 
    font-family="LovatoW00-Light"
    font-weight="300"
    font-stretch="normal"
    units-per-em="1100"
    panose-1="1 0 0 0 0 0 0 0 0 0"
    ascent="880"
    descent="-220"
    x-height="497"
    cap-height="680"
    bbox="-78 -250 993 995"
    underline-thickness="55"
    underline-position="-137"
    unicode-range="U+0020-25CA"
  />
<missing-glyph horiz-adv-x="500" 
d="M0 0v700h500v-700h-500zM250 395l170 255h-340zM280 350l170 -255v510zM80 50h340l-170 255zM50 605v-510l170 255z" />
    <glyph glyph-name="t_t.liga" unicode="tt" horiz-adv-x="766" 
d="M542 443v-297q0 -52 23 -80.5t66 -28.5q46 0 81 49l9 -3v-65q-42 -33 -98 -33q-22 0 -46 7t-45 24t-36 47t-15 74v306h-302v-297q0 -52 23 -80.5t66 -28.5q46 0 81 49l9 -3v-65q-42 -33 -98 -33q-22 0 -46 7t-45 24t-36 47t-15 74v306h-93v9l148 152h7v-107h252l104 107
h7v-107h181v-54h-182z" />
    <glyph glyph-name=".notdef" horiz-adv-x="500" 
d="M0 0v700h500v-700h-500zM250 395l170 255h-340zM280 350l170 -255v510zM80 50h340l-170 255zM50 605v-510l170 255z" />
    <glyph glyph-name=".null" horiz-adv-x="0" 
 />
    <glyph glyph-name="nonmarkingreturn" horiz-adv-x="366" 
 />
    <glyph glyph-name="space" unicode=" " horiz-adv-x="251" 
 />
    <glyph glyph-name="exclam" unicode="!" horiz-adv-x="209" 
d="M114 187h-16l-35 493h83zM104 84q19 0 34.5 -15.5t15.5 -35.5q0 -19 -15.5 -33.5t-34.5 -14.5q-20 0 -34.5 14.5t-14.5 33.5q0 20 14.5 35.5t34.5 15.5z" />
    <glyph glyph-name="quotedbl" unicode="&#x22;" horiz-adv-x="403" 
d="M107 726q23 0 40 -18t17 -40l-52 -213h-10l-52 213q0 23 16.5 40.5t40.5 17.5zM286 726q23 0 40 -18t17 -40l-52 -213h-10l-52 213q0 23 16.5 40.5t40.5 17.5z" />
    <glyph glyph-name="numbersign" unicode="#" horiz-adv-x="622" 
d="M448 314l-28 -118h117v-49h-129l-35 -147h-57l35 147h-150l-35 -147h-57l35 147h-89v49h101l28 118h-99v49h110l33 137h57l-33 -137h150l33 137h57l-33 -137h108v-49h-119zM391 314h-150l-28 -118h150z" />
    <glyph glyph-name="dollar" unicode="$" 
d="M482 181q0 -36 -17.5 -72.5t-55.5 -61t-86 -32.5v-52h-55v48q-54 1 -103.5 19t-84.5 48v88h11q22 -35 57 -58.5t71 -32t64 -8.5q62 0 97 32t35 76q0 28 -11 51t-46 45t-146 66q-62 25 -96 65t-34 102q0 69 54.5 115.5t131.5 49.5v48h55v-51q30 -4 65 -15t65 -32v-84h-10
q-26 35 -71.5 56t-93.5 21q-26 0 -56 -10t-51 -36.5t-21 -60.5q0 -21 9 -44t40 -46t140 -67q67 -27 105 -66t38 -101z" />
    <glyph glyph-name="percent" unicode="%" horiz-adv-x="864" 
d="M217 695q44 0 86.5 -23t65.5 -65.5t23 -88.5t-23 -88.5t-65.5 -65.5t-86.5 -23t-86.5 23t-65.5 65.5t-23 88.5t23 88.5t65.5 65.5t86.5 23zM231 0h-62l469 680h62zM217 645q-53 0 -85 -39t-32 -88t32 -88t85 -39t85 39t32 88t-32 88t-85 39zM647 339q44 0 86.5 -23
t65.5 -65.5t23 -88.5t-23 -88.5t-65.5 -65.5t-86.5 -23t-86.5 23t-65.5 65.5t-23 88.5t23 88.5t65.5 65.5t86.5 23zM647 289q-53 0 -85 -39t-32 -88t32 -88t85 -39t85 39t32 88t-32 88t-85 39z" />
    <glyph glyph-name="ampersand" unicode="&#x26;" horiz-adv-x="744" 
d="M733 13v-13h-131q-74 64 -140 119q-93 -134 -225 -134q-37 0 -74 13t-67 37t-47.5 57.5t-17.5 71.5q0 65 39 111t123 82q-88 98 -88 182q0 24 9.5 51t31.5 50t56.5 39t76.5 16q70 0 120 -45t51 -111q1 -58 -37.5 -107t-106.5 -84l-11 -6q63 -60 156 -135q27 53 66 145v9
h120v-11l-73 -40q-39 -85 -70 -139q104 -84 142 -118zM276 639q-32 0 -58.5 -17t-37 -40t-10.5 -42q0 -64 85 -157q128 55 128 157q0 26 -16.5 49t-40 36.5t-50.5 13.5zM243 40q55 0 98 29.5t79 83.5q-141 117 -187 161q-85 -38 -113 -70t-28 -72q0 -23 8.5 -46t30.5 -44
t54 -31.5t58 -10.5z" />
    <glyph glyph-name="quotesingle" unicode="'" horiz-adv-x="224" 
d="M112 766q23 0 40 -18t17 -40l-52 -213h-10l-52 213q0 23 16.5 40.5t40.5 17.5z" />
    <glyph glyph-name="parenleft" unicode="(" horiz-adv-x="316" 
d="M248 721l9 -14q-137 -246 -137 -463q0 -220 141 -469l-7 -12q-28 27 -56 64t-52 80.5t-43 92t-33.5 111.5t-14.5 133q0 52 9 105.5t28 111t58.5 129t97.5 131.5z" />
    <glyph glyph-name="parenright" unicode=")" horiz-adv-x="316" 
d="M59 707l9 14q28 -28 55 -65t50 -80t41.5 -91t32.5 -110t14 -131q0 -52 -11 -115t-39.5 -136t-69 -133t-79.5 -97l-7 12q141 249 141 469q0 217 -137 463z" />
    <glyph glyph-name="asterisk" unicode="*" horiz-adv-x="388" 
d="M301 496l32 -5l-29 -50l-21 24l-76 49l5 -90l11 -30h-58l11 30l5 90l-76 -49l-21 -24l-29 50l32 5l81 42l-81 41l-32 5l29 50l21 -24l76 -49l-5 90l-11 30h58l-11 -30l-5 -90l76 49l21 24l29 -50l-32 -5l-81 -41z" />
    <glyph glyph-name="plus" unicode="+" horiz-adv-x="487" 
d="M446 256h-176v-169h-53v169h-176v50h176v168h53v-168h176v-50z" />
    <glyph glyph-name="comma" unicode="," horiz-adv-x="222" 
d="M97 84h92q0 -53 -36 -120t-87 -109h-41q18 21 36.5 57t28 83.5t7.5 88.5z" />
    <glyph glyph-name="hyphen" unicode="-" horiz-adv-x="365" 
d="M320 260h-275v54h275v-54z" />
    <glyph glyph-name="period" unicode="." horiz-adv-x="209" 
d="M104 84q19 0 34.5 -15.5t15.5 -35.5q0 -19 -15.5 -33.5t-34.5 -14.5q-20 0 -34.5 14.5t-14.5 33.5q0 20 14.5 35.5t34.5 15.5z" />
    <glyph glyph-name="slash" unicode="/" horiz-adv-x="348" 
d="M30 -140h-60l348 885h60z" />
    <glyph glyph-name="zero" unicode="0" 
d="M275 695q51 0 94.5 -27t74.5 -75t47.5 -113.5t16.5 -139.5q0 -73 -19 -146.5t-57.5 -123t-78.5 -67.5t-78 -18q-51 0 -94.5 27t-75 75.5t-48 114t-16.5 138.5q0 35 5.5 80.5t20.5 91t42.5 87.5t71 69t94.5 27zM275 636q-29 0 -58.5 -15.5t-52.5 -52t-38 -94t-15 -134.5
q0 -59 10.5 -113t31.5 -95t52 -64.5t70 -23.5q38 0 69 23.5t52 64.5t31.5 95t10.5 113q0 76 -18.5 147.5t-57.5 110t-87 38.5z" />
    <glyph glyph-name="one" unicode="1" 
d="M320 76l122 -65v-11h-303v11l123 65v512l-126 41v12l172 57h12v-622z" />
    <glyph glyph-name="two" unicode="2" 
d="M264 695q43 0 80.5 -12t65.5 -36t43.5 -59.5t15.5 -79.5q0 -30 -13 -67t-46 -85.5t-118 -150.5t-119 -144h238l56 67h10v-128h-422v12q124 145 275 340q69 89 69 153q0 61 -37 96t-102 35q-27 0 -59.5 -11t-62 -38t-48.5 -61h-10v94q31 34 81.5 54.5t102.5 20.5z" />
    <glyph glyph-name="three" unicode="3" 
d="M274 695q41 0 79 -11.5t67.5 -34.5t46.5 -58t17 -79q0 -42 -19 -75t-44.5 -53.5t-48.5 -34.5q48 -15 87 -60.5t39 -107.5q0 -89 -64.5 -143.5t-169.5 -54.5q-99 0 -188 66v91h12q27 -36 57.5 -59t64 -31t64.5 -8q45 0 80.5 16.5t54.5 47t19 72.5t-19 73t-54.5 48
t-80.5 17h-66v58h66q60 0 100 37.5t40 93.5t-40 93.5t-100 37.5q-46 0 -87 -19.5t-71 -56.5h-12v84q74 51 170 51z" />
    <glyph glyph-name="four" unicode="4" 
d="M510 182h-106v-129l77 -42v-11h-218v11l78 42v129h-318v14l371 489h10v-447h116zM122 238h219v280z" />
    <glyph glyph-name="five" unicode="5" 
d="M461 618h-276l-21 -219q2 1 22.5 8t40.5 11.5t39 4.5q49 0 91 -13.5t73.5 -40.5t49 -68.5t17.5 -95.5q0 -36 -11.5 -74.5t-43.5 -75t-79.5 -54.5t-95.5 -18q-27 0 -57 6t-62 23.5t-71 54.5v78h12q46 -63 88 -83t97 -20q65 0 109 44.5t44 117.5t-44 116.5t-109 43.5
q-39 0 -79 -12.5t-85 -48.5l-11 5l37 372h333z" />
    <glyph glyph-name="six" unicode="6" 
d="M435 680l-276 -320q14 14 35.5 28t48.5 21t50 7q43 0 82 -13.5t68.5 -40t46 -66t16.5 -87.5q0 -36 -12.5 -75t-44.5 -76.5t-77 -56.5t-87 -19q-48 0 -89 16t-71 46t-46.5 72.5t-16.5 92.5q0 64 27.5 124t107.5 158l153 189h85zM285 357q-33 0 -68.5 -15.5t-60 -54.5
t-24.5 -87q0 -65 43.5 -112t109.5 -47q24 0 50 8.5t48.5 28.5t37.5 51.5t15 70.5q0 48 -22 84t-55 54.5t-74 18.5z" />
    <glyph glyph-name="seven" unicode="7" 
d="M508 670l-306 -670h-75l297 621h-286l-44 -46h-11v105h425v-10z" />
    <glyph glyph-name="eight" unicode="8" 
d="M275 695q42 0 79 -14.5t63.5 -39.5t40.5 -58t14 -69q0 -40 -16 -71t-43.5 -53.5t-58.5 -34.5q48 -15 82.5 -47t45.5 -65t11 -62q0 -30 -11.5 -63.5t-38.5 -62.5t-70 -49.5t-98 -20.5q-33 0 -69.5 10t-73 37t-55.5 67.5t-19 81.5q0 38 16.5 75t51.5 63t69 36
q-31 12 -58.5 34.5t-43.5 53.5t-16 71q0 36 14 69t40.5 58t63.5 39.5t80 14.5zM274 636q-53 0 -90.5 -36.5t-37.5 -89.5q0 -39 22 -70t52 -43t54 -12t54 12t52 43t22 70q0 53 -37.5 89.5t-90.5 36.5zM275 326q-26 0 -57 -12.5t-52 -35.5t-29.5 -47.5t-8.5 -46.5
q0 -46 25 -80t60 -47t62 -13t62 13t60.5 47t25.5 80q0 22 -8 46.5t-29 47.5t-52.5 35.5t-58.5 12.5z" />
    <glyph glyph-name="nine" unicode="9" 
d="M124 0l276 320q-14 -14 -35.5 -28t-48.5 -21t-50 -7q-43 0 -82 13.5t-68.5 40t-46 66t-16.5 87.5q0 36 12.5 75t44.5 76.5t77 56.5t87 19q48 0 89 -16t71 -46t46.5 -72.5t16.5 -92.5q0 -64 -27.5 -124t-107.5 -158l-153 -189h-85zM274 323q33 0 68.5 15.5t60 54.5
t24.5 87q0 65 -43.5 112t-109.5 47q-24 0 -50 -8.5t-48.5 -28.5t-37.5 -51.5t-15 -70.5q0 -48 22 -84t55 -54.5t74 -18.5z" />
    <glyph glyph-name="colon" unicode=":" horiz-adv-x="209" 
d="M99 454q19 0 34.5 -15.5t15.5 -35.5q0 -19 -15.5 -33.5t-34.5 -14.5q-20 0 -34.5 14.5t-14.5 33.5q0 20 14.5 35.5t34.5 15.5zM99 84q19 0 34.5 -15.5t15.5 -35.5q0 -19 -15.5 -33.5t-34.5 -14.5q-20 0 -34.5 14.5t-14.5 33.5q0 20 14.5 35.5t34.5 15.5z" />
    <glyph glyph-name="semicolon" unicode=";" horiz-adv-x="230" 
d="M125 454q19 0 34.5 -15.5t15.5 -35.5q0 -19 -15.5 -33.5t-34.5 -14.5q-20 0 -34.5 14.5t-14.5 33.5q0 20 14.5 35.5t34.5 15.5zM77 84h92q0 -53 -36 -120t-87 -109h-41q18 21 36.5 57t28 83.5t7.5 88.5z" />
    <glyph glyph-name="less" unicode="&#x3c;" horiz-adv-x="493" 
d="M422 426l-295 -176l295 -176v-69l-381 241v8l381 241v-69z" />
    <glyph glyph-name="equal" unicode="=" horiz-adv-x="489" 
d="M447 325h-405v50h405v-50zM447 172h-405v50h405v-50z" />
    <glyph glyph-name="greater" unicode="&#x3e;" horiz-adv-x="493" 
d="M452 254v-8l-381 -241v69l295 176l-295 176v69z" />
    <glyph glyph-name="question" unicode="?" horiz-adv-x="470" 
d="M223 695q86 0 139 -47.5t53 -124.5q0 -47 -21.5 -83t-68.5 -77t-61.5 -57t-25.5 -31.5t-20.5 -37.5t-12.5 -50h-17q0 27 8 59.5t26 62.5t61.5 84t53 82.5t9.5 48.5q0 53 -36.5 84.5t-89.5 31.5q-28 0 -55.5 -11.5t-49.5 -34t-48 -57.5h-12v89q47 41 88 55t80 14zM194 84
q19 0 34.5 -15.5t15.5 -35.5q0 -19 -15.5 -33.5t-34.5 -14.5q-20 0 -34.5 14.5t-14.5 33.5q0 20 14.5 35.5t34.5 15.5z" />
    <glyph glyph-name="at" unicode="@" horiz-adv-x="911" 
d="M475 680q78 0 150.5 -27t127 -76t85.5 -116.5t31 -142.5q0 -31 -5.5 -68.5t-20 -73t-39.5 -66t-61.5 -49t-74.5 -18.5q-45 0 -73.5 23t-39.5 64q-37 -52 -75 -69.5t-76 -17.5q-33 0 -65 13t-56.5 38.5t-39 63.5t-14.5 84q0 45 16 87.5t44.5 75t67 51.5t81.5 19
q26 0 57 -10t58 -36t43 -59l44 98h11l-32 -291q-4 -38 17 -61t52 -23q21 0 43.5 16t42 46t31.5 72t12 91q0 63 -27 120.5t-75 101t-110.5 68t-129.5 24.5q-81 0 -151.5 -28t-122 -79.5t-79.5 -124.5t-28 -159q0 -71 28.5 -135t76 -111t106 -72.5t115.5 -25.5q60 0 119 19.5
t101 53.5v-53q-30 -27 -90.5 -47.5t-129.5 -20.5q-72 0 -140.5 29.5t-122 82.5t-84.5 125.5t-31 154.5q0 95 32 177t90.5 140.5t138.5 90t172 31.5zM443 417q-72 0 -110.5 -48.5t-38.5 -126.5q0 -28 11 -60.5t40.5 -56.5t71.5 -24q39 0 73.5 24t54.5 65.5t20 98.5
q0 28 -13 57.5t-45 50t-64 20.5z" />
    <glyph glyph-name="A" unicode="A" horiz-adv-x="742" 
d="M641 65l76 -54v-11h-217v11l77 41l-72 174h-272l-70 -173h5l77 -42v-11h-220v11l77 55l264 630h12zM255 282h227l-115 279z" />
    <glyph glyph-name="B" unicode="B" horiz-adv-x="608" 
d="M418 355q37 -7 73 -33t51.5 -59.5t15.5 -66.5q0 -38 -15.5 -74t-45 -63t-73.5 -43t-98 -16h-276v11l78 42v574l-78 42v11h271q62 0 109 -22.5t73 -62.5t26 -98q0 -37 -21 -70.5t-46.5 -50t-43.5 -21.5zM191 624v-241h128q33 0 66 12.5t55 42.5t22 62q0 23 -11 52.5
t-44 50.5t-88 21h-128zM191 56h140q70 0 115.5 39.5t45.5 99.5q0 45 -30 77.5t-71 43.5t-72 11h-128v-271z" />
    <glyph glyph-name="C" unicode="C" horiz-adv-x="748" 
d="M663 501h-12q-37 62 -99 98.5t-146 36.5q-61 0 -115 -22t-92.5 -62t-60 -95t-21.5 -117t21.5 -117t60 -95t92.5 -62t115 -22q84 0 146 36.5t99 98.5h12v-194h-11l-52 56q-88 -56 -188 -56q-79 0 -146.5 27.5t-115.5 76.5t-74 114t-26 137t26 137t74 114t115.5 76.5
t146.5 27.5q103 0 189 -56l51 56h11v-194z" />
    <glyph glyph-name="D" unicode="D" horiz-adv-x="719" 
d="M50 680h241q84 0 155 -25t120.5 -70.5t76 -108.5t26.5 -136q0 -72 -26.5 -135t-76 -108.5t-120.5 -71t-155 -25.5h-241v11l77 41v576l-77 41v11zM191 57h100q68 0 125.5 20t98 57.5t62.5 90.5t22 115q0 64 -22 117t-62.5 90t-98 56.5t-125.5 19.5h-100v-566z" />
    <glyph glyph-name="E" unicode="E" horiz-adv-x="594" 
d="M509 159h10v-159h-469v11l78 42v574l-78 42v11h458v-119h-10l-51 65h-256v-249h220l43 47h8v-150h-8l-43 47h-220v-267h261z" />
    <glyph glyph-name="F" unicode="F" horiz-adv-x="578" 
d="M50 680h478v-129h-10l-51 75h-276v-259h220l43 47h8v-149h-8l-43 46h-220v-258l77 -42v-11h-218v11l78 42v574l-78 42v11z" />
    <glyph glyph-name="G" unicode="G" horiz-adv-x="782" 
d="M742 328v-11l-73 -47v-285h-11l-46 67q-50 -37 -98.5 -52t-106.5 -15q-77 0 -143.5 27.5t-114 76.5t-73.5 114t-26 137t26 137t73.5 114t114 76.5t143.5 27.5q105 0 186 -53l50 53h11v-196h-11q-35 61 -93 98.5t-144 38.5q-62 0 -115.5 -22t-92.5 -62t-60 -95t-21 -117
t21 -117t60 -95t92.5 -62t115.5 -22q120 0 204 84l-2 142l-94 47v11h228z" />
    <glyph glyph-name="H" unicode="H" horiz-adv-x="766" 
d="M716 669l-76 -41v-576l76 -41v-11h-217v11l78 42v262h-386v-262l77 -42v-11h-218v11l78 42v574l-78 42v11h218v-11l-77 -42v-255h386v255l-78 42v11h217v-11z" />
    <glyph glyph-name="I" unicode="I" horiz-adv-x="318" 
d="M268 669l-77 -42v-574l77 -42v-11h-218v11l78 42v574l-78 42v11h218v-11z" />
    <glyph glyph-name="J" unicode="J" horiz-adv-x="524" 
d="M489 680v-11l-77 -42h-1v-429q0 -99 -52 -156t-145 -57q-37 0 -83 16t-91 55v113h11q12 -28 34 -57.5t56.5 -48.5t72.5 -19q27 0 52 9t45.5 32t29 57t8.5 65v420l-78 42v11h218z" />
    <glyph glyph-name="K" unicode="K" horiz-adv-x="708" 
d="M598 50l75 -39v-11h-231v11l64 35l-315 293v-286l77 -42v-11h-218v11l78 42v574l-78 42v11h218v-11l-77 -42v-266l290 272l-66 36v11h229v-11l-80 -41l-302 -273z" />
    <glyph glyph-name="L" unicode="L" horiz-adv-x="559" 
d="M519 169v-169h-469v11l78 42v574l-78 42v11h218v-11l-77 -42v-573h261l57 115h10z" />
    <glyph glyph-name="M" unicode="M" horiz-adv-x="871" 
d="M756 52l75 -41v-11h-214v11l73 39l-18 479l-228 -332h-15l-226 332l-21 -479l72 -39v-11h-214v11l76 41l20 564l-76 56v8h121l255 -382l262 382h117v-8l-79 -56z" />
    <glyph glyph-name="N" unicode="N" horiz-adv-x="798" 
d="M537 680h221v-11l-77 -42v-642h-9l-478 584v-516l77 -42v-11h-221v11l78 42v562l-76 59v7h135l428 -522v468l-78 42v11z" />
    <glyph glyph-name="O" unicode="O" horiz-adv-x="792" 
d="M396 695q71 0 136 -26.5t114 -74.5t77 -114t28 -140q0 -73 -28 -138.5t-77 -114t-114 -75.5t-136 -27q-70 0 -135 27t-114.5 75.5t-77.5 114t-28 138.5q0 74 28 140t77 114t114.5 74.5t135.5 26.5zM396 636q-61 0 -114 -23t-91 -64.5t-59 -95.5t-21 -113q0 -58 21 -112
t59 -95.5t91.5 -65t113.5 -23.5q61 0 114 23.5t91 65t59 95.5t21 112q0 59 -21 113.5t-59 95.5t-91 64t-114 23z" />
    <glyph glyph-name="P" unicode="P" horiz-adv-x="583" 
d="M50 680h265q58 0 105 -16.5t78.5 -45.5t47.5 -67t16 -79q0 -43 -15.5 -82t-46 -69t-78 -47t-107.5 -17h-124v-204l77 -42v-11h-218v11l78 42v574l-78 42v11zM191 313h127q42 0 83 15.5t66.5 53.5t25.5 86q0 39 -19.5 76.5t-61.5 58.5t-94 21h-127v-311z" />
    <glyph glyph-name="Q" unicode="Q" horiz-adv-x="816" 
d="M766 -110v-12h-88l-124 139q-32 -15 -72 -23.5t-77 -8.5q-70 0 -135 27t-114.5 75.5t-77.5 114t-28 138.5q0 74 28 140t77 114t114.5 74.5t135.5 26.5q71 0 136 -26.5t114 -74.5t77 -114t28 -140q0 -88 -40.5 -164.5t-107.5 -124.5l98 -117zM120 340q0 -58 21 -112
t59 -95.5t91.5 -65t113.5 -23.5q61 0 114 23.5t91 65t59 95.5t21 112q0 59 -21 113.5t-59 95.5t-91 64t-114 23t-114 -23t-91 -64.5t-59 -95.5t-21 -113z" />
    <glyph glyph-name="R" unicode="R" horiz-adv-x="658" 
d="M638 11v-11h-130l-286 340v14h92q44 0 78.5 13.5t58 43.5t23.5 78q0 64 -44 99t-116 35h-123v-571l82 -41v-11h-223v11l78 42v574l-78 42v11h284q32 0 67 -9t70.5 -35t53.5 -66t18 -82t-18 -77t-49 -59t-69.5 -37.5t-77.5 -14.5l217 -241z" />
    <glyph glyph-name="S" unicode="S" horiz-adv-x="522" 
d="M433 551h-10q-26 37 -71.5 60t-93.5 23q-26 0 -56 -11t-51 -39.5t-21 -65.5q0 -31 12 -54t40 -45t137 -70q77 -34 110 -77.5t33 -102.5q0 -35 -13.5 -68.5t-39.5 -59.5t-65.5 -41t-89.5 -15q-55 0 -107 19.5t-87 52.5v95h11q29 -50 80.5 -78.5t111.5 -28.5q32 0 62.5 12
t50 41.5t19.5 63.5q0 23 -5.5 41t-17.5 32.5t-40.5 34t-139.5 67.5q-62 27 -96 70t-34 110q0 28 10.5 59t35 57t62.5 44t87 18q55 0 101 -15.5t75 -37.5v-91z" />
    <glyph glyph-name="T" unicode="T" horiz-adv-x="642" 
d="M582 680v-114h-5l-58 57h-167v-563l89 -49v-11h-242v11l90 50v562h-166l-58 -57h-5v114h522z" />
    <glyph glyph-name="U" unicode="U" horiz-adv-x="755" 
d="M725 680v-11l-77 -42v-369q0 -62 -20.5 -113t-58 -87t-87.5 -54.5t-107 -18.5q-42 0 -88 12.5t-85 44t-60 72.5t-27.5 77.5t-6.5 66.5v369l-78 42v11h218v-11l-77 -42v-374q0 -33 10 -68.5t38 -70.5t70.5 -52.5t85.5 -17.5t82 14.5t67.5 41.5t44.5 64.5t16 82.5v380
l-78 42v11h218z" />
    <glyph glyph-name="V" unicode="V" horiz-adv-x="720" 
d="M705 680v-11l-72 -51l-266 -636h-12l-266 635l-74 52v11h229v-11l-77 -42h-7l206 -508l199 508h-6l-78 42v11h224z" />
    <glyph glyph-name="W" unicode="W" horiz-adv-x="996" 
d="M986 680v-11l-71 -50l-187 -638h-12l-221 532l-198 -532h-12l-210 644l-65 44v11h222v-11l-77 -42h-7l150 -483l200 555h3l220 -555l127 483h-4l-78 42v11h220z" />
    <glyph glyph-name="X" unicode="X" horiz-adv-x="749" 
d="M628 65l91 -54v-11h-232v11l78 42h1l-193 246l-187 -246l77 -42v-11h-233v11l101 66l206 269l-208 265l-96 58v11h114l3 -4v4h120v-11l-77 -42h-5l184 -234l182 237l-72 39v11h230v-11l-99 -56l-204 -268z" />
    <glyph glyph-name="Y" unicode="Y" horiz-adv-x="705" 
d="M680 680v-11l-64 -39l-227 -359v-210l89 -50v-11h-242v11l90 50v209l-220 347l-81 52v11h217v-11l-67 -37l187 -301l178 304l-63 34v11h203zM357 220l-2 -3l3 2z" />
    <glyph glyph-name="Z" unicode="Z" horiz-adv-x="625" 
d="M547 146h10v-146h-502l-5 10l418 613h-322l-57 -76h-9v133h490l5 -10l-416 -613h319z" />
    <glyph glyph-name="bracketleft" unicode="[" horiz-adv-x="255" 
d="M200 659h-94v-843h94v-46h-145v935h145v-46z" />
    <glyph glyph-name="backslash" unicode="\" horiz-adv-x="351" 
d="M30 745l351 -745h-60l-351 746z" />
    <glyph glyph-name="bracketright" unicode="]" horiz-adv-x="255" 
d="M200 705v-935h-145v46h94v843h-94v46h145z" />
    <glyph glyph-name="asciicircum" unicode="^" horiz-adv-x="532" 
d="M490 425l-19 -15l-206 183l-205 -183l-18 15l223 275z" />
    <glyph glyph-name="underscore" unicode="_" horiz-adv-x="483" 
d="M483 -54h-483v54h483v-54z" />
    <glyph glyph-name="grave" unicode="`" horiz-adv-x="305" 
d="M158 725l105 -155h-17l-204 155h116z" />
    <glyph glyph-name="a" unicode="a" horiz-adv-x="552" 
d="M453 53l77 -42v-11h-126l-1 76q-30 -42 -79 -66.5t-106 -24.5q-52 0 -91.5 21t-60.5 55t-21 79t23 78.5t66 54t104 20.5q33 0 69 -8t85 -30v66q0 47 -24.5 79t-59.5 43.5t-64 11.5q-45 0 -84.5 -20t-61.5 -56l-10 5v67q29 27 72 44.5t94 17.5q91 0 145 -50.5t54 -139.5
v-270zM392 163v39q-69 33 -154 33q-56 0 -92 -25.5t-36 -69.5q0 -25 11.5 -47.5t40 -36t66.5 -13.5q26 0 62.5 12.5t69 43t32.5 64.5z" />
    <glyph glyph-name="b" unicode="b" horiz-adv-x="652" 
d="M354 513q52 0 99.5 -20.5t82.5 -57.5t54.5 -85.5t19.5 -101.5t-19.5 -101t-54.5 -84.5t-82 -57t-100 -20.5q-31 0 -68 10t-71 33.5t-59 53.5l-26 -79h-28v663l-77 45v9l138 25v-334q31 45 82 73.5t109 28.5zM354 43q31 0 64 10.5t61 36t47 66t19 93.5q0 42 -13.5 80
t-39 66t-61 44t-77.5 16q-31 0 -64 -10.5t-61 -36t-47 -66t-19 -93.5q0 -42 13.5 -80t39 -66t61 -44t77.5 -16z" />
    <glyph glyph-name="c" unicode="c" horiz-adv-x="534" 
d="M471 366h-10q-33 43 -70.5 66t-87.5 23q-31 0 -64.5 -10.5t-62.5 -36t-49 -66t-20 -93.5q0 -42 12.5 -75t33 -60t59.5 -49t91 -22t93 18.5t65 52.5l10 1l1 -73q-26 -24 -73 -40.5t-97 -16.5q-25 0 -58 6.5t-66 25t-64.5 50.5t-51.5 80.5t-20 101.5t20 101.5t56 85
t83.5 57t100.5 20.5q20 0 46.5 -4t73.5 -30l39 34h10v-147z" />
    <glyph glyph-name="d" unicode="d" horiz-adv-x="649" 
d="M550 53l77 -42v-11h-138v75q-81 -90 -191 -90q-53 0 -100 20.5t-82 57t-54.5 84.5t-19.5 101t19.5 101.5t54.5 85.5t82.5 57.5t99.5 20.5q108 0 191 -90v243l-77 45v9l138 25v-692zM298 43q31 0 64 10.5t61 36t47 66t19 93.5q0 42 -13.5 80t-39 66t-61 44t-77.5 16
q-31 0 -64 -10.5t-61 -36t-47 -66t-19 -93.5q0 -42 13.5 -80t39 -66t61 -44t77.5 -16z" />
    <glyph glyph-name="e" unicode="e" horiz-adv-x="576" 
d="M291 513q49 0 92 -18t74.5 -53t49 -85t17.5 -111v-14h-420q0 -28 10.5 -60t35 -60.5t62.5 -48.5t85 -20q50 0 94 14t78 54l11 -2v-71q-32 -23 -82.5 -38t-103.5 -15q-35 0 -76 12.5t-85 48.5t-67.5 91t-23.5 112q0 54 19.5 103t54.5 85t80.5 56t94.5 20zM290 455
q-28 0 -59.5 -10t-59.5 -33t-48 -56.5t-20 -69.5h352q0 74 -44 121.5t-121 47.5z" />
    <glyph glyph-name="f" unicode="f" horiz-adv-x="374" 
d="M382 645h-10q-15 16 -39 27.5t-51 11.5q-49 0 -73.5 -31t-24.5 -104v-52h147v-54h-147v-392l84 -40v-11h-223v11l78 42v390h-72v54h72v77q0 75 42 121.5t113 46.5q52 0 102 -23z" />
    <glyph glyph-name="g" unicode="g" horiz-adv-x="623" 
d="M551 512v-486q0 -45 -11 -85t-30.5 -70t-47.5 -51.5t-69 -36t-95 -14.5q-14 0 -32.5 1.5t-41 6t-43.5 11.5t-38.5 15t-36 18t-21.5 12l-1 63h9q58 -42 107.5 -55.5t99.5 -13.5q53 0 98 20t68.5 65t23.5 103v61q-38 -43 -84.5 -67t-107.5 -24q-53 0 -100 20.5t-82 57
t-54.5 84.5t-19.5 101t19.5 101.5t54.5 85.5t82.5 57.5t99.5 20.5q108 0 192 -91v1l44 89h17zM298 43q31 0 64 10.5t61 36t47 66t19 93.5q0 42 -13.5 80t-39 66t-61 44t-77.5 16q-31 0 -64 -10.5t-61 -36t-47 -66t-19 -93.5q0 -42 13.5 -80t39 -66t61 -44t77.5 -16z" />
    <glyph glyph-name="h" unicode="h" horiz-adv-x="629" 
d="M530 53l77 -42v-11h-216v11l78 42v252q0 38 -11 66.5t-31 47.5t-47 27.5t-54 8.5q-60 0 -98 -30t-44 -96v-282l77 -42v-11h-216v11l78 42v614l-77 44v9l138 25v-301q24 31 66 53t91 22q87 0 138 -54t51 -159v-247z" />
    <glyph glyph-name="i" unicode="i" horiz-adv-x="288" 
d="M147 631q-22 0 -38 16t-16 37q0 22 16 39t38 17t38.5 -17t16.5 -39q0 -21 -16.5 -37t-38.5 -16zM184 53l77 -42v-11h-216v11l78 42v381l-77 44v9l138 26v-460z" />
    <glyph glyph-name="j" unicode="j" horiz-adv-x="302" 
d="M169 737q20 0 35.5 -15.5t15.5 -37.5q0 -21 -15.5 -35.5t-35.5 -14.5q-21 0 -36.5 14.5t-15.5 35.5q0 22 15.5 37.5t36.5 15.5zM206 513v-585q0 -56 -17.5 -95t-49 -61t-72.5 -22q-62 0 -97 31v88h12q21 -34 38 -49.5t43 -15.5q40 0 61.5 30.5t21.5 87.5v511l-78 45v8z
" />
    <glyph glyph-name="k" unicode="k" horiz-adv-x="591" 
d="M479 53l90 -42v-11h-130l-260 270v-217l77 -42v-11h-216v11l78 42v614l-77 44v9l138 25v-461l216 170l-59 32v11h218v-9l-102 -54l-194 -155z" />
    <glyph glyph-name="l" unicode="l" horiz-adv-x="301" 
d="M179 53l77 -42v-11h-216v11l78 42v614l-77 44v9l138 25v-692z" />
    <glyph glyph-name="m" unicode="m" horiz-adv-x="923" 
d="M825 52l76 -41v-11h-214v11l78 42v262q0 49 -18 81.5t-48.5 48.5t-63.5 16q-23 0 -44 -7t-38.5 -21t-32.5 -44t-15 -80v-256l77 -42v-11h-216v11l78 42v256q0 58 -24.5 93.5t-54.5 47t-51 11.5q-24 0 -54.5 -11.5t-53 -47t-22.5 -93.5v-256l77 -42v-11h-216v11l78 42v381
l-77 44v9l126 26l6 -72q20 28 61 50t86 22q55 0 98.5 -22.5t64.5 -62.5q18 22 45.5 43.5t57.5 31.5t55 10q59 0 98.5 -24t60 -66.5t20.5 -102.5v-268z" />
    <glyph glyph-name="n" unicode="n" horiz-adv-x="629" 
d="M530 53l77 -42v-11h-216v11l78 42v252q0 38 -11 66.5t-31 47.5t-47 27.5t-54 8.5q-60 0 -98 -30t-44 -96v-276l77 -42v-11h-216v11l78 42v381l-77 44v9l126 26l7 -67l1 -13q23 33 66.5 56.5t94.5 23.5q87 0 138 -54t51 -159v-247z" />
    <glyph glyph-name="o" unicode="o" horiz-adv-x="606" 
d="M303 513q53 0 101 -20.5t84 -57.5t56 -85.5t20 -100.5q0 -53 -20 -101.5t-56 -85t-84 -57t-101 -20.5t-101 20.5t-84 57t-56 85t-20 101.5q0 52 20 100.5t56 85.5t84 57.5t101 20.5zM303 455q-31 0 -64.5 -10.5t-62.5 -36t-49 -66t-20 -93.5q0 -42 12.5 -75t33 -60
t59.5 -49t91 -22q31 0 64.5 10.5t62.5 36t49 66t20 93.5q0 42 -12.5 75t-33 60t-59.5 49t-91 22z" />
    <glyph glyph-name="p" unicode="p" horiz-adv-x="663" 
d="M365 513q52 0 99.5 -20.5t82.5 -57.5t54.5 -85.5t19.5 -101.5t-19.5 -101t-54.5 -84.5t-82 -57t-100 -20.5q-29 0 -64.5 9t-69 30.5t-57.5 49.5v-256l77 -42v-11h-216v11l78 42h1v616l-78 44v9l138 26v-102q31 45 82 73.5t109 28.5zM365 43q31 0 64 10.5t61 36t47 66
t19 93.5q0 42 -13.5 80t-39 66t-61 44t-77.5 16q-31 0 -64 -10.5t-61 -36t-47 -66t-19 -93.5q0 -42 13.5 -80t39 -66t61 -44t77.5 -16z" />
    <glyph glyph-name="q" unicode="q" horiz-adv-x="654" 
d="M550 -182l77 -42v-11h-216v11l78 42v257q-81 -90 -191 -90q-53 0 -100 20.5t-82 57t-54.5 84.5t-19.5 101t19.5 101.5t54.5 85.5t82.5 57.5t99.5 20.5q108 0 191 -90v2l44 88h17v-695zM298 43q31 0 64 10.5t61 36t47 66t19 93.5q0 42 -13.5 80t-39 66t-61 44t-77.5 16
q-31 0 -64 -10.5t-61 -36t-47 -66t-19 -93.5q0 -42 13.5 -80t39 -66t61 -44t77.5 -16z" />
    <glyph glyph-name="r" unicode="r" horiz-adv-x="403" 
d="M319 513q31 0 62 -10v-69h-10q-21 21 -69 21q-58 0 -88 -49t-30 -131v-222l94 -42v-11h-233v11l78 42v381l-77 44v9l127 26l7 -88q47 88 139 88z" />
    <glyph glyph-name="s" unicode="s" horiz-adv-x="432" 
d="M360 396h-10q-39 35 -71.5 46.5t-63.5 11.5q-44 0 -71 -22t-27 -56q0 -28 20 -49.5t110 -53.5q71 -25 102 -61.5t31 -83.5q0 -44 -27.5 -79.5t-66.5 -49.5t-74 -14q-85 0 -160 50v77h11q28 -34 67.5 -51.5t81.5 -17.5q31 0 57.5 11.5t37.5 30t11 35.5q0 36 -27.5 61.5
t-93.5 46.5q-53 17 -83.5 37t-44 46t-13.5 63q0 58 46 98t120 40q69 0 138 -38v-78z" />
    <glyph glyph-name="t" unicode="t" horiz-adv-x="403" 
d="M179 443v-297q0 -52 23 -80.5t66 -28.5q46 0 81 49l9 -3v-65q-42 -33 -98 -33q-22 0 -46 7t-45 24t-36 47t-15 74v306h-93v9l148 152h7v-107h181v-54h-182z" />
    <glyph glyph-name="u" unicode="u" horiz-adv-x="620" 
d="M508 53l77 -42v-11h-131l-5 65q-22 -33 -65.5 -57t-95.5 -24q-87 0 -138 54t-51 159v247l-77 42v11h138v-305q0 -38 14 -74.5t49 -59t80 -22.5q67 0 105 39.5t38 116.5v252l-77 42v11h140z" />
    <glyph glyph-name="v" unicode="v" horiz-adv-x="608" 
d="M598 497v-8l-71 -45l-217 -463h-12l-217 463l-71 45v8h219v-11l-77 -42l152 -348l153 350l-74 40v11h215z" />
    <glyph glyph-name="w" unicode="w" horiz-adv-x="824" 
d="M807 497v-8l-72 -45l-153 -463h-11l-160 388l-163 -388h-14l-146 463l-71 45v8h216v-11l-77 -42h-1l97 -324l161 386h8l151 -373l94 312l-76 41v11h217z" />
    <glyph glyph-name="x" unicode="x" horiz-adv-x="606" 
d="M581 10v-10h-220v11l71 38l-130 152l-128 -152l70 -38v-11h-211v11l66 42l169 188l-173 203l-70 44v9h229v-10l-76 -39l132 -159l128 159l-68 39v10h196v-11l-58 -42l-165 -195l163 -196z" />
    <glyph glyph-name="y" unicode="y" horiz-adv-x="612" 
d="M607 497v-8l-67 -45l-281 -627l74 -40v-12h-241v12l99 40l81 156l18 44l-205 424l-80 48v8h231v-11l-73 -40l157 -357l148 358l-72 39v11h211z" />
    <glyph glyph-name="z" unicode="z" horiz-adv-x="504" 
d="M458 499l4 -8l-324 -441h250l53 63h9v-113h-404l-4 7l321 441h-236l-54 -66h-8v115z" />
    <glyph glyph-name="braceleft" unicode="{" horiz-adv-x="387" 
d="M330 726l2 -7q-54 -33 -84.5 -93.5t-30.5 -128.5v-128q0 -37 -14.5 -67.5t-30 -42t-21.5 -14.5q24 -11 40 -35.5t21 -48.5t5 -40v-128q0 -73 30 -131t85 -91l-2 -7q-67 24 -100.5 51.5t-49.5 70.5t-16 110v146q0 34 -16 52.5t-39.5 27.5t-53.5 19v8q60 19 79 33t24.5 31
t5.5 35v146q0 87 34.5 142t131.5 90z" />
    <glyph glyph-name="bar" unicode="|" horiz-adv-x="247" 
d="M147 -225h-47v970h47v-970z" />
    <glyph glyph-name="braceright" unicode="}" horiz-adv-x="387" 
d="M55 719l2 7q97 -35 131.5 -90t34.5 -142v-146q0 -34 16 -52.5t39.5 -27.5t53.5 -19v-8q-60 -19 -79 -33t-24.5 -31t-5.5 -35v-146q0 -54 -11.5 -96.5t-44 -75t-110.5 -60.5l-2 7q55 33 85 91t30 131v128q0 37 14.5 67.5t30 42t21.5 14.5q-24 11 -40 35.5t-21 48.5t-5 40
v128q0 68 -30.5 128.5t-84.5 93.5z" />
    <glyph glyph-name="asciitilde" unicode="~" horiz-adv-x="524" 
d="M468 348l14 -4q-20 -115 -126 -115q-36 0 -89.5 24.5t-72 28t-26.5 3.5q-30 0 -61 -24.5t-51 -56.5l-14 4q1 25 14.5 56.5t44.5 55t67 23.5t89.5 -24.5t72 -28t26.5 -3.5q33 -1 63.5 16t48.5 45z" />
    <glyph glyph-name="exclamdown" unicode="&#xa1;" horiz-adv-x="209" 
d="M104 579q-20 0 -34.5 15.5t-14.5 35.5q0 19 14.5 33.5t34.5 14.5q19 0 34.5 -14.5t15.5 -33.5q0 -20 -15.5 -35.5t-34.5 -15.5zM63 -17l35 493h16l32 -493h-83z" />
    <glyph glyph-name="cent" unicode="&#xa2;" 
d="M480 115l1 -73q-21 -20 -57 -35t-76 -20v-55h-66v54q-48 5 -90.5 27.5t-74 58.5t-49 82t-17.5 95t17.5 94.5t49 81.5t74 58.5t90.5 27.5v59h66v-59q13 -2 31 -7t52 -25l39 34h10v-147h-10q-33 43 -70.5 66t-87.5 23q-31 0 -64.5 -10.5t-62.5 -36t-49 -66t-20 -93.5
q0 -42 12.5 -75t33 -60t59.5 -49t91 -22t93 18.5t65 52.5z" />
    <glyph glyph-name="sterling" unicode="&#xa3;" 
d="M361 636q-63 0 -106.5 -43.5t-46.5 -123.5q-1 -47 3 -95h214v-54h-210q5 -68 3.5 -110.5t-12 -81.5t-34.5 -71h255l63 89h12v-146h-450v12l67 68q38 40 43 102q3 35 -7 138h-83v54h78q-5 52 -5 101q0 47 16.5 88t46 70.5t68 45.5t79.5 16q81 0 149 -41v-75h-12
q-21 25 -55 41t-76 16z" />
    <glyph glyph-name="currency" unicode="&#xa4;" horiz-adv-x="610" 
d="M510 250q0 -34 -11.5 -65.5t-28.5 -54.5l73 -70l-52 -49l-72 73q-23 -15 -53.5 -24t-60.5 -9t-60.5 9t-53.5 24l-72 -73l-52 49l73 70q-17 23 -28.5 54.5t-11.5 65.5t11.5 65.5t28.5 54.5l-73 70l52 49l72 -73q23 15 53.5 24t60.5 9t60.5 -9t53.5 -24l72 73l52 -49
l-73 -70q17 -23 28.5 -54.5t11.5 -65.5zM167 250q0 -22 7.5 -48.5t28.5 -49.5t47 -34t55 -11q21 0 44.5 7t44 24.5t35 45.5t14.5 66q0 62 -39.5 102.5t-98.5 40.5q-21 0 -44.5 -7t-44 -24.5t-35 -45.5t-14.5 -66z" />
    <glyph glyph-name="yen" unicode="&#xa5;" 
d="M529 680v-12l-47 -38l-151 -283h116v-50h-139v-73h139v-50h-139v-113l81 -50v-11h-226v11l82 50v113h-144v50h144v73h-144v50h122l-143 283l-60 38v12h174v-12l-58 -38l146 -276l140 276l-55 38v12h162z" />
    <glyph glyph-name="brokenbar" unicode="&#xa6;" horiz-adv-x="248" 
d="M148 275h-47v470h47v-470zM147 -225h-47v430h47v-430z" />
    <glyph glyph-name="section" unicode="&#xa7;" horiz-adv-x="522" 
d="M462 169q0 -28 -10.5 -58.5t-27.5 -52.5q38 -44 38 -109q0 -35 -13.5 -68.5t-39.5 -59.5t-65.5 -41t-89.5 -15q-55 0 -107 19.5t-87 52.5v95h11q29 -50 80.5 -78.5t111.5 -28.5q32 0 62.5 12t50 41.5t19.5 63.5q0 23 -5.5 41t-17.5 32.5t-40.5 34t-139.5 67.5
q-62 27 -96 70t-34 110q0 28 10 56.5t27 49.5q-37 45 -37 114q0 28 10.5 59t35 57t62.5 44t87 18q55 0 101 -15.5t75 -37.5v-91h-10q-26 37 -71.5 60t-93.5 23q-26 0 -56 -11t-51 -39.5t-21 -65.5q0 -31 12 -54t40 -45t137 -70q77 -34 110 -77.5t33 -102.5zM130 298
q0 -31 12 -54t40 -45t137 -70q30 -13 58 -30q18 29 18 63q0 23 -5.5 41t-17.5 32.5t-40.5 34t-139.5 67.5q-29 13 -44 23q-18 -27 -18 -62z" />
    <glyph glyph-name="dieresis" unicode="&#xa8;" horiz-adv-x="388" 
d="M96 707q22 0 37.5 -15t15.5 -38t-15.5 -38t-37.5 -15t-38 15t-16 38t16 38t38 15zM291 707q23 0 39 -15t16 -38t-16 -38t-39 -15q-21 0 -36.5 15.5t-15.5 37.5t15.5 37.5t36.5 15.5z" />
    <glyph glyph-name="copyright" unicode="&#xa9;" horiz-adv-x="784" 
d="M392 695q70 0 134.5 -28t113 -77.5t75.5 -114.5t27 -135t-27 -135t-75.5 -114.5t-113 -77.5t-134.5 -28t-134.5 28t-113 77.5t-75.5 114.5t-27 135t27 135t75.5 114.5t113 77.5t134.5 28zM392 648q-59 0 -114 -24.5t-96.5 -67.5t-65 -99.5t-23.5 -116.5t23.5 -116.5
t65 -99.5t96.5 -67.5t114 -24.5t114 24.5t96.5 67.5t65 99.5t23.5 116.5t-23.5 116.5t-65 99.5t-96.5 67.5t-114 24.5zM520 426h-7q-25 32 -53.5 49.5t-66.5 17.5q-64 0 -106 -45t-42 -111t42 -110.5t106 -44.5q81 0 120 53l7 1l1 -55q-20 -18 -56 -30.5t-73 -12.5
q-39 0 -75.5 15.5t-63.5 43t-42 64t-15 76.5t15 76.5t42 64.5t63 43.5t76 15.5q15 0 34.5 -3t56.5 -23l30 26h7v-111z" />
    <glyph glyph-name="ordfeminine" unicode="&#xaa;" horiz-adv-x="452" 
d="M373 473l57 -42v-11h-111v43q-20 -23 -49.5 -37.5t-59.5 -14.5q-24 0 -52 9t-56 32.5t-42.5 58t-14.5 67.5q0 24 8.5 52t29 53.5t53.5 43.5t74 18q30 0 59.5 -15t49.5 -39l44 54h10v-272zM210 463q46 0 77.5 33t31.5 82t-31.5 82t-77.5 33q-22 0 -48 -11t-43.5 -39.5
t-17.5 -64.5q0 -23 10 -50t37 -46t62 -19z" />
    <glyph glyph-name="guillemotleft" unicode="&#xab;" horiz-adv-x="503" 
d="M261 401l-142 -151l142 -151v-71l-211 222l211 222v-71zM443 401l-142 -151l142 -151v-71l-211 222l211 222v-71z" />
    <glyph glyph-name="logicalnot" unicode="&#xac;" horiz-adv-x="663" 
d="M618 191h-63v246h-510v63h573v-309z" />
    <glyph glyph-name="uni00AD" unicode="&#xad;" horiz-adv-x="365" 
d="M320 260h-275v54h275v-54z" />
    <glyph glyph-name="registered" unicode="&#xae;" horiz-adv-x="784" 
d="M392 695q70 0 134.5 -28t113 -77.5t75.5 -114.5t27 -135t-27 -135t-75.5 -114.5t-113 -77.5t-134.5 -28t-134.5 28t-113 77.5t-75.5 114.5t-27 135t27 135t75.5 114.5t113 77.5t134.5 28zM392 648q-59 0 -114 -24.5t-96.5 -67.5t-65 -99.5t-23.5 -116.5t23.5 -116.5
t65 -99.5t96.5 -67.5t114 -24.5t114 24.5t96.5 67.5t65 99.5t23.5 116.5t-23.5 116.5t-65 99.5t-96.5 67.5t-114 24.5zM578 157h-83l-151 201v8h42q90 0 90 66q0 35 -24.5 53t-65.5 18h-49v-317l46 -23v-6h-136v6l44 24v323l-44 24v6h160q23 0 50.5 -10t47.5 -36.5t20 -61.5
q0 -46 -35.5 -73t-82.5 -29l119 -140l52 -27v-6z" />
    <glyph glyph-name="macron" unicode="&#xaf;" horiz-adv-x="407" 
d="M365 612h-323v53h323v-53z" />
    <glyph glyph-name="degree" unicode="&#xb0;" horiz-adv-x="312" 
d="M156 697q36 0 64 -18.5t39 -45t11 -49.5t-11 -49.5t-39 -45t-64 -18.5t-64 18.5t-39 45t-11 49.5t11 49.5t39 45t64 18.5zM156 657q-31 0 -52 -21.5t-21 -51.5t21 -51.5t52 -21.5t52 21.5t21 51.5t-21 51.5t-52 21.5z" />
    <glyph glyph-name="plusminus" unicode="&#xb1;" horiz-adv-x="487" 
d="M446 348v-50h-182v-160h-49v160h-174v50h174v163h49v-163h182zM41 84h405v-50h-405v50z" />
    <glyph glyph-name="acute" unicode="&#xb4;" horiz-adv-x="305" 
d="M59 570h-17l105 155h116z" />
    <glyph glyph-name="paragraph" unicode="&#xb6;" horiz-adv-x="642" 
d="M592 680v-11l-77 -42v-852h-63v848h-70v-848h-63v461h-21q-48 0 -94 13.5t-82.5 41.5t-58.5 71t-22 99q0 69 31.5 117t88.5 75t132 27h299z" />
    <glyph glyph-name="periodcentered" unicode="&#xb7;" horiz-adv-x="209" 
d="M104 355q19 0 34.5 -15.5t15.5 -35.5q0 -19 -15.5 -33.5t-34.5 -14.5q-20 0 -34.5 14.5t-14.5 33.5q0 20 14.5 35.5t34.5 15.5z" />
    <glyph glyph-name="cedilla" unicode="&#xb8;" horiz-adv-x="220" 
d="M107 0l-11 -49q22 0 43 -8t30 -22.5t9 -28.5q0 -42 -43 -70t-92 -33l-1 10q39 18 58.5 37t19.5 43q0 21 -15.5 31.5t-40.5 10.5l18 79h25z" />
    <glyph glyph-name="ordmasculine" unicode="&#xba;" horiz-adv-x="414" 
d="M207 411q24 0 52 9t56 32.5t42.5 58t14.5 67.5q0 24 -8.5 52t-29 53.5t-53.5 43.5t-74 18q-24 0 -52 -9t-56 -32.5t-42.5 -58t-14.5 -67.5q0 -24 8.5 -52t29 -53.5t53.5 -43.5t74 -18zM207 693q22 0 48 -11t43.5 -39.5t17.5 -64.5q0 -23 -10 -50t-37 -46t-62 -19
q-22 0 -48 11t-43.5 39.5t-17.5 64.5q0 23 10 50t37 46t62 19z" />
    <glyph glyph-name="guillemotright" unicode="&#xbb;" horiz-adv-x="503" 
d="M271 250l-211 -222v71l142 151l-142 151v71zM453 250l-211 -222v71l142 151l-142 151v71z" />
    <glyph glyph-name="onequarter" unicode="&#xbc;" horiz-adv-x="836" 
d="M276 0h-56l409 695h56zM221 343l80 -34v-9h-221v9l90 34v263l-90 22v9l131 43h10v-337zM699 33l53 -27v-6h-157v6l53 27v66h-176v8l222 273h5v-237h57l-6 -44h-51v-66zM648 260l-90 -117h90v117z" />
    <glyph glyph-name="onehalf" unicode="&#xbd;" horiz-adv-x="881" 
d="M685 695l-409 -695h-56l409 695h56zM221 680v-337l80 -34v-9h-221v9l90 34v263l-90 22v9l131 43h10zM678 386q49 0 83.5 -27.5t34.5 -77.5q0 -35 -21 -67t-60.5 -77.5t-54.5 -64t-21 -26.5h109l46 47h7v-93h-242v12l145 183q39 47 39 82q0 29 -18 47t-50 18
q-59 0 -96 -59h-7v62q39 41 106 41z" />
    <glyph glyph-name="threequarters" unicode="&#xbe;" horiz-adv-x="836" 
d="M276 0h-56l409 695h56zM190 690q51 0 87 -28.5t36 -77.5q0 -56 -72 -86q42 -13 61 -37t19 -53q0 -52 -39 -83t-97 -31q-54 0 -105 37v62h7q26 -32 51.5 -41.5t51.5 -9.5q35 0 56.5 17.5t21.5 47.5t-21.5 47.5t-56.5 17.5h-37v46h37q33 0 52 17.5t19 45.5q0 27 -19 44.5
t-52 17.5q-52 0 -88 -38h-6v57q41 28 94 28zM699 33l43 -27v-6h-137v6l43 27v66h-176v8l222 273h5v-237h57l-6 -44h-51v-66zM648 260l-90 -117h90v117z" />
    <glyph glyph-name="questiondown" unicode="&#xbf;" horiz-adv-x="470" 
d="M276 596q-19 0 -34.5 15.5t-15.5 35.5q0 19 15.5 33.5t34.5 14.5q20 0 34.5 -14.5t14.5 -33.5q0 -20 -14.5 -35.5t-34.5 -15.5zM247 -15q-86 0 -139 47.5t-53 124.5q0 47 21.5 83t68.5 77t61.5 57t25.5 31.5t20.5 37.5t12.5 50h17q0 -27 -8 -59.5t-26 -62.5t-61.5 -84
t-53 -82.5t-9.5 -48.5q0 -53 36.5 -84.5t89.5 -31.5q28 0 55.5 11.5t49.5 34t48 57.5h12v-89q-47 -41 -88 -55t-80 -14z" />
    <glyph glyph-name="Agrave" unicode="&#xc0;" horiz-adv-x="742" 
d="M438 750h-17l-204 155h116zM641 65l76 -54v-11h-217v11l77 41l-72 174h-272l-70 -173h5l77 -42v-11h-220v11l77 55l264 630h12zM255 282h227l-115 279z" />
    <glyph glyph-name="Aacute" unicode="&#xc1;" horiz-adv-x="742" 
d="M535 905l-204 -155h-17l105 155h116zM641 65l76 -54v-11h-217v11l77 41l-72 174h-272l-70 -173h5l77 -42v-11h-220v11l77 55l264 630h12zM255 282h227l-115 279z" />
    <glyph glyph-name="Acircumflex" unicode="&#xc2;" horiz-adv-x="742" 
d="M372 817l-140 -76l-15 10l155 143l157 -143l-17 -10zM641 65l76 -54v-11h-217v11l77 41l-72 174h-272l-70 -173h5l77 -42v-11h-220v11l77 55l264 630h12zM255 282h227l-115 279z" />
    <glyph glyph-name="Atilde" unicode="&#xc3;" horiz-adv-x="742" 
d="M234 789h-13q0 23 9 45.5t30 36t45 13.5q27 0 82.5 -24t76.5 -24q18 0 30.5 13.5t16.5 32.5h13q0 -24 -9 -47t-30 -35.5t-45 -12.5q-27 0 -82.5 24t-76.5 24q-17 0 -29.5 -13t-17.5 -33zM641 65l76 -54v-11h-217v11l77 41l-72 174h-272l-70 -173h5l77 -42v-11h-220v11
l77 55l264 630h12zM255 282h227l-115 279z" />
    <glyph glyph-name="Adieresis" unicode="&#xc4;" horiz-adv-x="742" 
d="M274 784q-22 0 -38 15t-16 38t16 38t38 15t37.5 -15t15.5 -38t-15.5 -38t-37.5 -15zM469 784q-21 0 -36.5 15.5t-15.5 37.5t15.5 37.5t36.5 15.5q23 0 39 -15t16 -38t-16 -38t-39 -15zM641 65l76 -54v-11h-217v11l77 41l-72 174h-272l-70 -173h5l77 -42v-11h-220v11
l77 55l264 630h12zM255 282h227l-115 279z" />
    <glyph glyph-name="Aring" unicode="&#xc5;" horiz-adv-x="742" 
d="M372 758q-18 0 -40.5 8.5t-38.5 31t-16 51.5q0 19 9.5 40.5t33 36t52.5 14.5q18 0 40.5 -8.5t38.5 -31t16 -51.5q0 -19 -9.5 -40.5t-33 -36t-52.5 -14.5zM372 900q-22 0 -36 -14.5t-14 -36.5t14 -36.5t36 -14.5t36 14.5t14 36.5t-14 36.5t-36 14.5zM641 65l76 -54v-11
h-217v11l77 41l-72 174h-272l-70 -173h5l77 -42v-11h-220v11l77 55l264 630h12zM255 282h227l-115 279z" />
    <glyph glyph-name="AE" unicode="&#xc6;" horiz-adv-x="1008" 
d="M923 159h10v-159h-469v11l78 42v128h-272l-96 -132l70 -38v-11h-219v11l72 39l427 587l-60 32v11h458v-119h-10l-51 65h-256v-249h220l43 47h8v-150h-8l-43 47h-220v-267h261zM311 237h231v318z" />
    <glyph glyph-name="Ccedilla" unicode="&#xc7;" horiz-adv-x="748" 
d="M406 636q-61 0 -115 -22t-92.5 -62t-60 -95t-21.5 -117t21.5 -117t60 -95t92.5 -62t115 -22q84 0 146 36.5t99 98.5h12v-194h-11l-52 56q-83 -53 -180 -56l-8 -34q22 0 43 -8t30 -22.5t9 -28.5q0 -42 -43 -70t-92 -33l-1 10q39 18 58.5 37t19.5 43q0 21 -15.5 31.5
t-40.5 10.5l15 64q-105 5 -185 55.5t-120 130.5t-40 169q0 72 26 137t74 114t115.5 76.5t146.5 27.5q103 0 189 -56l51 56h11v-194h-12q-37 62 -99 98.5t-146 36.5z" />
    <glyph glyph-name="Egrave" unicode="&#xc8;" horiz-adv-x="594" 
d="M378 750h-17l-204 155h116zM509 159h10v-159h-469v11l78 42v574l-78 42v11h458v-119h-10l-51 65h-256v-249h220l43 47h8v-150h-8l-43 47h-220v-267h261z" />
    <glyph glyph-name="Eacute" unicode="&#xc9;" horiz-adv-x="594" 
d="M475 905l-204 -155h-17l105 155h116zM509 159h10v-159h-469v11l78 42v574l-78 42v11h458v-119h-10l-51 65h-256v-249h220l43 47h8v-150h-8l-43 47h-220v-267h261z" />
    <glyph glyph-name="Ecircumflex" unicode="&#xca;" horiz-adv-x="594" 
d="M312 817l-140 -76l-15 10l155 143l157 -143l-17 -10zM509 159h10v-159h-469v11l78 42v574l-78 42v11h458v-119h-10l-51 65h-256v-249h220l43 47h8v-150h-8l-43 47h-220v-267h261z" />
    <glyph glyph-name="Edieresis" unicode="&#xcb;" horiz-adv-x="594" 
d="M214 784q-22 0 -38 15t-16 38t16 38t38 15t37.5 -15t15.5 -38t-15.5 -38t-37.5 -15zM409 784q-21 0 -36.5 15.5t-15.5 37.5t15.5 37.5t36.5 15.5q23 0 39 -15t16 -38t-16 -38t-39 -15zM509 159h10v-159h-469v11l78 42v574l-78 42v11h458v-119h-10l-51 65h-256v-249h220
l43 47h8v-150h-8l-43 47h-220v-267h261z" />
    <glyph glyph-name="Igrave" unicode="&#xcc;" horiz-adv-x="318" 
d="M233 750h-17l-204 155h116zM268 669l-77 -42v-574l77 -42v-11h-218v11l78 42v574l-78 42v11h218v-11z" />
    <glyph glyph-name="Iacute" unicode="&#xcd;" horiz-adv-x="318" 
d="M330 905l-204 -155h-17l105 155h116zM50 680h218v-11l-77 -42v-574l77 -42v-11h-218v11l78 42v574l-78 42v11z" />
    <glyph glyph-name="Icircumflex" unicode="&#xce;" horiz-adv-x="318" 
d="M167 894l157 -143l-17 -10l-140 76l-140 -76l-15 10zM50 680h218v-11l-77 -42v-574l77 -42v-11h-218v11l78 42v574l-78 42v11z" />
    <glyph glyph-name="Idieresis" unicode="&#xcf;" horiz-adv-x="318" 
d="M122 837q0 -23 -15.5 -38t-37.5 -15t-38 15t-16 38t16 38t38 15t37.5 -15t15.5 -38zM264 890q23 0 39 -15t16 -38t-16 -38t-39 -15q-21 0 -36.5 15.5t-15.5 37.5t15.5 37.5t36.5 15.5zM50 680h218v-11l-77 -42v-574l77 -42v-11h-218v11l78 42v574l-78 42v11z" />
    <glyph glyph-name="Eth" unicode="&#xd0;" horiz-adv-x="719" 
d="M50 680h241q84 0 155 -25t120.5 -70.5t76 -108.5t26.5 -136q0 -72 -26.5 -135t-76 -108.5t-120.5 -71t-155 -25.5h-241v11l77 41v235h-72v54h72v287l-77 41v11zM191 57h100q68 0 125.5 20t98 57.5t62.5 90.5t22 115q0 64 -22 117t-62.5 90t-98 56.5t-125.5 19.5h-100
v-282h139v-54h-139v-230z" />
    <glyph glyph-name="Ntilde" unicode="&#xd1;" horiz-adv-x="798" 
d="M253 789h-13q0 23 9 45.5t30 36t45 13.5q27 0 82.5 -24t76.5 -24q18 0 30.5 13.5t16.5 32.5h13q0 -24 -9 -47t-30 -35.5t-45 -12.5q-27 0 -82.5 24t-76.5 24q-17 0 -29.5 -13t-17.5 -33zM537 680h221v-11l-77 -42v-642h-9l-478 584v-516l77 -42v-11h-221v11l78 42v562
l-76 59v7h135l428 -522v468l-78 42v11z" />
    <glyph glyph-name="Ograve" unicode="&#xd2;" horiz-adv-x="792" 
d="M357 905l105 -155h-17l-204 155h116zM396 695q71 0 136 -26.5t114 -74.5t77 -114t28 -140q0 -73 -28 -138.5t-77 -114t-114 -75.5t-136 -27q-70 0 -135 27t-114.5 75.5t-77.5 114t-28 138.5q0 74 28 140t77 114t114.5 74.5t135.5 26.5zM396 636q-61 0 -114 -23t-91 -64.5
t-59 -95.5t-21 -113q0 -58 21 -112t59 -95.5t91.5 -65t113.5 -23.5q61 0 114 23.5t91 65t59 95.5t21 112q0 59 -21 113.5t-59 95.5t-91 64t-114 23z" />
    <glyph glyph-name="Oacute" unicode="&#xd3;" horiz-adv-x="792" 
d="M355 750h-17l105 155h116zM396 695q71 0 136 -26.5t114 -74.5t77 -114t28 -140q0 -73 -28 -138.5t-77 -114t-114 -75.5t-136 -27q-70 0 -135 27t-114.5 75.5t-77.5 114t-28 138.5q0 74 28 140t77 114t114.5 74.5t135.5 26.5zM396 636q-61 0 -114 -23t-91 -64.5t-59 -95.5
t-21 -113q0 -58 21 -112t59 -95.5t91.5 -65t113.5 -23.5q61 0 114 23.5t91 65t59 95.5t21 112q0 59 -21 113.5t-59 95.5t-91 64t-114 23z" />
    <glyph glyph-name="Ocircumflex" unicode="&#xd4;" horiz-adv-x="792" 
d="M553 751l-17 -10l-140 76l-140 -76l-15 10l155 143zM396 695q71 0 136 -26.5t114 -74.5t77 -114t28 -140q0 -73 -28 -138.5t-77 -114t-114 -75.5t-136 -27q-70 0 -135 27t-114.5 75.5t-77.5 114t-28 138.5q0 74 28 140t77 114t114.5 74.5t135.5 26.5zM396 636
q-61 0 -114 -23t-91 -64.5t-59 -95.5t-21 -113q0 -58 21 -112t59 -95.5t91.5 -65t113.5 -23.5q61 0 114 23.5t91 65t59 95.5t21 112q0 59 -21 113.5t-59 95.5t-91 64t-114 23z" />
    <glyph glyph-name="Otilde" unicode="&#xd5;" horiz-adv-x="792" 
d="M535 882h13q0 -24 -9 -47t-30 -35.5t-45 -12.5q-27 0 -82.5 24t-76.5 24q-17 0 -29.5 -13t-17.5 -33h-13q0 23 9 45.5t30 36t45 13.5q27 0 82.5 -24t76.5 -24q18 0 30.5 13.5t16.5 32.5zM396 695q71 0 136 -26.5t114 -74.5t77 -114t28 -140q0 -73 -28 -138.5t-77 -114
t-114 -75.5t-136 -27q-70 0 -135 27t-114.5 75.5t-77.5 114t-28 138.5q0 74 28 140t77 114t114.5 74.5t135.5 26.5zM396 636q-61 0 -114 -23t-91 -64.5t-59 -95.5t-21 -113q0 -58 21 -112t59 -95.5t91.5 -65t113.5 -23.5q61 0 114 23.5t91 65t59 95.5t21 112q0 59 -21 113.5
t-59 95.5t-91 64t-114 23z" />
    <glyph glyph-name="Odieresis" unicode="&#xd6;" horiz-adv-x="792" 
d="M298 890q22 0 37.5 -15t15.5 -38t-15.5 -38t-37.5 -15t-38 15t-16 38t16 38t38 15zM493 890q23 0 39 -15t16 -38t-16 -38t-39 -15q-21 0 -36.5 15.5t-15.5 37.5t15.5 37.5t36.5 15.5zM396 695q71 0 136 -26.5t114 -74.5t77 -114t28 -140q0 -73 -28 -138.5t-77 -114
t-114 -75.5t-136 -27q-70 0 -135 27t-114.5 75.5t-77.5 114t-28 138.5q0 74 28 140t77 114t114.5 74.5t135.5 26.5zM396 636q-61 0 -114 -23t-91 -64.5t-59 -95.5t-21 -113q0 -58 21 -112t59 -95.5t91.5 -65t113.5 -23.5q61 0 114 23.5t91 65t59 95.5t21 112q0 59 -21 113.5
t-59 95.5t-91 64t-114 23z" />
    <glyph glyph-name="multiply" unicode="&#xd7;" horiz-adv-x="404" 
d="M327 119l-125 125l-119 -119l-37 37l119 119l-124 125l35 35l125 -124l119 119l37 -38l-119 -119l124 -124z" />
    <glyph glyph-name="Oslash" unicode="&#xd8;" horiz-adv-x="792" 
d="M670 685l-47 -69q43 -36 74 -85.5t42.5 -100t11.5 -90.5q0 -73 -28 -138.5t-77 -114t-114 -75.5t-136 -27q-93 0 -174 45l-41 -60l-46 30l41 61q-45 35 -78 86t-45 102t-12 91q0 74 28 140t77 114t114.5 74.5t135.5 26.5q99 0 181 -48l47 68zM111 340q0 -65 27 -125.5
t74 -102.5l331 484q-65 40 -147 40q-61 0 -114 -23t-91 -64.5t-59 -95.5t-21 -113zM396 44q61 0 114 23.5t91 65t59 95.5t21 112q0 66 -25 124.5t-69 99.5l-330 -484q29 -16 66 -26t73 -10z" />
    <glyph glyph-name="Ugrave" unicode="&#xd9;" horiz-adv-x="755" 
d="M425 750l-204 155h116l105 -155h-17zM725 680v-11l-77 -42v-369q0 -62 -20.5 -113t-58 -87t-87.5 -54.5t-107 -18.5q-42 0 -88 12.5t-85 44t-60 72.5t-27.5 77.5t-6.5 66.5v369l-78 42v11h218v-11l-77 -42v-374q0 -33 10 -68.5t38 -70.5t70.5 -52.5t85.5 -17.5t82 14.5
t67.5 41.5t44.5 64.5t16 82.5v380l-78 42v11h218z" />
    <glyph glyph-name="Uacute" unicode="&#xda;" horiz-adv-x="755" 
d="M335 750h-17l105 155h116zM725 680v-11l-77 -42v-369q0 -62 -20.5 -113t-58 -87t-87.5 -54.5t-107 -18.5q-42 0 -88 12.5t-85 44t-60 72.5t-27.5 77.5t-6.5 66.5v369l-78 42v11h218v-11l-77 -42v-374q0 -33 10 -68.5t38 -70.5t70.5 -52.5t85.5 -17.5t82 14.5t67.5 41.5
t44.5 64.5t16 82.5v380l-78 42v11h218z" />
    <glyph glyph-name="Ucircumflex" unicode="&#xdb;" horiz-adv-x="755" 
d="M236 741l-15 10l155 143l157 -143l-17 -10l-140 76zM725 680v-11l-77 -42v-369q0 -62 -20.5 -113t-58 -87t-87.5 -54.5t-107 -18.5q-42 0 -88 12.5t-85 44t-60 72.5t-27.5 77.5t-6.5 66.5v369l-78 42v11h218v-11l-77 -42v-374q0 -33 10 -68.5t38 -70.5t70.5 -52.5
t85.5 -17.5t82 14.5t67.5 41.5t44.5 64.5t16 82.5v380l-78 42v11h218z" />
    <glyph glyph-name="Udieresis" unicode="&#xdc;" horiz-adv-x="755" 
d="M278 784q-22 0 -38 15t-16 38t16 38t38 15t37.5 -15t15.5 -38t-15.5 -38t-37.5 -15zM473 784q-21 0 -36.5 15.5t-15.5 37.5t15.5 37.5t36.5 15.5q23 0 39 -15t16 -38t-16 -38t-39 -15zM725 680v-11l-77 -42v-369q0 -62 -20.5 -113t-58 -87t-87.5 -54.5t-107 -18.5
q-42 0 -88 12.5t-85 44t-60 72.5t-27.5 77.5t-6.5 66.5v369l-78 42v11h218v-11l-77 -42v-374q0 -33 10 -68.5t38 -70.5t70.5 -52.5t85.5 -17.5t82 14.5t67.5 41.5t44.5 64.5t16 82.5v380l-78 42v11h218z" />
    <glyph glyph-name="Yacute" unicode="&#xdd;" horiz-adv-x="705" 
d="M313 750h-17l105 155h116zM680 680v-11l-64 -39l-227 -359v-210l89 -50v-11h-242v11l90 50v209l-220 347l-81 52v11h217v-11l-67 -37l187 -301l178 304l-63 34v11h203zM357 220l-2 -3l3 2z" />
    <glyph glyph-name="Thorn" unicode="&#xde;" horiz-adv-x="627" 
d="M191 544h162q48 0 90.5 -12.5t74.5 -37.5t50 -63.5t18 -88.5q0 -36 -12 -72.5t-41 -65t-74.5 -46.5t-105.5 -18h-162v-87l77 -42v-11h-218v11l78 42v574l-78 42v11h218v-11l-77 -42v-83zM191 196h157q76 0 122 39t46 107q0 70 -45.5 108t-122.5 38h-157v-292z" />
    <glyph glyph-name="germandbls" unicode="&#xdf;" horiz-adv-x="635" 
d="M461 260q48 -25 77 -46t42 -44.5t13 -47.5q0 -32 -20 -65.5t-60 -52.5t-88 -19q-26 0 -54.5 5t-52 15.5t-54.5 28.5v83h11q29 -32 69.5 -53t88.5 -21q29 0 52.5 11t33 29t9.5 35q0 21 -18.5 43.5t-93.5 59.5q-73 36 -96.5 56.5t-30.5 40.5t-7 39q0 72 96 129
q44 26 58.5 47t14.5 42q0 22 -12.5 48t-44.5 45t-71 19q-63 0 -101 -40t-38 -108v-539h-139v11l78 42v393h-66v54h66v59q0 51 24.5 94t66 67.5t97.5 24.5q33 0 69 -9t69.5 -34t50 -60.5t16.5 -70.5q0 -21 -8.5 -42t-27.5 -37.5t-53 -37.5q-51 -31 -65.5 -52t-14.5 -45
q0 -10 8 -23.5t29.5 -29t76.5 -44.5z" />
    <glyph glyph-name="agrave" unicode="&#xe0;" horiz-adv-x="552" 
d="M322 567h-17l-204 155h116zM453 53l77 -42v-11h-126l-1 76q-30 -42 -79 -66.5t-106 -24.5q-52 0 -91.5 21t-60.5 55t-21 79t23 78.5t66 54t104 20.5q33 0 69 -8t85 -30v66q0 47 -24.5 79t-59.5 43.5t-64 11.5q-45 0 -84.5 -20t-61.5 -56l-10 5v67q29 27 72 44.5t94 17.5
q91 0 145 -50.5t54 -139.5v-270zM392 163v39q-69 33 -154 33q-56 0 -92 -25.5t-36 -69.5q0 -25 11.5 -47.5t40 -36t66.5 -13.5q26 0 62.5 12.5t69 43t32.5 64.5z" />
    <glyph glyph-name="aacute" unicode="&#xe1;" horiz-adv-x="552" 
d="M419 722l-204 -155h-17l105 155h116zM453 53l77 -42v-11h-126l-1 76q-30 -42 -79 -66.5t-106 -24.5q-52 0 -91.5 21t-60.5 55t-21 79t23 78.5t66 54t104 20.5q33 0 69 -8t85 -30v66q0 47 -24.5 79t-59.5 43.5t-64 11.5q-45 0 -84.5 -20t-61.5 -56l-10 5v67q29 27 72 44.5
t94 17.5q91 0 145 -50.5t54 -139.5v-270zM392 163v39q-69 33 -154 33q-56 0 -92 -25.5t-36 -69.5q0 -25 11.5 -47.5t40 -36t66.5 -13.5q26 0 62.5 12.5t69 43t32.5 64.5z" />
    <glyph glyph-name="acircumflex" unicode="&#xe2;" horiz-adv-x="552" 
d="M256 634l-140 -76l-15 10l155 143l157 -143l-17 -10zM453 53l77 -42v-11h-126l-1 76q-30 -42 -79 -66.5t-106 -24.5q-52 0 -91.5 21t-60.5 55t-21 79t23 78.5t66 54t104 20.5q33 0 69 -8t85 -30v66q0 47 -24.5 79t-59.5 43.5t-64 11.5q-45 0 -84.5 -20t-61.5 -56l-10 5
v67q29 27 72 44.5t94 17.5q91 0 145 -50.5t54 -139.5v-270zM392 163v39q-69 33 -154 33q-56 0 -92 -25.5t-36 -69.5q0 -25 11.5 -47.5t40 -36t66.5 -13.5q26 0 62.5 12.5t69 43t32.5 64.5z" />
    <glyph glyph-name="atilde" unicode="&#xe3;" horiz-adv-x="552" 
d="M118 606h-13q0 23 9 45.5t30 36t45 13.5q27 0 82.5 -24t76.5 -24q18 0 30.5 13.5t16.5 32.5h13q0 -24 -9 -47t-30 -35.5t-45 -12.5q-27 0 -82.5 24t-76.5 24q-17 0 -29.5 -13t-17.5 -33zM453 53l77 -42v-11h-126l-1 76q-30 -42 -79 -66.5t-106 -24.5q-52 0 -91.5 21
t-60.5 55t-21 79t23 78.5t66 54t104 20.5q33 0 69 -8t85 -30v66q0 47 -24.5 79t-59.5 43.5t-64 11.5q-45 0 -84.5 -20t-61.5 -56l-10 5v67q29 27 72 44.5t94 17.5q91 0 145 -50.5t54 -139.5v-270zM392 163v39q-69 33 -154 33q-56 0 -92 -25.5t-36 -69.5q0 -25 11.5 -47.5
t40 -36t66.5 -13.5q26 0 62.5 12.5t69 43t32.5 64.5z" />
    <glyph glyph-name="adieresis" unicode="&#xe4;" horiz-adv-x="552" 
d="M158 601q-22 0 -38 15t-16 38t16 38t38 15t37.5 -15t15.5 -38t-15.5 -38t-37.5 -15zM353 601q-21 0 -36.5 15.5t-15.5 37.5t15.5 37.5t36.5 15.5q23 0 39 -15t16 -38t-16 -38t-39 -15zM453 53l77 -42v-11h-126l-1 76q-30 -42 -79 -66.5t-106 -24.5q-52 0 -91.5 21
t-60.5 55t-21 79t23 78.5t66 54t104 20.5q33 0 69 -8t85 -30v66q0 47 -24.5 79t-59.5 43.5t-64 11.5q-45 0 -84.5 -20t-61.5 -56l-10 5v67q29 27 72 44.5t94 17.5q91 0 145 -50.5t54 -139.5v-270zM392 163v39q-69 33 -154 33q-56 0 -92 -25.5t-36 -69.5q0 -25 11.5 -47.5
t40 -36t66.5 -13.5q26 0 62.5 12.5t69 43t32.5 64.5z" />
    <glyph glyph-name="aring" unicode="&#xe5;" horiz-adv-x="552" 
d="M256 575q-18 0 -40.5 8.5t-38.5 31t-16 51.5q0 19 9.5 40.5t33 36t52.5 14.5q18 0 40.5 -8.5t38.5 -31t16 -51.5q0 -19 -9.5 -40.5t-33 -36t-52.5 -14.5zM256 717q-22 0 -36 -14.5t-14 -36.5t14 -36.5t36 -14.5t36 14.5t14 36.5t-14 36.5t-36 14.5zM453 53l77 -42v-11
h-126l-1 76q-30 -42 -79 -66.5t-106 -24.5q-52 0 -91.5 21t-60.5 55t-21 79t23 78.5t66 54t104 20.5q33 0 69 -8t85 -30v66q0 47 -24.5 79t-59.5 43.5t-64 11.5q-45 0 -84.5 -20t-61.5 -56l-10 5v67q29 27 72 44.5t94 17.5q91 0 145 -50.5t54 -139.5v-270zM392 163v39
q-69 33 -154 33q-56 0 -92 -25.5t-36 -69.5q0 -25 11.5 -47.5t40 -36t66.5 -13.5q26 0 62.5 12.5t69 43t32.5 64.5z" />
    <glyph glyph-name="ae" unicode="&#xe6;" horiz-adv-x="931" 
d="M879 232h-420q0 -28 10.5 -60t35 -60.5t62.5 -48.5t85 -20q50 0 94 14t78 54l11 -2v-71q-32 -23 -82.5 -38t-103.5 -15q-29 0 -68 10.5t-79 39.5t-65 69q-14 -27 -42.5 -55t-74.5 -46t-99 -18q-43 0 -85.5 18t-66.5 55t-24 82t23.5 78.5t67.5 54t105 20.5q33 0 69 -8
t85 -30v66q0 47 -24.5 79t-59.5 43.5t-64 11.5q-46 0 -87.5 -20.5t-63.5 -55.5l-10 5v67q28 27 73.5 44.5t97.5 17.5q67 0 116 -29.5t69 -81.5q25 37 62.5 64t75 37t66.5 10q49 0 92 -18t74.5 -53t49 -85t17.5 -111v-14zM458 286h352q0 74 -44 121.5t-121 47.5
q-28 0 -59.5 -10t-59.5 -33t-48 -56.5t-20 -69.5zM395 163v39q-38 18 -71 27t-83 9q-55 0 -93 -27t-38 -71q0 -35 20 -59.5t48.5 -32.5t52.5 -8q29 0 66 13t67.5 44t30.5 66z" />
    <glyph glyph-name="ccedilla" unicode="&#xe7;" horiz-adv-x="534" 
d="M280 -14l-8 -35q22 0 43 -8t30 -22.5t9 -28.5q0 -42 -43 -70t-92 -33l-1 10q39 18 58.5 37t19.5 43q0 21 -15.5 31.5t-40.5 10.5l15 68q-44 8 -83.5 31.5t-68.5 58.5t-45 79t-16 91q0 53 20 101.5t56 85t83.5 57t100.5 20.5q20 0 46.5 -4t73.5 -30l39 34h10v-147h-10
q-33 43 -70.5 66t-87.5 23q-31 0 -64.5 -10.5t-62.5 -36t-49 -66t-20 -93.5q0 -42 12.5 -75t33 -60t59.5 -49t91 -22t93 18.5t65 52.5l10 1l1 -73q-26 -24 -73 -40.5t-97 -16.5z" />
    <glyph glyph-name="egrave" unicode="&#xe8;" horiz-adv-x="576" 
d="M251 725l105 -155h-17l-204 155h116zM291 513q49 0 92 -18t74.5 -53t49 -85t17.5 -111v-14h-420q0 -28 10.5 -60t35 -60.5t62.5 -48.5t85 -20q50 0 94 14t78 54l11 -2v-71q-32 -23 -82.5 -38t-103.5 -15q-35 0 -76 12.5t-85 48.5t-67.5 91t-23.5 112q0 54 19.5 103
t54.5 85t80.5 56t94.5 20zM290 455q-28 0 -59.5 -10t-59.5 -33t-48 -56.5t-20 -69.5h352q0 74 -44 121.5t-121 47.5z" />
    <glyph glyph-name="eacute" unicode="&#xe9;" horiz-adv-x="576" 
d="M249 570h-17l105 155h116zM291 513q49 0 92 -18t74.5 -53t49 -85t17.5 -111v-14h-420q0 -28 10.5 -60t35 -60.5t62.5 -48.5t85 -20q50 0 94 14t78 54l11 -2v-71q-32 -23 -82.5 -38t-103.5 -15q-35 0 -76 12.5t-85 48.5t-67.5 91t-23.5 112q0 54 19.5 103t54.5 85t80.5 56
t94.5 20zM290 455q-28 0 -59.5 -10t-59.5 -33t-48 -56.5t-20 -69.5h352q0 74 -44 121.5t-121 47.5z" />
    <glyph glyph-name="ecircumflex" unicode="&#xea;" horiz-adv-x="576" 
d="M447 571l-17 -10l-140 76l-140 -76l-15 10l155 143zM291 513q49 0 92 -18t74.5 -53t49 -85t17.5 -111v-14h-420q0 -28 10.5 -60t35 -60.5t62.5 -48.5t85 -20q50 0 94 14t78 54l11 -2v-71q-32 -23 -82.5 -38t-103.5 -15q-35 0 -76 12.5t-85 48.5t-67.5 91t-23.5 112
q0 54 19.5 103t54.5 85t80.5 56t94.5 20zM290 455q-28 0 -59.5 -10t-59.5 -33t-48 -56.5t-20 -69.5h352q0 74 -44 121.5t-121 47.5z" />
    <glyph glyph-name="edieresis" unicode="&#xeb;" horiz-adv-x="576" 
d="M192 710q22 0 37.5 -15t15.5 -38t-15.5 -38t-37.5 -15t-38 15t-16 38t16 38t38 15zM387 710q23 0 39 -15t16 -38t-16 -38t-39 -15q-21 0 -36.5 15.5t-15.5 37.5t15.5 37.5t36.5 15.5zM291 513q49 0 92 -18t74.5 -53t49 -85t17.5 -111v-14h-420q0 -28 10.5 -60t35 -60.5
t62.5 -48.5t85 -20q50 0 94 14t78 54l11 -2v-71q-32 -23 -82.5 -38t-103.5 -15q-35 0 -76 12.5t-85 48.5t-67.5 91t-23.5 112q0 54 19.5 103t54.5 85t80.5 56t94.5 20zM290 455q-28 0 -59.5 -10t-59.5 -33t-48 -56.5t-20 -69.5h352q0 74 -44 121.5t-121 47.5z" />
    <glyph glyph-name="igrave" unicode="&#xec;" horiz-adv-x="300" 
d="M215 570h-17l-204 155h116zM196 53l77 -42v-11h-215v11l77 41v369l-90 57v9l151 25v-459z" />
    <glyph glyph-name="iacute" unicode="&#xed;" horiz-adv-x="300" 
d="M312 725l-204 -155h-17l105 155h116zM196 512v-459l77 -42v-11h-215v11l77 41v369l-90 57v9z" />
    <glyph glyph-name="icircumflex" unicode="&#xee;" horiz-adv-x="300" 
d="M149 714l157 -143l-17 -10l-140 76l-140 -76l-15 10zM196 512v-459l77 -42v-11h-215v11l77 41v369l-90 57v9z" />
    <glyph glyph-name="idieresis" unicode="&#xef;" horiz-adv-x="300" 
d="M104 657q0 -23 -15.5 -38t-37.5 -15t-38 15t-16 38t16 38t38 15t37.5 -15t15.5 -38zM246 710q23 0 39 -15t16 -38t-16 -38t-39 -15q-21 0 -36.5 15.5t-15.5 37.5t15.5 37.5t36.5 15.5zM196 512v-459l77 -42v-11h-215v11l77 41v369l-90 57v9z" />
    <glyph glyph-name="eth" unicode="&#xf0;" horiz-adv-x="598" 
d="M485 706l-101 -57q79 -64 125.5 -161.5t46.5 -222.5q0 -41 -13 -87.5t-49 -94.5t-89.5 -73t-106.5 -25t-100 20.5t-82 57t-54.5 84.5t-19.5 101t19.5 101.5t54.5 85.5t82.5 57.5t99.5 20.5q42 0 86.5 -19.5t83.5 -54.5q-12 45 -49.5 93.5t-90.5 85.5l-146 -82l-27 39
l127 71q-14 8 -48 21t-65.5 17.5t-51.5 4.5v56q56 0 114.5 -17t109.5 -49l117 66zM298 43q31 0 64 10.5t61 36t47 66t19 93.5q0 42 -13.5 80t-39 66t-61 44t-77.5 16q-31 0 -64 -10.5t-61 -36t-47 -66t-19 -93.5q0 -42 13.5 -80t39 -66t61 -44t77.5 -16z" />
    <glyph glyph-name="ntilde" unicode="&#xf1;" horiz-adv-x="629" 
d="M183 609h-13q0 23 9 45.5t30 36t45 13.5q27 0 82.5 -24t76.5 -24q18 0 30.5 13.5t16.5 32.5h13q0 -24 -9 -47t-30 -35.5t-45 -12.5q-27 0 -82.5 24t-76.5 24q-17 0 -29.5 -13t-17.5 -33zM530 53l77 -42v-11h-216v11l78 42v252q0 38 -11 66.5t-31 47.5t-47 27.5t-54 8.5
q-60 0 -98 -30t-44 -96v-276l77 -42v-11h-216v11l78 42v381l-77 44v9l126 26l7 -67l1 -13q23 33 66.5 56.5t94.5 23.5q87 0 138 -54t51 -159v-247z" />
    <glyph glyph-name="ograve" unicode="&#xf2;" horiz-adv-x="606" 
d="M266 725l105 -155h-17l-204 155h116zM303 513q53 0 101 -20.5t84 -57.5t56 -85.5t20 -100.5q0 -53 -20 -101.5t-56 -85t-84 -57t-101 -20.5t-101 20.5t-84 57t-56 85t-20 101.5q0 52 20 100.5t56 85.5t84 57.5t101 20.5zM303 455q-31 0 -64.5 -10.5t-62.5 -36t-49 -66
t-20 -93.5q0 -42 12.5 -75t33 -60t59.5 -49t91 -22q31 0 64.5 10.5t62.5 36t49 66t20 93.5q0 42 -12.5 75t-33 60t-59.5 49t-91 22z" />
    <glyph glyph-name="oacute" unicode="&#xf3;" horiz-adv-x="606" 
d="M264 570h-17l105 155h116zM303 513q53 0 101 -20.5t84 -57.5t56 -85.5t20 -100.5q0 -53 -20 -101.5t-56 -85t-84 -57t-101 -20.5t-101 20.5t-84 57t-56 85t-20 101.5q0 52 20 100.5t56 85.5t84 57.5t101 20.5zM303 455q-31 0 -64.5 -10.5t-62.5 -36t-49 -66t-20 -93.5
q0 -42 12.5 -75t33 -60t59.5 -49t91 -22q31 0 64.5 10.5t62.5 36t49 66t20 93.5q0 42 -12.5 75t-33 60t-59.5 49t-91 22z" />
    <glyph glyph-name="ocircumflex" unicode="&#xf4;" horiz-adv-x="606" 
d="M462 571l-17 -10l-140 76l-140 -76l-15 10l155 143zM303 513q53 0 101 -20.5t84 -57.5t56 -85.5t20 -100.5q0 -53 -20 -101.5t-56 -85t-84 -57t-101 -20.5t-101 20.5t-84 57t-56 85t-20 101.5q0 52 20 100.5t56 85.5t84 57.5t101 20.5zM303 455q-31 0 -64.5 -10.5
t-62.5 -36t-49 -66t-20 -93.5q0 -42 12.5 -75t33 -60t59.5 -49t91 -22q31 0 64.5 10.5t62.5 36t49 66t20 93.5q0 42 -12.5 75t-33 60t-59.5 49t-91 22z" />
    <glyph glyph-name="otilde" unicode="&#xf5;" horiz-adv-x="606" 
d="M444 702h13q0 -24 -9 -47t-30 -35.5t-45 -12.5q-27 0 -82.5 24t-76.5 24q-17 0 -29.5 -13t-17.5 -33h-13q0 23 9 45.5t30 36t45 13.5q27 0 82.5 -24t76.5 -24q18 0 30.5 13.5t16.5 32.5zM303 513q53 0 101 -20.5t84 -57.5t56 -85.5t20 -100.5q0 -53 -20 -101.5t-56 -85
t-84 -57t-101 -20.5t-101 20.5t-84 57t-56 85t-20 101.5q0 52 20 100.5t56 85.5t84 57.5t101 20.5zM303 455q-31 0 -64.5 -10.5t-62.5 -36t-49 -66t-20 -93.5q0 -42 12.5 -75t33 -60t59.5 -49t91 -22q31 0 64.5 10.5t62.5 36t49 66t20 93.5q0 42 -12.5 75t-33 60t-59.5 49
t-91 22z" />
    <glyph glyph-name="odieresis" unicode="&#xf6;" horiz-adv-x="606" 
d="M207 710q22 0 37.5 -15t15.5 -38t-15.5 -38t-37.5 -15t-38 15t-16 38t16 38t38 15zM402 710q23 0 39 -15t16 -38t-16 -38t-39 -15q-21 0 -36.5 15.5t-15.5 37.5t15.5 37.5t36.5 15.5zM303 513q53 0 101 -20.5t84 -57.5t56 -85.5t20 -100.5q0 -53 -20 -101.5t-56 -85
t-84 -57t-101 -20.5t-101 20.5t-84 57t-56 85t-20 101.5q0 52 20 100.5t56 85.5t84 57.5t101 20.5zM303 455q-31 0 -64.5 -10.5t-62.5 -36t-49 -66t-20 -93.5q0 -42 12.5 -75t33 -60t59.5 -49t91 -22q31 0 64.5 10.5t62.5 36t49 66t20 93.5q0 42 -12.5 75t-33 60t-59.5 49
t-91 22z" />
    <glyph glyph-name="divide" unicode="&#xf7;" horiz-adv-x="516" 
d="M260 470q19 0 34.5 -15.5t15.5 -35.5q0 -19 -15.5 -33.5t-34.5 -14.5q-20 0 -34.5 14.5t-14.5 33.5q0 20 14.5 35.5t34.5 15.5zM452 259h-405v50h405v-50zM260 191q19 0 34.5 -15.5t15.5 -35.5q0 -19 -15.5 -33.5t-34.5 -14.5q-20 0 -34.5 14.5t-14.5 33.5
q0 20 14.5 35.5t34.5 15.5z" />
    <glyph glyph-name="oslash" unicode="&#xf8;" horiz-adv-x="606" 
d="M500 525l-38 -67q47 -36 74.5 -91.5t27.5 -117.5q0 -53 -20 -101.5t-56 -85t-84 -57t-101 -20.5t-101 20l-41 -71l-46 30l39 68q-37 26 -64.5 65.5t-37.5 80t-10 71.5q0 52 20 100.5t56 85.5t84 57.5t101 20.5q61 0 113 -26l38 65zM107 249q0 -50 20.5 -94t56.5 -72
l203 354q-41 18 -84 18q-31 0 -64.5 -10.5t-62.5 -36t-49 -66t-20 -93.5zM303 43q31 0 64.5 10.5t62.5 36t49 66t20 93.5q0 47 -18 88.5t-49 69.5l-201 -351q36 -13 72 -13z" />
    <glyph glyph-name="ugrave" unicode="&#xf9;" horiz-adv-x="620" 
d="M369 570h-17l-204 155h116zM508 53l77 -42v-11h-131l-5 65q-22 -33 -65.5 -57t-95.5 -24q-87 0 -138 54t-51 159v247l-77 42v11h138v-305q0 -38 14 -74.5t49 -59t80 -22.5q67 0 105 39.5t38 116.5v252l-77 42v11h140z" />
    <glyph glyph-name="uacute" unicode="&#xfa;" horiz-adv-x="620" 
d="M466 725l-204 -155h-17l105 155h116zM508 53l77 -42v-11h-131l-5 65q-22 -33 -65.5 -57t-95.5 -24q-87 0 -138 54t-51 159v247l-77 42v11h138v-305q0 -38 14 -74.5t49 -59t80 -22.5q67 0 105 39.5t38 116.5v252l-77 42v11h140z" />
    <glyph glyph-name="ucircumflex" unicode="&#xfb;" horiz-adv-x="620" 
d="M303 637l-140 -76l-15 10l155 143l157 -143l-17 -10zM508 53l77 -42v-11h-131l-5 65q-22 -33 -65.5 -57t-95.5 -24q-87 0 -138 54t-51 159v247l-77 42v11h138v-305q0 -38 14 -74.5t49 -59t80 -22.5q67 0 105 39.5t38 116.5v252l-77 42v11h140z" />
    <glyph glyph-name="udieresis" unicode="&#xfc;" horiz-adv-x="620" 
d="M205 604q-22 0 -38 15t-16 38t16 38t38 15t37.5 -15t15.5 -38t-15.5 -38t-37.5 -15zM400 604q-21 0 -36.5 15.5t-15.5 37.5t15.5 37.5t36.5 15.5q23 0 39 -15t16 -38t-16 -38t-39 -15zM508 53l77 -42v-11h-131l-5 65q-22 -33 -65.5 -57t-95.5 -24q-87 0 -138 54t-51 159
v247l-77 42v11h138v-305q0 -38 14 -74.5t49 -59t80 -22.5q67 0 105 39.5t38 116.5v252l-77 42v11h140z" />
    <glyph glyph-name="yacute" unicode="&#xfd;" horiz-adv-x="612" 
d="M269 570h-17l105 155h116zM607 497v-8l-67 -45l-281 -627l74 -40v-12h-241v12l99 40l81 156l18 44l-205 424l-80 48v8h231v-11l-73 -40l157 -357l148 358l-72 39v11h211z" />
    <glyph glyph-name="thorn" unicode="&#xfe;" horiz-adv-x="663" 
d="M365 513q52 0 99.5 -20.5t82.5 -57.5t54.5 -85.5t19.5 -101.5t-19.5 -101t-54.5 -84.5t-82 -57t-100 -20.5q-29 0 -64.5 9t-69 30.5t-57.5 49.5v-256l77 -42v-11h-216v11l78 42h1v848l-78 44v9l138 26v-334q31 45 82 73.5t109 28.5zM365 43q31 0 64 10.5t61 36t47 66
t19 93.5q0 42 -13.5 80t-39 66t-61 44t-77.5 16q-31 0 -64 -10.5t-61 -36t-47 -66t-19 -93.5q0 -42 13.5 -80t39 -66t61 -44t77.5 -16z" />
    <glyph glyph-name="ydieresis" unicode="&#xff;" horiz-adv-x="612" 
d="M212 604q-22 0 -38 15t-16 38t16 38t38 15t37.5 -15t15.5 -38t-15.5 -38t-37.5 -15zM407 604q-21 0 -36.5 15.5t-15.5 37.5t15.5 37.5t36.5 15.5q23 0 39 -15t16 -38t-16 -38t-39 -15zM607 497v-8l-67 -45l-281 -627l74 -40v-12h-241v12l99 40l81 156l18 44l-205 424
l-80 48v8h231v-11l-73 -40l157 -357l148 358l-72 39v11h211z" />
    <glyph glyph-name="Amacron" unicode="&#x100;" horiz-adv-x="742" 
d="M533 845v-53h-323v53h323zM641 65l76 -54v-11h-217v11l77 41l-72 174h-272l-70 -173h5l77 -42v-11h-220v11l77 55l264 630h12zM255 282h227l-115 279z" />
    <glyph glyph-name="amacron" unicode="&#x101;" horiz-adv-x="552" 
d="M417 662v-53h-323v53h323zM453 53l77 -42v-11h-126l-1 76q-30 -42 -79 -66.5t-106 -24.5q-52 0 -91.5 21t-60.5 55t-21 79t23 78.5t66 54t104 20.5q33 0 69 -8t85 -30v66q0 47 -24.5 79t-59.5 43.5t-64 11.5q-45 0 -84.5 -20t-61.5 -56l-10 5v67q29 27 72 44.5t94 17.5
q91 0 145 -50.5t54 -139.5v-270zM392 163v39q-69 33 -154 33q-56 0 -92 -25.5t-36 -69.5q0 -25 11.5 -47.5t40 -36t66.5 -13.5q26 0 62.5 12.5t69 43t32.5 64.5z" />
    <glyph glyph-name="Abreve" unicode="&#x102;" horiz-adv-x="742" 
d="M372 777q-53 0 -94 35.5t-61 88.5l7 8q58 -74 148 -74q92 0 148 74l8 -8q-14 -37 -41 -68t-58 -43.5t-57 -12.5zM641 65l76 -54v-11h-217v11l77 41l-72 174h-272l-70 -173h5l77 -42v-11h-220v11l77 55l264 630h12zM255 282h227l-115 279z" />
    <glyph glyph-name="abreve" unicode="&#x103;" horiz-adv-x="552" 
d="M256 594q-53 0 -94 35.5t-61 88.5l7 8q58 -74 148 -74q92 0 148 74l8 -8q-14 -37 -41 -68t-58 -43.5t-57 -12.5zM453 53l77 -42v-11h-126l-1 76q-30 -42 -79 -66.5t-106 -24.5q-52 0 -91.5 21t-60.5 55t-21 79t23 78.5t66 54t104 20.5q33 0 69 -8t85 -30v66
q0 47 -24.5 79t-59.5 43.5t-64 11.5q-45 0 -84.5 -20t-61.5 -56l-10 5v67q29 27 72 44.5t94 17.5q91 0 145 -50.5t54 -139.5v-270zM392 163v39q-69 33 -154 33q-56 0 -92 -25.5t-36 -69.5q0 -25 11.5 -47.5t40 -36t66.5 -13.5q26 0 62.5 12.5t69 43t32.5 64.5z" />
    <glyph glyph-name="Aogonek" unicode="&#x104;" horiz-adv-x="742" 
d="M717 11v-11q-41 -13 -71 -32.5t-41 -39.5t-11 -36q0 -19 13.5 -32t32.5 -13q17 0 32 8.5t23 24.5h10v-60q-34 -29 -80 -29q-24 0 -46.5 13.5t-31.5 34t-9 39.5q0 36 24 68.5t67 53.5h-129v11l77 41l-72 174h-272l-70 -173h5l77 -42v-11h-220v11l77 55l264 630h12
l263 -631zM255 282h227l-115 279z" />
    <glyph glyph-name="aogonek" unicode="&#x105;" horiz-adv-x="552" 
d="M530 11v-11q-41 -13 -71 -32.5t-41 -39.5t-11 -36q0 -19 13.5 -32t32.5 -13q17 0 32 8.5t23 24.5h10v-60q-34 -29 -80 -29q-24 0 -46.5 13.5t-31.5 34t-9 39.5q0 36 24 68.5t67 53.5h-38l-1 76q-30 -42 -79 -66.5t-106 -24.5q-52 0 -91.5 21t-60.5 55t-21 79t23 78.5
t66 54t104 20.5q33 0 69 -8t85 -30v66q0 47 -24.5 79t-59.5 43.5t-64 11.5q-45 0 -84.5 -20t-61.5 -56l-10 5v67q29 27 72 44.5t94 17.5q91 0 145 -50.5t54 -139.5v-270zM392 163v39q-69 33 -154 33q-56 0 -92 -25.5t-36 -69.5q0 -25 11.5 -47.5t40 -36t66.5 -13.5
q26 0 62.5 12.5t69 43t32.5 64.5z" />
    <glyph glyph-name="Cacute" unicode="&#x106;" horiz-adv-x="748" 
d="M374 750h-17l105 155h116zM663 501h-12q-37 62 -99 98.5t-146 36.5q-61 0 -115 -22t-92.5 -62t-60 -95t-21.5 -117t21.5 -117t60 -95t92.5 -62t115 -22q84 0 146 36.5t99 98.5h12v-194h-11l-52 56q-88 -56 -188 -56q-79 0 -146.5 27.5t-115.5 76.5t-74 114t-26 137
t26 137t74 114t115.5 76.5t146.5 27.5q103 0 189 -56l51 56h11v-194z" />
    <glyph glyph-name="cacute" unicode="&#x107;" horiz-adv-x="534" 
d="M244 570h-17l105 155h116zM471 366h-10q-33 43 -70.5 66t-87.5 23q-31 0 -64.5 -10.5t-62.5 -36t-49 -66t-20 -93.5q0 -42 12.5 -75t33 -60t59.5 -49t91 -22t93 18.5t65 52.5l10 1l1 -73q-26 -24 -73 -40.5t-97 -16.5q-25 0 -58 6.5t-66 25t-64.5 50.5t-51.5 80.5
t-20 101.5t20 101.5t56 85t83.5 57t100.5 20.5q20 0 46.5 -4t73.5 -30l39 34h10v-147z" />
    <glyph glyph-name="Cdotaccent" unicode="&#x10a;" horiz-adv-x="748" 
d="M413 900q23 0 39 -15t16 -38t-16 -38t-39 -15q-21 0 -36.5 15.5t-15.5 37.5t15.5 37.5t36.5 15.5zM663 501h-12q-37 62 -99 98.5t-146 36.5q-61 0 -115 -22t-92.5 -62t-60 -95t-21.5 -117t21.5 -117t60 -95t92.5 -62t115 -22q84 0 146 36.5t99 98.5h12v-194h-11l-52 56
q-88 -56 -188 -56q-79 0 -146.5 27.5t-115.5 76.5t-74 114t-26 137t26 137t74 114t115.5 76.5t146.5 27.5q103 0 189 -56l51 56h11v-194z" />
    <glyph glyph-name="cdotaccent" unicode="&#x10b;" horiz-adv-x="534" 
d="M283 720q23 0 39 -15t16 -38t-16 -38t-39 -15q-21 0 -36.5 15.5t-15.5 37.5t15.5 37.5t36.5 15.5zM471 366h-10q-33 43 -70.5 66t-87.5 23q-31 0 -64.5 -10.5t-62.5 -36t-49 -66t-20 -93.5q0 -42 12.5 -75t33 -60t59.5 -49t91 -22t93 18.5t65 52.5l10 1l1 -73
q-26 -24 -73 -40.5t-97 -16.5q-25 0 -58 6.5t-66 25t-64.5 50.5t-51.5 80.5t-20 101.5t20 101.5t56 85t83.5 57t100.5 20.5q20 0 46.5 -4t73.5 -30l39 34h10v-147z" />
    <glyph glyph-name="Ccaron" unicode="&#x10c;" horiz-adv-x="748" 
d="M260 922l17 10l140 -76l140 76l15 -10l-155 -143zM663 501h-12q-37 62 -99 98.5t-146 36.5q-61 0 -115 -22t-92.5 -62t-60 -95t-21.5 -117t21.5 -117t60 -95t92.5 -62t115 -22q84 0 146 36.5t99 98.5h12v-194h-11l-52 56q-88 -56 -188 -56q-79 0 -146.5 27.5t-115.5 76.5
t-74 114t-26 137t26 137t74 114t115.5 76.5t146.5 27.5q103 0 189 -56l51 56h11v-194z" />
    <glyph glyph-name="ccaron" unicode="&#x10d;" horiz-adv-x="534" 
d="M130 742l17 10l140 -76l140 76l15 -10l-155 -143zM471 366h-10q-33 43 -70.5 66t-87.5 23q-31 0 -64.5 -10.5t-62.5 -36t-49 -66t-20 -93.5q0 -42 12.5 -75t33 -60t59.5 -49t91 -22t93 18.5t65 52.5l10 1l1 -73q-26 -24 -73 -40.5t-97 -16.5q-25 0 -58 6.5t-66 25
t-64.5 50.5t-51.5 80.5t-20 101.5t20 101.5t56 85t83.5 57t100.5 20.5q20 0 46.5 -4t73.5 -30l39 34h10v-147z" />
    <glyph glyph-name="Dcaron" unicode="&#x10e;" horiz-adv-x="719" 
d="M474 922l-155 -143l-157 143l17 10l140 -76l140 76zM50 680h241q84 0 155 -25t120.5 -70.5t76 -108.5t26.5 -136q0 -72 -26.5 -135t-76 -108.5t-120.5 -71t-155 -25.5h-241v11l77 41v576l-77 41v11zM191 57h100q68 0 125.5 20t98 57.5t62.5 90.5t22 115q0 64 -22 117
t-62.5 90t-98 56.5t-125.5 19.5h-100v-566z" />
    <glyph glyph-name="dcaron" unicode="&#x10f;" horiz-adv-x="784" 
d="M550 745v-692l77 -42v-11h-138v75q-81 -90 -191 -90q-53 0 -100 20.5t-82 57t-54.5 84.5t-19.5 101t19.5 101.5t54.5 85.5t82.5 57.5t99.5 20.5q108 0 191 -90v243l-77 45v9zM670 745h92q0 -53 -36 -120t-87 -109h-41q18 21 36.5 57t28 83.5t7.5 88.5zM298 43
q31 0 64 10.5t61 36t47 66t19 93.5q0 42 -13.5 80t-39 66t-61 44t-77.5 16q-31 0 -64 -10.5t-61 -36t-47 -66t-19 -93.5q0 -42 13.5 -80t39 -66t61 -44t77.5 -16z" />
    <glyph glyph-name="Dcroat" unicode="&#x110;" horiz-adv-x="719" 
d="M50 680h241q84 0 155 -25t120.5 -70.5t76 -108.5t26.5 -136q0 -72 -26.5 -135t-76 -108.5t-120.5 -71t-155 -25.5h-241v11l77 41v235h-72v54h72v287l-77 41v11zM191 57h100q68 0 125.5 20t98 57.5t62.5 90.5t22 115q0 64 -22 117t-62.5 90t-98 56.5t-125.5 19.5h-100
v-282h139v-54h-139v-230z" />
    <glyph glyph-name="dcroat" unicode="&#x111;" horiz-adv-x="649" 
d="M550 53l77 -42v-11h-138v75q-81 -90 -191 -90q-53 0 -100 20.5t-82 57t-54.5 84.5t-19.5 101t19.5 101.5t54.5 85.5t82.5 57.5t99.5 20.5q108 0 191 -90v130h-122v54h122v59l-77 45v9l138 25v-138h75v-54h-75v-500zM298 43q31 0 64 10.5t61 36t47 66t19 93.5
q0 42 -13.5 80t-39 66t-61 44t-77.5 16q-31 0 -64 -10.5t-61 -36t-47 -66t-19 -93.5q0 -42 13.5 -80t39 -66t61 -44t77.5 -16z" />
    <glyph glyph-name="Emacron" unicode="&#x112;" horiz-adv-x="594" 
d="M473 845v-53h-323v53h323zM509 159h10v-159h-469v11l78 42v574l-78 42v11h458v-119h-10l-51 65h-256v-249h220l43 47h8v-150h-8l-43 47h-220v-267h261z" />
    <glyph glyph-name="emacron" unicode="&#x113;" horiz-adv-x="576" 
d="M451 612h-323v53h323v-53zM291 513q49 0 92 -18t74.5 -53t49 -85t17.5 -111v-14h-420q0 -28 10.5 -60t35 -60.5t62.5 -48.5t85 -20q50 0 94 14t78 54l11 -2v-71q-32 -23 -82.5 -38t-103.5 -15q-35 0 -76 12.5t-85 48.5t-67.5 91t-23.5 112q0 54 19.5 103t54.5 85t80.5 56
t94.5 20zM290 455q-28 0 -59.5 -10t-59.5 -33t-48 -56.5t-20 -69.5h352q0 74 -44 121.5t-121 47.5z" />
    <glyph glyph-name="Ebreve" unicode="&#x114;" horiz-adv-x="594" 
d="M312 777q-53 0 -94 35.5t-61 88.5l7 8q58 -74 148 -74q92 0 148 74l8 -8q-14 -37 -41 -68t-58 -43.5t-57 -12.5zM509 159h10v-159h-469v11l78 42v574l-78 42v11h458v-119h-10l-51 65h-256v-249h220l43 47h8v-150h-8l-43 47h-220v-267h261z" />
    <glyph glyph-name="ebreve" unicode="&#x115;" horiz-adv-x="576" 
d="M438 729l8 -8q-14 -37 -41 -68t-58 -43.5t-57 -12.5q-53 0 -94 35.5t-61 88.5l7 8q58 -74 148 -74q92 0 148 74zM291 513q49 0 92 -18t74.5 -53t49 -85t17.5 -111v-14h-420q0 -28 10.5 -60t35 -60.5t62.5 -48.5t85 -20q50 0 94 14t78 54l11 -2v-71q-32 -23 -82.5 -38
t-103.5 -15q-35 0 -76 12.5t-85 48.5t-67.5 91t-23.5 112q0 54 19.5 103t54.5 85t80.5 56t94.5 20zM290 455q-28 0 -59.5 -10t-59.5 -33t-48 -56.5t-20 -69.5h352q0 74 -44 121.5t-121 47.5z" />
    <glyph glyph-name="Edotaccent" unicode="&#x116;" horiz-adv-x="594" 
d="M310 794q-21 0 -36.5 15.5t-15.5 37.5t15.5 37.5t36.5 15.5q23 0 39 -15t16 -38t-16 -38t-39 -15zM509 159h10v-159h-469v11l78 42v574l-78 42v11h458v-119h-10l-51 65h-256v-249h220l43 47h8v-150h-8l-43 47h-220v-267h261z" />
    <glyph glyph-name="edotaccent" unicode="&#x117;" horiz-adv-x="576" 
d="M288 720q23 0 39 -15t16 -38t-16 -38t-39 -15q-21 0 -36.5 15.5t-15.5 37.5t15.5 37.5t36.5 15.5zM291 513q49 0 92 -18t74.5 -53t49 -85t17.5 -111v-14h-420q0 -28 10.5 -60t35 -60.5t62.5 -48.5t85 -20q50 0 94 14t78 54l11 -2v-71q-32 -23 -82.5 -38t-103.5 -15
q-35 0 -76 12.5t-85 48.5t-67.5 91t-23.5 112q0 54 19.5 103t54.5 85t80.5 56t94.5 20zM290 455q-28 0 -59.5 -10t-59.5 -33t-48 -56.5t-20 -69.5h352q0 74 -44 121.5t-121 47.5z" />
    <glyph glyph-name="Eogonek" unicode="&#x118;" horiz-adv-x="594" 
d="M509 159h10v-159h-2q-41 -13 -71 -32.5t-41 -39.5t-11 -36q0 -19 13.5 -32t32.5 -13q17 0 32 8.5t23 24.5h10v-60q-34 -29 -80 -29q-24 0 -46.5 13.5t-31.5 34t-9 39.5q0 36 24 68.5t67 53.5h-379v11l78 42v574l-78 42v11h458v-119h-10l-51 65h-256v-249h220l43 47h8
v-150h-8l-43 47h-220v-267h261z" />
    <glyph glyph-name="eogonek" unicode="&#x119;" horiz-adv-x="576" 
d="M524 232h-420q0 -28 10.5 -60t35 -60.5t62.5 -48.5t85 -20q50 0 94 14t78 54l11 -2v-71q-39 -27 -90 -40q-53 -18 -84.5 -46t-31.5 -60q0 -19 13.5 -32t32.5 -13q17 0 32 8.5t23 24.5h10v-60q-34 -29 -80 -29q-24 0 -46.5 13.5t-31.5 34t-9 39.5q0 30 17 58t49 49
q-46 2 -90 22t-78 55t-54 83t-20 104q0 54 19.5 103t54.5 85t80.5 56t94.5 20t92 -18t74.5 -53t49 -85t17.5 -111v-14zM103 286h352q0 74 -44 121.5t-121 47.5q-28 0 -59.5 -10t-59.5 -33t-48 -56.5t-20 -69.5z" />
    <glyph glyph-name="Ecaron" unicode="&#x11a;" horiz-adv-x="594" 
d="M469 922l-155 -143l-157 143l17 10l140 -76l140 76zM509 159h10v-159h-469v11l78 42v574l-78 42v11h458v-119h-10l-51 65h-256v-249h220l43 47h8v-150h-8l-43 47h-220v-267h261z" />
    <glyph glyph-name="ecaron" unicode="&#x11b;" horiz-adv-x="576" 
d="M135 742l17 10l140 -76l140 76l15 -10l-155 -143zM291 513q49 0 92 -18t74.5 -53t49 -85t17.5 -111v-14h-420q0 -28 10.5 -60t35 -60.5t62.5 -48.5t85 -20q50 0 94 14t78 54l11 -2v-71q-32 -23 -82.5 -38t-103.5 -15q-35 0 -76 12.5t-85 48.5t-67.5 91t-23.5 112
q0 54 19.5 103t54.5 85t80.5 56t94.5 20zM290 455q-28 0 -59.5 -10t-59.5 -33t-48 -56.5t-20 -69.5h352q0 74 -44 121.5t-121 47.5z" />
    <glyph glyph-name="Gbreve" unicode="&#x11e;" horiz-adv-x="782" 
d="M407 767q-53 0 -94 35.5t-61 88.5l7 8q58 -74 148 -74q92 0 148 74l8 -8q-14 -37 -41 -68t-58 -43.5t-57 -12.5zM742 328v-11l-73 -47v-285h-11l-46 67q-50 -37 -98.5 -52t-106.5 -15q-77 0 -143.5 27.5t-114 76.5t-73.5 114t-26 137t26 137t73.5 114t114 76.5
t143.5 27.5q105 0 186 -53l50 53h11v-196h-11q-35 61 -93 98.5t-144 38.5q-62 0 -115.5 -22t-92.5 -62t-60 -95t-21 -117t21 -117t60 -95t92.5 -62t115.5 -22q120 0 204 84l-2 142l-94 47v11h228z" />
    <glyph glyph-name="gbreve" unicode="&#x11f;" horiz-adv-x="623" 
d="M309 594q-53 0 -94 35.5t-61 88.5l7 8q58 -74 148 -74q92 0 148 74l8 -8q-14 -37 -41 -68t-58 -43.5t-57 -12.5zM551 512v-486q0 -45 -11 -85t-30.5 -70t-47.5 -51.5t-69 -36t-95 -14.5q-14 0 -32.5 1.5t-41 6t-43.5 11.5t-38.5 15t-36 18t-21.5 12l-1 63h9
q58 -42 107.5 -55.5t99.5 -13.5q53 0 98 20t68.5 65t23.5 103v61q-38 -43 -84.5 -67t-107.5 -24q-53 0 -100 20.5t-82 57t-54.5 84.5t-19.5 101t19.5 101.5t54.5 85.5t82.5 57.5t99.5 20.5q108 0 192 -91v1l44 89h17zM298 43q31 0 64 10.5t61 36t47 66t19 93.5
q0 42 -13.5 80t-39 66t-61 44t-77.5 16q-31 0 -64 -10.5t-61 -36t-47 -66t-19 -93.5q0 -42 13.5 -80t39 -66t61 -44t77.5 -16z" />
    <glyph glyph-name="Gdotaccent" unicode="&#x120;" horiz-adv-x="782" 
d="M405 784q-21 0 -36.5 15.5t-15.5 37.5t15.5 37.5t36.5 15.5q23 0 39 -15t16 -38t-16 -38t-39 -15zM742 328v-11l-73 -47v-285h-11l-46 67q-50 -37 -98.5 -52t-106.5 -15q-77 0 -143.5 27.5t-114 76.5t-73.5 114t-26 137t26 137t73.5 114t114 76.5t143.5 27.5
q105 0 186 -53l50 53h11v-196h-11q-35 61 -93 98.5t-144 38.5q-62 0 -115.5 -22t-92.5 -62t-60 -95t-21 -117t21 -117t60 -95t92.5 -62t115.5 -22q120 0 204 84l-2 142l-94 47v11h228z" />
    <glyph glyph-name="gdotaccent" unicode="&#x121;" horiz-adv-x="623" 
d="M307 611q-21 0 -36.5 15.5t-15.5 37.5t15.5 37.5t36.5 15.5q23 0 39 -15t16 -38t-16 -38t-39 -15zM551 512v-486q0 -45 -11 -85t-30.5 -70t-47.5 -51.5t-69 -36t-95 -14.5q-14 0 -32.5 1.5t-41 6t-43.5 11.5t-38.5 15t-36 18t-21.5 12l-1 63h9q58 -42 107.5 -55.5
t99.5 -13.5q53 0 98 20t68.5 65t23.5 103v61q-38 -43 -84.5 -67t-107.5 -24q-53 0 -100 20.5t-82 57t-54.5 84.5t-19.5 101t19.5 101.5t54.5 85.5t82.5 57.5t99.5 20.5q108 0 192 -91v1l44 89h17zM298 43q31 0 64 10.5t61 36t47 66t19 93.5q0 42 -13.5 80t-39 66t-61 44
t-77.5 16q-31 0 -64 -10.5t-61 -36t-47 -66t-19 -93.5q0 -42 13.5 -80t39 -66t61 -44t77.5 -16z" />
    <glyph glyph-name="Gcommaaccent" unicode="&#x122;" horiz-adv-x="782" 
d="M742 328v-11l-73 -47v-285h-11l-46 67q-50 -37 -98.5 -52t-106.5 -15q-77 0 -143.5 27.5t-114 76.5t-73.5 114t-26 137t26 137t73.5 114t114 76.5t143.5 27.5q105 0 186 -53l50 53h11v-196h-11q-35 61 -93 98.5t-144 38.5q-62 0 -115.5 -22t-92.5 -62t-60 -95t-21 -117
t21 -117t60 -95t92.5 -62t115.5 -22q120 0 204 84l-2 142l-94 47v11h228zM338 -227l-8 6q18 36 24.5 78t4.5 77h83q0 -18 -11.5 -46t-38 -61t-54.5 -54z" />
    <glyph glyph-name="gcommaaccent" unicode="&#x123;" horiz-adv-x="623" 
d="M366 724l8 -6q-18 -36 -24.5 -78t-4.5 -77h-83q0 18 11.5 46t38 61t54.5 54zM551 512v-486q0 -45 -11 -85t-30.5 -70t-47.5 -51.5t-69 -36t-95 -14.5q-14 0 -32.5 1.5t-41 6t-43.5 11.5t-38.5 15t-36 18t-21.5 12l-1 63h9q58 -42 107.5 -55.5t99.5 -13.5q53 0 98 20
t68.5 65t23.5 103v61q-38 -43 -84.5 -67t-107.5 -24q-53 0 -100 20.5t-82 57t-54.5 84.5t-19.5 101t19.5 101.5t54.5 85.5t82.5 57.5t99.5 20.5q108 0 192 -91v1l44 89h17zM298 43q31 0 64 10.5t61 36t47 66t19 93.5q0 42 -13.5 80t-39 66t-61 44t-77.5 16q-31 0 -64 -10.5
t-61 -36t-47 -66t-19 -93.5q0 -42 13.5 -80t39 -66t61 -44t77.5 -16z" />
    <glyph glyph-name="Hbar" unicode="&#x126;" horiz-adv-x="766" 
d="M718 474h-78v-422l76 -41v-11h-217v11l78 42v262h-386v-262l77 -42v-11h-218v11l78 42v421h-98v54h98v99l-78 42v11h218v-11l-77 -42v-99h386v99l-78 42v11h217v-11l-76 -41v-100h78v-54zM577 372v102h-386v-102h386z" />
    <glyph glyph-name="hbar" unicode="&#x127;" horiz-adv-x="645" 
d="M546 53l77 -42v-11h-216v11l78 42v252q0 38 -11 66.5t-31 47.5t-47 27.5t-54 8.5q-60 0 -98 -30t-44 -96v-282l77 -42v-11h-216v11l78 42v502h-94v54h94v58l-77 44v9l138 25v-136h123v-54h-123v-111q24 31 66 53t91 22q87 0 138 -54t51 -159v-247z" />
    <glyph glyph-name="Imacron" unicode="&#x12a;" horiz-adv-x="318" 
d="M5 845h323v-53h-323v53zM50 680h218v-11l-77 -42v-574l77 -42v-11h-218v11l78 42v574l-78 42v11z" />
    <glyph glyph-name="imacron" unicode="&#x12b;" horiz-adv-x="300" 
d="M-13 665h323v-53h-323v53zM196 512v-459l77 -42v-11h-215v11l77 41v369l-90 57v9z" />
    <glyph glyph-name="Ibreve" unicode="&#x12c;" horiz-adv-x="318" 
d="M315 909l8 -8q-14 -37 -41 -68t-58 -43.5t-57 -12.5q-53 0 -94 35.5t-61 88.5l7 8q58 -74 148 -74q92 0 148 74zM50 680h218v-11l-77 -42v-574l77 -42v-11h-218v11l78 42v574l-78 42v11z" />
    <glyph glyph-name="ibreve" unicode="&#x12d;" horiz-adv-x="300" 
d="M297 729l8 -8q-14 -37 -41 -68t-58 -43.5t-57 -12.5q-53 0 -94 35.5t-61 88.5l7 8q58 -74 148 -74q92 0 148 74zM196 512v-459l77 -42v-11h-215v11l77 41v369l-90 57v9z" />
    <glyph glyph-name="Iogonek" unicode="&#x12e;" horiz-adv-x="318" 
d="M268 669l-77 -42v-574l77 -42v-11h-69q-41 -13 -71 -32.5t-41 -39.5t-11 -36q0 -19 13.5 -32t32.5 -13q17 0 32 8.5t23 24.5h10v-60q-34 -29 -80 -29q-24 0 -46.5 13.5t-31.5 34t-9 39.5q0 36 24 68.5t67 53.5h-61v11l78 42v574l-78 42v11h218v-11z" />
    <glyph glyph-name="iogonek" unicode="&#x12f;" horiz-adv-x="288" 
d="M147 631q-22 0 -38 16t-16 37q0 22 16 39t38 17t38.5 -17t16.5 -39q0 -21 -16.5 -37t-38.5 -16zM261 11v-11q-41 -13 -71 -32.5t-41 -39.5t-11 -36q0 -19 13.5 -32t32.5 -13q17 0 32 8.5t23 24.5h10v-60q-34 -29 -80 -29q-24 0 -46.5 13.5t-31.5 34t-9 39.5q0 36 24 68.5
t67 53.5h-128v11l78 42v381l-77 44v9l138 26v-460z" />
    <glyph glyph-name="Idotaccent" unicode="&#x130;" horiz-adv-x="318" 
d="M165 794q-21 0 -36.5 15.5t-15.5 37.5t15.5 37.5t36.5 15.5q23 0 39 -15t16 -38t-16 -38t-39 -15zM268 669l-77 -42v-574l77 -42v-11h-218v11l78 42v574l-78 42v11h218v-11z" />
    <glyph glyph-name="dotlessi" unicode="&#x131;" horiz-adv-x="300" 
d="M196 53l77 -42v-11h-215v11l77 41v369l-90 57v9l151 25v-459z" />
    <glyph glyph-name="Kcommaaccent" unicode="&#x136;" horiz-adv-x="708" 
d="M598 50l75 -39v-11h-231v11l64 35l-315 293v-286l77 -42v-11h-218v11l78 42v574l-78 42v11h218v-11l-77 -42v-266l290 272l-66 36v11h229v-11l-80 -41l-302 -273zM291 -227l-8 6q18 36 24.5 78t4.5 77h83q0 -18 -11.5 -46t-38 -61t-54.5 -54z" />
    <glyph glyph-name="kcommaaccent" unicode="&#x137;" horiz-adv-x="591" 
d="M479 53l90 -42v-11h-130l-260 270v-217l77 -42v-11h-216v11l78 42v614l-77 44v9l138 25v-461l216 170l-59 32v11h218v-9l-102 -54l-194 -155zM252 -227l-8 6q18 36 24.5 78t4.5 77h83q0 -18 -11.5 -46t-38 -61t-54.5 -54z" />
    <glyph glyph-name="Lacute" unicode="&#x139;" horiz-adv-x="559" 
d="M141 750h-17l105 155h116zM519 169v-169h-469v11l78 42v574l-78 42v11h218v-11l-77 -42v-573h261l57 115h10z" />
    <glyph glyph-name="lacute" unicode="&#x13a;" horiz-adv-x="333" 
d="M288 915l-204 -155h-17l105 155h116zM179 745v-692l77 -42v-11h-216v11l78 42v614l-77 44v9z" />
    <glyph glyph-name="Lcommaaccent" unicode="&#x13b;" horiz-adv-x="559" 
d="M519 169v-169h-469v11l78 42v574l-78 42v11h218v-11l-77 -42v-573h261l57 115h10zM222 -227l-8 6q18 36 24.5 78t4.5 77h83q0 -18 -11.5 -46t-38 -61t-54.5 -54z" />
    <glyph glyph-name="lcommaaccent" unicode="&#x13c;" horiz-adv-x="301" 
d="M179 53l77 -42v-11h-216v11l78 42v614l-77 44v9l138 25v-692zM93 -227l-8 6q18 36 24.5 78t4.5 77h83q0 -18 -11.5 -46t-38 -61t-54.5 -54z" />
    <glyph glyph-name="Lcaron" unicode="&#x13d;" horiz-adv-x="559" 
d="M362 467h-41q18 21 36.5 57t28 83.5t7.5 88.5h92q0 -53 -36 -120t-87 -109zM519 169v-169h-469v11l78 42v574l-78 42v11h218v-11l-77 -42v-573h261l57 115h10z" />
    <glyph glyph-name="lcaron" unicode="&#x13e;" horiz-adv-x="347" 
d="M179 745v-692l77 -42v-11h-216v11l78 42v614l-77 44v9zM269 744h83q0 -18 -11.5 -46t-38 -61t-54.5 -54l-8 6q18 36 24.5 78t4.5 77z" />
    <glyph glyph-name="Ldot" unicode="&#x13f;" horiz-adv-x="559" 
d="M519 169v-169h-469v11l78 42v574l-78 42v11h218v-11l-77 -42v-573h261l57 115h10zM438 327q-20 0 -34.5 14.5t-14.5 33.5q0 20 14.5 35.5t34.5 15.5q19 0 34.5 -15.5t15.5 -35.5q0 -19 -15.5 -33.5t-34.5 -14.5z" />
    <glyph glyph-name="ldot" unicode="&#x140;" horiz-adv-x="322" 
d="M179 745v-692l77 -42v-11h-216v11l78 42v614l-77 44v9zM262 411q19 0 34.5 -15.5t15.5 -35.5q0 -19 -15.5 -33.5t-34.5 -14.5q-20 0 -34.5 14.5t-14.5 33.5q0 20 14.5 35.5t34.5 15.5z" />
    <glyph glyph-name="Lslash" unicode="&#x141;" horiz-adv-x="571" 
d="M531 169v-169h-469v11l78 42v262l-90 -45v59l90 45v253l-78 42v11h218v-11l-77 -42v-222l129 64v-59l-129 -64v-292h261l57 115h10z" />
    <glyph glyph-name="lslash" unicode="&#x142;" horiz-adv-x="374" 
d="M329 437l-108 -56v-328l77 -42v-11h-216v11l78 42v296l-120 -62v69l120 62v249l-77 44v9l138 25v-295l108 56v-69z" />
    <glyph glyph-name="Nacute" unicode="&#x143;" horiz-adv-x="798" 
d="M554 905l-204 -155h-17l105 155h116zM537 680h221v-11l-77 -42v-642h-9l-478 584v-516l77 -42v-11h-221v11l78 42v562l-76 59v7h135l428 -522v468l-78 42v11z" />
    <glyph glyph-name="nacute" unicode="&#x144;" horiz-adv-x="629" 
d="M484 725l-204 -155h-17l105 155h116zM530 53l77 -42v-11h-216v11l78 42v252q0 38 -11 66.5t-31 47.5t-47 27.5t-54 8.5q-60 0 -98 -30t-44 -96v-276l77 -42v-11h-216v11l78 42v381l-77 44v9l126 26l7 -67l1 -13q23 33 66.5 56.5t94.5 23.5q87 0 138 -54t51 -159v-247z
" />
    <glyph glyph-name="Ncommaaccent" unicode="&#x145;" horiz-adv-x="798" 
d="M537 680h221v-11l-77 -42v-642h-9l-478 584v-516l77 -42v-11h-221v11l78 42v562l-76 59v7h135l428 -522v468l-78 42v11zM331 -227l-8 6q18 36 24.5 78t4.5 77h83q0 -18 -11.5 -46t-38 -61t-54.5 -54z" />
    <glyph glyph-name="ncommaaccent" unicode="&#x146;" horiz-adv-x="629" 
d="M530 53l77 -42v-11h-216v11l78 42v252q0 38 -11 66.5t-31 47.5t-47 27.5t-54 8.5q-60 0 -98 -30t-44 -96v-276l77 -42v-11h-216v11l78 42v381l-77 44v9l126 26l7 -67l1 -13q23 33 66.5 56.5t94.5 23.5q87 0 138 -54t51 -159v-247zM286 -227l-8 6q18 36 24.5 78t4.5 77h83
q0 -18 -11.5 -46t-38 -61t-54.5 -54z" />
    <glyph glyph-name="Ncaron" unicode="&#x147;" horiz-adv-x="798" 
d="M548 922l-155 -143l-157 143l17 10l140 -76l140 76zM537 680h221v-11l-77 -42v-642h-9l-478 584v-516l77 -42v-11h-221v11l78 42v562l-76 59v7h135l428 -522v468l-78 42v11z" />
    <glyph glyph-name="ncaron" unicode="&#x148;" horiz-adv-x="629" 
d="M478 742l-155 -143l-157 143l17 10l140 -76l140 76zM530 53l77 -42v-11h-216v11l78 42v252q0 38 -11 66.5t-31 47.5t-47 27.5t-54 8.5q-60 0 -98 -30t-44 -96v-276l77 -42v-11h-216v11l78 42v381l-77 44v9l126 26l7 -67l1 -13q23 33 66.5 56.5t94.5 23.5q87 0 138 -54
t51 -159v-247z" />
    <glyph glyph-name="Eng" unicode="&#x14a;" horiz-adv-x="798" 
d="M537 680h221v-11l-77 -42v-652q0 -96 -46 -153t-122 -57q-34 0 -70 9t-74 42v95h11q24 -49 55 -68t78 -19q21 0 43.5 11.5t37.5 36t20.5 52t5.5 55.5v70l-426 520v-516l77 -42v-11h-221v11l78 42v562l-76 59v7h135l428 -522v468l-78 42v11z" />
    <glyph glyph-name="eng" unicode="&#x14b;" horiz-adv-x="612" 
d="M341 513q87 0 138 -54t51 -159v-370q0 -85 -35 -125t-99 -40q-26 0 -49.5 6.5t-53.5 25.5v80h12q19 -28 38.5 -41t49.5 -13q36 0 56 22.5t20 64.5v395q0 38 -14 74.5t-49 59t-80 22.5q-29 0 -61 -10.5t-54.5 -41.5t-26.5 -80v-276l77 -42v-11h-216v11l78 42v381l-77 44v9
l126 26l7 -67l1 -13q23 33 66.5 56.5t94.5 23.5z" />
    <glyph glyph-name="Omacron" unicode="&#x14c;" horiz-adv-x="792" 
d="M557 792h-323v53h323v-53zM396 695q71 0 136 -26.5t114 -74.5t77 -114t28 -140q0 -73 -28 -138.5t-77 -114t-114 -75.5t-136 -27q-70 0 -135 27t-114.5 75.5t-77.5 114t-28 138.5q0 74 28 140t77 114t114.5 74.5t135.5 26.5zM396 636q-61 0 -114 -23t-91 -64.5t-59 -95.5
t-21 -113q0 -58 21 -112t59 -95.5t91.5 -65t113.5 -23.5q61 0 114 23.5t91 65t59 95.5t21 112q0 59 -21 113.5t-59 95.5t-91 64t-114 23z" />
    <glyph glyph-name="omacron" unicode="&#x14d;" horiz-adv-x="606" 
d="M466 612h-323v53h323v-53zM303 513q53 0 101 -20.5t84 -57.5t56 -85.5t20 -100.5q0 -53 -20 -101.5t-56 -85t-84 -57t-101 -20.5t-101 20.5t-84 57t-56 85t-20 101.5q0 52 20 100.5t56 85.5t84 57.5t101 20.5zM303 455q-31 0 -64.5 -10.5t-62.5 -36t-49 -66t-20 -93.5
q0 -42 12.5 -75t33 -60t59.5 -49t91 -22q31 0 64.5 10.5t62.5 36t49 66t20 93.5q0 42 -12.5 75t-33 60t-59.5 49t-91 22z" />
    <glyph glyph-name="Obreve" unicode="&#x14e;" horiz-adv-x="792" 
d="M544 909l8 -8q-14 -37 -41 -68t-58 -43.5t-57 -12.5q-53 0 -94 35.5t-61 88.5l7 8q58 -74 148 -74q92 0 148 74zM396 695q71 0 136 -26.5t114 -74.5t77 -114t28 -140q0 -73 -28 -138.5t-77 -114t-114 -75.5t-136 -27q-70 0 -135 27t-114.5 75.5t-77.5 114t-28 138.5
q0 74 28 140t77 114t114.5 74.5t135.5 26.5zM396 636q-61 0 -114 -23t-91 -64.5t-59 -95.5t-21 -113q0 -58 21 -112t59 -95.5t91.5 -65t113.5 -23.5q61 0 114 23.5t91 65t59 95.5t21 112q0 59 -21 113.5t-59 95.5t-91 64t-114 23z" />
    <glyph glyph-name="obreve" unicode="&#x14f;" horiz-adv-x="606" 
d="M453 729l8 -8q-14 -37 -41 -68t-58 -43.5t-57 -12.5q-53 0 -94 35.5t-61 88.5l7 8q58 -74 148 -74q92 0 148 74zM303 513q53 0 101 -20.5t84 -57.5t56 -85.5t20 -100.5q0 -53 -20 -101.5t-56 -85t-84 -57t-101 -20.5t-101 20.5t-84 57t-56 85t-20 101.5q0 52 20 100.5
t56 85.5t84 57.5t101 20.5zM303 455q-31 0 -64.5 -10.5t-62.5 -36t-49 -66t-20 -93.5q0 -42 12.5 -75t33 -60t59.5 -49t91 -22q31 0 64.5 10.5t62.5 36t49 66t20 93.5q0 42 -12.5 75t-33 60t-59.5 49t-91 22z" />
    <glyph glyph-name="Ohungarumlaut" unicode="&#x150;" horiz-adv-x="792" 
d="M304 750h-17l36 175h105zM474 750h-17l36 175h105zM396 695q71 0 136 -26.5t114 -74.5t77 -114t28 -140q0 -73 -28 -138.5t-77 -114t-114 -75.5t-136 -27q-70 0 -135 27t-114.5 75.5t-77.5 114t-28 138.5q0 74 28 140t77 114t114.5 74.5t135.5 26.5zM396 636
q-61 0 -114 -23t-91 -64.5t-59 -95.5t-21 -113q0 -58 21 -112t59 -95.5t91.5 -65t113.5 -23.5q61 0 114 23.5t91 65t59 95.5t21 112q0 59 -21 113.5t-59 95.5t-91 64t-114 23z" />
    <glyph glyph-name="ohungarumlaut" unicode="&#x151;" horiz-adv-x="606" 
d="M213 570h-17l36 175h105zM383 570h-17l36 175h105zM303 513q53 0 101 -20.5t84 -57.5t56 -85.5t20 -100.5q0 -53 -20 -101.5t-56 -85t-84 -57t-101 -20.5t-101 20.5t-84 57t-56 85t-20 101.5q0 52 20 100.5t56 85.5t84 57.5t101 20.5zM303 455q-31 0 -64.5 -10.5
t-62.5 -36t-49 -66t-20 -93.5q0 -42 12.5 -75t33 -60t59.5 -49t91 -22q31 0 64.5 10.5t62.5 36t49 66t20 93.5q0 42 -12.5 75t-33 60t-59.5 49t-91 22z" />
    <glyph glyph-name="OE" unicode="&#x152;" horiz-adv-x="948" 
d="M863 159h10v-159h-475q-77 0 -143.5 25t-114 70.5t-73.5 108.5t-26 136q0 74 26 137.5t73.5 109t114 70t143.5 24.5h108v-1h356v-119h-10l-51 65h-256v-249h220l43 47h8v-150h-8l-43 47h-220v-267h261zM398 54h84v572h-84q-61 0 -113.5 -20t-90 -58t-57.5 -91.5
t-20 -116.5q0 -62 20 -115t57.5 -91.5t90 -59t113.5 -20.5z" />
    <glyph glyph-name="oe" unicode="&#x153;" horiz-adv-x="1036" 
d="M984 232h-420q0 -28 10.5 -60t35 -60.5t62.5 -48.5t85 -20q50 0 94 14t78 54l11 -2v-71q-32 -23 -82.5 -38t-103.5 -15q-49 0 -97 21t-79 54t-46 62q-34 -62 -95 -99.5t-134 -37.5q-53 0 -101 20.5t-84 57t-56 85t-20 101.5q0 52 20 100.5t56 85.5t84 57.5t101 20.5
t102.5 -22t80.5 -54.5t46 -61.5q15 29 44.5 62t77 54.5t97.5 21.5q49 0 92 -18t74.5 -53t49 -85t17.5 -111v-14zM303 43q31 0 64.5 10.5t62.5 36t49 66t20 93.5q0 42 -12.5 75t-33 60t-59.5 49t-91 22q-31 0 -64.5 -10.5t-62.5 -36t-49 -66t-20 -93.5q0 -42 12.5 -75t33 -60
t59.5 -49t91 -22zM563 286h352q0 74 -44 121.5t-121 47.5q-28 0 -59.5 -10t-59.5 -33t-48 -56.5t-20 -69.5z" />
    <glyph glyph-name="Racute" unicode="&#x154;" horiz-adv-x="658" 
d="M250 750h-17l105 155h116zM638 11v-11h-130l-286 340v14h92q44 0 78.5 13.5t58 43.5t23.5 78q0 64 -44 99t-116 35h-123v-571l82 -41v-11h-223v11l78 42v574l-78 42v11h284q32 0 67 -9t70.5 -35t53.5 -66t18 -82t-18 -77t-49 -59t-69.5 -37.5t-77.5 -14.5l217 -241z" />
    <glyph glyph-name="racute" unicode="&#x155;" horiz-adv-x="403" 
d="M165 567h-17l105 155h116zM319 513q31 0 62 -10v-69h-10q-21 21 -69 21q-58 0 -88 -49t-30 -131v-222l94 -42v-11h-233v11l78 42v381l-77 44v9l127 26l7 -88q47 88 139 88z" />
    <glyph glyph-name="Rcommaaccent" unicode="&#x156;" horiz-adv-x="658" 
d="M638 11v-11h-130l-286 340v14h92q44 0 78.5 13.5t58 43.5t23.5 78q0 64 -44 99t-116 35h-123v-571l82 -41v-11h-223v11l78 42v574l-78 42v11h284q32 0 67 -9t70.5 -35t53.5 -66t18 -82t-18 -77t-49 -59t-69.5 -37.5t-77.5 -14.5l217 -241zM304 -227l-8 6q18 36 24.5 78
t4.5 77h83q0 -18 -11.5 -46t-38 -61t-54.5 -54z" />
    <glyph glyph-name="rcommaaccent" unicode="&#x157;" horiz-adv-x="403" 
d="M319 513q31 0 62 -10v-69h-10q-21 21 -69 21q-58 0 -88 -49t-30 -131v-222l94 -42v-11h-233v11l78 42v381l-77 44v9l127 26l7 -88q47 88 139 88zM99 -227l-8 6q18 36 24.5 78t4.5 77h83q0 -18 -11.5 -46t-38 -61t-54.5 -54z" />
    <glyph glyph-name="Rcaron" unicode="&#x158;" horiz-adv-x="658" 
d="M293 779l-157 143l17 10l140 -76l140 76l15 -10zM638 11v-11h-130l-286 340v14h92q44 0 78.5 13.5t58 43.5t23.5 78q0 64 -44 99t-116 35h-123v-571l82 -41v-11h-223v11l78 42v574l-78 42v11h284q32 0 67 -9t70.5 -35t53.5 -66t18 -82t-18 -77t-49 -59t-69.5 -37.5
t-77.5 -14.5l217 -241z" />
    <glyph glyph-name="rcaron" unicode="&#x159;" horiz-adv-x="403" 
d="M208 596l-157 143l17 10l140 -76l140 76l15 -10zM319 513q31 0 62 -10v-69h-10q-21 21 -69 21q-58 0 -88 -49t-30 -131v-222l94 -42v-11h-233v11l78 42v381l-77 44v9l127 26l7 -88q47 88 139 88z" />
    <glyph glyph-name="Sacute" unicode="&#x15a;" horiz-adv-x="522" 
d="M213 750h-17l105 155h116zM433 551h-10q-26 37 -71.5 60t-93.5 23q-26 0 -56 -11t-51 -39.5t-21 -65.5q0 -31 12 -54t40 -45t137 -70q77 -34 110 -77.5t33 -102.5q0 -35 -13.5 -68.5t-39.5 -59.5t-65.5 -41t-89.5 -15q-55 0 -107 19.5t-87 52.5v95h11q29 -50 80.5 -78.5
t111.5 -28.5q32 0 62.5 12t50 41.5t19.5 63.5q0 23 -5.5 41t-17.5 32.5t-40.5 34t-139.5 67.5q-62 27 -96 70t-34 110q0 28 10.5 59t35 57t62.5 44t87 18q55 0 101 -15.5t75 -37.5v-91z" />
    <glyph glyph-name="sacute" unicode="&#x15b;" horiz-adv-x="432" 
d="M182 570h-17l105 155h116zM360 396h-10q-39 35 -71.5 46.5t-63.5 11.5q-44 0 -71 -22t-27 -56q0 -28 20 -49.5t110 -53.5q71 -25 102 -61.5t31 -83.5q0 -44 -27.5 -79.5t-66.5 -49.5t-74 -14q-85 0 -160 50v77h11q28 -34 67.5 -51.5t81.5 -17.5q31 0 57.5 11.5t37.5 30
t11 35.5q0 36 -27.5 61.5t-93.5 46.5q-53 17 -83.5 37t-44 46t-13.5 63q0 58 46 98t120 40q69 0 138 -38v-78z" />
    <glyph glyph-name="Scedilla" unicode="&#x15e;" horiz-adv-x="522" 
d="M462 169q0 -54 -26.5 -95t-70 -64t-102.5 -25l-8 -34q22 0 43 -8t30 -22.5t9 -28.5q0 -42 -43 -70t-92 -33l-1 10q39 18 58.5 37t19.5 43q0 21 -15.5 31.5t-40.5 10.5l15 64q-51 3 -98 22t-80 50v95h11q29 -50 80.5 -78.5t111.5 -28.5q32 0 62.5 12t50 41.5t19.5 63.5
q0 23 -5.5 41t-17.5 32.5t-40.5 34t-139.5 67.5q-62 27 -96 70t-34 110q0 28 10.5 59t35 57t62.5 44t87 18q55 0 101 -15.5t75 -37.5v-91h-10q-26 37 -71.5 60t-93.5 23q-26 0 -56 -11t-51 -39.5t-21 -65.5q0 -31 12 -54t40 -45t137 -70q77 -34 110 -77.5t33 -102.5z" />
    <glyph glyph-name="scedilla" unicode="&#x15f;" horiz-adv-x="432" 
d="M380 128q0 -35 -20 -69t-59 -53.5t-81 -20.5l-8 -34q22 0 43 -8t30 -22.5t9 -28.5q0 -42 -43 -70t-92 -33l-1 10q39 18 58.5 37t19.5 43q0 21 -15.5 31.5t-40.5 10.5l15 64q-78 5 -143 50v77h11q28 -34 67.5 -51.5t81.5 -17.5q31 0 57.5 11.5t37.5 30t11 35.5
q0 36 -27.5 61.5t-93.5 46.5q-53 17 -83.5 37t-44 46t-13.5 63q0 58 46 98t120 40q69 0 138 -38v-78h-10q-39 35 -71.5 46.5t-63.5 11.5q-44 0 -71 -22t-27 -56q0 -28 20 -49.5t110 -53.5q71 -25 102 -61.5t31 -83.5z" />
    <glyph glyph-name="Scaron" unicode="&#x160;" horiz-adv-x="522" 
d="M99 922l17 10l140 -76l140 76l15 -10l-155 -143zM433 551h-10q-26 37 -71.5 60t-93.5 23q-26 0 -56 -11t-51 -39.5t-21 -65.5q0 -31 12 -54t40 -45t137 -70q77 -34 110 -77.5t33 -102.5q0 -35 -13.5 -68.5t-39.5 -59.5t-65.5 -41t-89.5 -15q-55 0 -107 19.5t-87 52.5v95
h11q29 -50 80.5 -78.5t111.5 -28.5q32 0 62.5 12t50 41.5t19.5 63.5q0 23 -5.5 41t-17.5 32.5t-40.5 34t-139.5 67.5q-62 27 -96 70t-34 110q0 28 10.5 59t35 57t62.5 44t87 18q55 0 101 -15.5t75 -37.5v-91z" />
    <glyph glyph-name="scaron" unicode="&#x161;" horiz-adv-x="432" 
d="M68 742l17 10l140 -76l140 76l15 -10l-155 -143zM360 396h-10q-39 35 -71.5 46.5t-63.5 11.5q-44 0 -71 -22t-27 -56q0 -28 20 -49.5t110 -53.5q71 -25 102 -61.5t31 -83.5q0 -44 -27.5 -79.5t-66.5 -49.5t-74 -14q-85 0 -160 50v77h11q28 -34 67.5 -51.5t81.5 -17.5
q31 0 57.5 11.5t37.5 30t11 35.5q0 36 -27.5 61.5t-93.5 46.5q-53 17 -83.5 37t-44 46t-13.5 63q0 58 46 98t120 40q69 0 138 -38v-78z" />
    <glyph glyph-name="Tcommaaccent" unicode="&#x162;" horiz-adv-x="642" 
d="M582 680v-114h-5l-58 57h-167v-563l89 -49v-11h-113l-11 -49q22 0 43 -8t30 -22.5t9 -28.5q0 -42 -43 -70t-92 -33l-1 10q39 18 58.5 37t19.5 43q0 21 -15.5 31.5t-40.5 10.5l18 79h-104v11l90 50v562h-166l-58 -57h-5v114h522z" />
    <glyph glyph-name="tcommaaccent" unicode="&#x163;" horiz-adv-x="403" 
d="M179 443v-297q0 -52 23 -80.5t66 -28.5q46 0 81 49l9 -3v-65q-42 -33 -98 -33l-18 1l-8 -35q22 0 43 -8t30 -22.5t9 -28.5q0 -42 -43 -70t-92 -33l-1 10q39 18 58.5 37t19.5 43q0 21 -15.5 31.5t-40.5 10.5l16 70q-45 12 -72.5 50.5t-27.5 95.5v306h-93v9l148 152h7v-107
h181v-54h-182z" />
    <glyph glyph-name="Tcaron" unicode="&#x164;" horiz-adv-x="642" 
d="M321 779l-157 143l17 10l140 -76l140 76l15 -10zM582 680v-114h-5l-58 57h-167v-563l89 -49v-11h-242v11l90 50v562h-166l-58 -57h-5v114h522z" />
    <glyph glyph-name="tcaron" unicode="&#x165;" horiz-adv-x="403" 
d="M286 696h61q0 -34 -17.5 -68.5t-65.5 -80.5h-35q57 64 57 149zM179 443v-297q0 -52 23 -80.5t66 -28.5q46 0 81 49l9 -3v-65q-42 -33 -98 -33q-22 0 -46 7t-45 24t-36 47t-15 74v306h-93v9l148 152h7v-107h181v-54h-182z" />
    <glyph glyph-name="Tbar" unicode="&#x166;" horiz-adv-x="642" 
d="M582 680v-114h-5l-58 57h-167v-249h106v-54h-106v-260l89 -49v-11h-242v11l90 50v259h-106v54h106v249h-166l-58 -57h-5v114h522z" />
    <glyph glyph-name="tbar" unicode="&#x167;" horiz-adv-x="403" 
d="M179 443v-130h176v-54h-176v-113q0 -52 23 -80.5t66 -28.5q46 0 81 49l9 -3v-65q-42 -33 -98 -33q-22 0 -46 7t-45 24t-36 47t-15 74v122h-86v54h86v130h-93v9l148 152h7v-107h181v-54h-182z" />
    <glyph glyph-name="Umacron" unicode="&#x16a;" horiz-adv-x="755" 
d="M537 792h-323v53h323v-53zM725 680v-11l-77 -42v-369q0 -62 -20.5 -113t-58 -87t-87.5 -54.5t-107 -18.5q-42 0 -88 12.5t-85 44t-60 72.5t-27.5 77.5t-6.5 66.5v369l-78 42v11h218v-11l-77 -42v-374q0 -33 10 -68.5t38 -70.5t70.5 -52.5t85.5 -17.5t82 14.5t67.5 41.5
t44.5 64.5t16 82.5v380l-78 42v11h218z" />
    <glyph glyph-name="umacron" unicode="&#x16b;" horiz-adv-x="620" 
d="M464 665v-53h-323v53h323zM508 53l77 -42v-11h-131l-5 65q-22 -33 -65.5 -57t-95.5 -24q-87 0 -138 54t-51 159v247l-77 42v11h138v-305q0 -38 14 -74.5t49 -59t80 -22.5q67 0 105 39.5t38 116.5v252l-77 42v11h140z" />
    <glyph glyph-name="Ubreve" unicode="&#x16c;" horiz-adv-x="755" 
d="M376 777q-53 0 -94 35.5t-61 88.5l7 8q58 -74 148 -74q92 0 148 74l8 -8q-14 -37 -41 -68t-58 -43.5t-57 -12.5zM725 680v-11l-77 -42v-369q0 -62 -20.5 -113t-58 -87t-87.5 -54.5t-107 -18.5q-42 0 -88 12.5t-85 44t-60 72.5t-27.5 77.5t-6.5 66.5v369l-78 42v11h218
v-11l-77 -42v-374q0 -33 10 -68.5t38 -70.5t70.5 -52.5t85.5 -17.5t82 14.5t67.5 41.5t44.5 64.5t16 82.5v380l-78 42v11h218z" />
    <glyph glyph-name="ubreve" unicode="&#x16d;" horiz-adv-x="620" 
d="M303 597q-53 0 -94 35.5t-61 88.5l7 8q58 -74 148 -74q92 0 148 74l8 -8q-14 -37 -41 -68t-58 -43.5t-57 -12.5zM508 53l77 -42v-11h-131l-5 65q-22 -33 -65.5 -57t-95.5 -24q-87 0 -138 54t-51 159v247l-77 42v11h138v-305q0 -38 14 -74.5t49 -59t80 -22.5
q67 0 105 39.5t38 116.5v252l-77 42v11h140z" />
    <glyph glyph-name="Uring" unicode="&#x16e;" horiz-adv-x="755" 
d="M376 758q-18 0 -40.5 8.5t-38.5 31t-16 51.5q0 19 9.5 40.5t33 36t52.5 14.5q18 0 40.5 -8.5t38.5 -31t16 -51.5q0 -19 -9.5 -40.5t-33 -36t-52.5 -14.5zM376 900q-22 0 -36 -14.5t-14 -36.5t14 -36.5t36 -14.5t36 14.5t14 36.5t-14 36.5t-36 14.5zM725 680v-11l-77 -42
v-369q0 -62 -20.5 -113t-58 -87t-87.5 -54.5t-107 -18.5q-42 0 -88 12.5t-85 44t-60 72.5t-27.5 77.5t-6.5 66.5v369l-78 42v11h218v-11l-77 -42v-374q0 -33 10 -68.5t38 -70.5t70.5 -52.5t85.5 -17.5t82 14.5t67.5 41.5t44.5 64.5t16 82.5v380l-78 42v11h218z" />
    <glyph glyph-name="uring" unicode="&#x16f;" horiz-adv-x="620" 
d="M303 578q-18 0 -40.5 8.5t-38.5 31t-16 51.5q0 19 9.5 40.5t33 36t52.5 14.5q18 0 40.5 -8.5t38.5 -31t16 -51.5q0 -19 -9.5 -40.5t-33 -36t-52.5 -14.5zM303 720q-22 0 -36 -14.5t-14 -36.5t14 -36.5t36 -14.5t36 14.5t14 36.5t-14 36.5t-36 14.5zM508 53l77 -42v-11
h-131l-5 65q-22 -33 -65.5 -57t-95.5 -24q-87 0 -138 54t-51 159v247l-77 42v11h138v-305q0 -38 14 -74.5t49 -59t80 -22.5q67 0 105 39.5t38 116.5v252l-77 42v11h140z" />
    <glyph glyph-name="Uhungarumlaut" unicode="&#x170;" horiz-adv-x="755" 
d="M284 750h-17l36 175h105zM454 750h-17l36 175h105zM725 680v-11l-77 -42v-369q0 -62 -20.5 -113t-58 -87t-87.5 -54.5t-107 -18.5q-42 0 -88 12.5t-85 44t-60 72.5t-27.5 77.5t-6.5 66.5v369l-78 42v11h218v-11l-77 -42v-374q0 -33 10 -68.5t38 -70.5t70.5 -52.5
t85.5 -17.5t82 14.5t67.5 41.5t44.5 64.5t16 82.5v380l-78 42v11h218z" />
    <glyph glyph-name="uhungarumlaut" unicode="&#x171;" horiz-adv-x="620" 
d="M335 745l-124 -175h-17l36 175h105zM505 745l-124 -175h-17l36 175h105zM508 53l77 -42v-11h-131l-5 65q-22 -33 -65.5 -57t-95.5 -24q-87 0 -138 54t-51 159v247l-77 42v11h138v-305q0 -38 14 -74.5t49 -59t80 -22.5q67 0 105 39.5t38 116.5v252l-77 42v11h140z" />
    <glyph glyph-name="Uogonek" unicode="&#x172;" horiz-adv-x="755" 
d="M725 680v-11l-77 -42v-369q0 -97 -48 -164.5t-128 -93.5h3q-41 -13 -71 -32.5t-41 -39.5t-11 -36q0 -19 13.5 -32t32.5 -13q17 0 32 8.5t23 24.5h10v-60q-34 -29 -80 -29q-24 0 -46.5 13.5t-31.5 34t-9 39.5q0 30 17 58t49 49q-55 2 -102 22t-81 55t-52.5 85.5
t-18.5 110.5v369l-78 42v11h218v-11l-77 -42v-374q0 -33 10 -68.5t38 -70.5t70.5 -52.5t85.5 -17.5t82 14.5t67.5 41.5t44.5 64.5t16 82.5v380l-78 42v11h218z" />
    <glyph glyph-name="uogonek" unicode="&#x173;" horiz-adv-x="620" 
d="M508 53l77 -42v-11h-2q-41 -13 -71 -32.5t-41 -39.5t-11 -36q0 -19 13.5 -32t32.5 -13q17 0 32 8.5t23 24.5h10v-60q-34 -29 -80 -29q-24 0 -46.5 13.5t-31.5 34t-9 39.5q0 36 24 68.5t67 53.5h-41l-5 65q-22 -33 -65.5 -57t-95.5 -24q-87 0 -138 54t-51 159v247l-77 42
v11h138v-305q0 -38 14 -74.5t49 -59t80 -22.5q67 0 105 39.5t38 116.5v252l-77 42v11h140z" />
    <glyph glyph-name="Wcircumflex" unicode="&#x174;" horiz-adv-x="996" 
d="M379 741l-15 10l155 143l157 -143l-17 -10l-140 76zM986 680v-11l-71 -50l-187 -638h-12l-221 532l-198 -532h-12l-210 644l-65 44v11h222v-11l-77 -42h-7l150 -483l200 555h3l220 -555l127 483h-4l-78 42v11h220z" />
    <glyph glyph-name="wcircumflex" unicode="&#x175;" horiz-adv-x="824" 
d="M276 561l-15 10l155 143l157 -143l-17 -10l-140 76zM807 497v-8l-72 -45l-153 -463h-11l-160 388l-163 -388h-14l-146 463l-71 45v8h216v-11l-77 -42h-1l97 -324l161 386h8l151 -373l94 312l-76 41v11h217z" />
    <glyph glyph-name="Ycircumflex" unicode="&#x176;" horiz-adv-x="705" 
d="M214 741l-15 10l155 143l157 -143l-17 -10l-140 76zM680 680v-11l-64 -39l-227 -359v-210l89 -50v-11h-242v11l90 50v209l-220 347l-81 52v11h217v-11l-67 -37l187 -301l178 304l-63 34v11h203zM357 220l-2 -3l3 2z" />
    <glyph glyph-name="ycircumflex" unicode="&#x177;" horiz-adv-x="612" 
d="M170 561l-15 10l155 143l157 -143l-17 -10l-140 76zM607 497v-8l-67 -45l-281 -627l74 -40v-12h-241v12l99 40l81 156l18 44l-205 424l-80 48v8h231v-11l-73 -40l157 -357l148 358l-72 39v11h211z" />
    <glyph glyph-name="Ydieresis" unicode="&#x178;" horiz-adv-x="705" 
d="M256 784q-22 0 -38 15t-16 38t16 38t38 15t37.5 -15t15.5 -38t-15.5 -38t-37.5 -15zM451 784q-21 0 -36.5 15.5t-15.5 37.5t15.5 37.5t36.5 15.5q23 0 39 -15t16 -38t-16 -38t-39 -15zM680 680v-11l-64 -39l-227 -359v-210l89 -50v-11h-242v11l90 50v209l-220 347l-81 52
v11h217v-11l-67 -37l187 -301l178 304l-63 34v11h203zM357 220l-2 -3l3 2z" />
    <glyph glyph-name="Zacute" unicode="&#x179;" horiz-adv-x="625" 
d="M265 750h-17l105 155h116zM547 146h10v-146h-502l-5 10l418 613h-322l-57 -76h-9v133h490l5 -10l-416 -613h319z" />
    <glyph glyph-name="zacute" unicode="&#x17a;" horiz-adv-x="504" 
d="M401 725l-204 -155h-17l105 155h116zM458 499l4 -8l-324 -441h250l53 63h9v-113h-404l-4 7l321 441h-236l-54 -66h-8v115z" />
    <glyph glyph-name="Zdotaccent" unicode="&#x17b;" horiz-adv-x="625" 
d="M304 794q-21 0 -36.5 15.5t-15.5 37.5t15.5 37.5t36.5 15.5q23 0 39 -15t16 -38t-16 -38t-39 -15zM547 146h10v-146h-502l-5 10l418 613h-322l-57 -76h-9v133h490l5 -10l-416 -613h319z" />
    <glyph glyph-name="zdotaccent" unicode="&#x17c;" horiz-adv-x="504" 
d="M236 720q23 0 39 -15t16 -38t-16 -38t-39 -15q-21 0 -36.5 15.5t-15.5 37.5t15.5 37.5t36.5 15.5zM458 499l4 -8l-324 -441h250l53 63h9v-113h-404l-4 7l321 441h-236l-54 -66h-8v115z" />
    <glyph glyph-name="Zcaron" unicode="&#x17d;" horiz-adv-x="625" 
d="M308 779l-157 143l17 10l140 -76l140 76l15 -10zM547 146h10v-146h-502l-5 10l418 613h-322l-57 -76h-9v133h490l5 -10l-416 -613h319z" />
    <glyph glyph-name="zcaron" unicode="&#x17e;" horiz-adv-x="504" 
d="M240 599l-157 143l17 10l140 -76l140 76l15 -10zM458 499l4 -8l-324 -441h250l53 63h9v-113h-404l-4 7l321 441h-236l-54 -66h-8v115z" />
    <glyph glyph-name="Aringacute" unicode="&#x1fa;" horiz-adv-x="742" 
d="M515 995l-204 -155h-17l105 155h116zM641 65l76 -54v-11h-217v11l77 41l-72 174h-272l-70 -173h5l77 -42v-11h-220v11l77 55l248 593q-33 5 -54.5 30t-21.5 59q0 19 9.5 40.5t33 36t52.5 14.5q18 0 40.5 -8.5t38.5 -31t16 -51.5q0 -33 -20 -57t-51 -31zM319 748
q0 -22 14 -36.5t36 -14.5t36 14.5t14 36.5t-14 36.5t-36 14.5t-36 -14.5t-14 -36.5zM255 282h227l-115 279z" />
    <glyph glyph-name="aringacute" unicode="&#x1fb;" horiz-adv-x="555" 
d="M422 930l-204 -155h-17l105 155h116zM272 555q-18 0 -40.5 8.5t-38.5 31t-16 51.5q0 19 9.5 40.5t33 36t52.5 14.5q18 0 40.5 -8.5t38.5 -31t16 -51.5q0 -19 -9.5 -40.5t-33 -36t-52.5 -14.5zM272 697q-22 0 -36 -14.5t-14 -36.5t14 -36.5t36 -14.5t36 14.5t14 36.5
t-14 36.5t-36 14.5zM453 53l77 -42v-11h-126l-1 76q-30 -42 -79 -66.5t-106 -24.5q-52 0 -91.5 21t-60.5 55t-21 79t23 78.5t66 54t104 20.5q33 0 69 -8t85 -30v66q0 47 -24.5 79t-59.5 43.5t-64 11.5q-45 0 -84.5 -20t-61.5 -56l-10 5v67q29 27 72 44.5t94 17.5
q91 0 145 -50.5t54 -139.5v-270zM392 163v39q-69 33 -154 33q-56 0 -92 -25.5t-36 -69.5q0 -25 11.5 -47.5t40 -36t66.5 -13.5q26 0 62.5 12.5t69 43t32.5 64.5z" />
    <glyph glyph-name="AEacute" unicode="&#x1fc;" horiz-adv-x="1008" 
d="M869 905l-204 -155h-17l105 155h116zM923 159h10v-159h-469v11l78 42v128h-272l-96 -132l70 -38v-11h-219v11l72 39l427 587l-60 32v11h458v-119h-10l-51 65h-256v-249h220l43 47h8v-150h-8l-43 47h-220v-267h261zM311 237h231v318z" />
    <glyph glyph-name="aeacute" unicode="&#x1fd;" horiz-adv-x="931" 
d="M424 570h-17l105 155h116zM879 232h-420q0 -28 10.5 -60t35 -60.5t62.5 -48.5t85 -20q50 0 94 14t78 54l11 -2v-71q-32 -23 -82.5 -38t-103.5 -15q-29 0 -68 10.5t-79 39.5t-65 69q-14 -27 -42.5 -55t-74.5 -46t-99 -18q-43 0 -85.5 18t-66.5 55t-24 82t23.5 78.5
t67.5 54t105 20.5q33 0 69 -8t85 -30v66q0 47 -24.5 79t-59.5 43.5t-64 11.5q-46 0 -87.5 -20.5t-63.5 -55.5l-10 5v67q28 27 73.5 44.5t97.5 17.5q67 0 116 -29.5t69 -81.5q25 37 62.5 64t75 37t66.5 10q49 0 92 -18t74.5 -53t49 -85t17.5 -111v-14zM458 286h352
q0 74 -44 121.5t-121 47.5q-28 0 -59.5 -10t-59.5 -33t-48 -56.5t-20 -69.5zM395 163v39q-38 18 -71 27t-83 9q-55 0 -93 -27t-38 -71q0 -35 20 -59.5t48.5 -32.5t52.5 -8q29 0 66 13t67.5 44t30.5 66z" />
    <glyph glyph-name="Oslashacute" unicode="&#x1fe;" horiz-adv-x="792" 
d="M362 750h-17l105 155h116zM670 685l-47 -69q43 -36 74 -85.5t42.5 -100t11.5 -90.5q0 -73 -28 -138.5t-77 -114t-114 -75.5t-136 -27q-93 0 -174 45l-41 -60l-46 30l41 61q-45 35 -78 86t-45 102t-12 91q0 74 28 140t77 114t114.5 74.5t135.5 26.5q99 0 181 -48l47 68z
M111 340q0 -65 27 -125.5t74 -102.5l331 484q-65 40 -147 40q-61 0 -114 -23t-91 -64.5t-59 -95.5t-21 -113zM396 44q61 0 114 23.5t91 65t59 95.5t21 112q0 66 -25 124.5t-69 99.5l-330 -484q29 -16 66 -26t73 -10z" />
    <glyph glyph-name="oslashacute" unicode="&#x1ff;" horiz-adv-x="606" 
d="M267 570h-17l105 155h116zM500 525l-38 -67q47 -36 74.5 -91.5t27.5 -117.5q0 -53 -20 -101.5t-56 -85t-84 -57t-101 -20.5t-101 20l-41 -71l-46 30l39 68q-37 26 -64.5 65.5t-37.5 80t-10 71.5q0 52 20 100.5t56 85.5t84 57.5t101 20.5q61 0 113 -26l38 65zM107 249
q0 -50 20.5 -94t56.5 -72l203 354q-41 18 -84 18q-31 0 -64.5 -10.5t-62.5 -36t-49 -66t-20 -93.5zM303 43q31 0 64.5 10.5t62.5 36t49 66t20 93.5q0 47 -18 88.5t-49 69.5l-201 -351q36 -13 72 -13z" />
    <glyph glyph-name="Scommaaccent" unicode="&#x218;" horiz-adv-x="522" 
d="M433 551h-10q-26 37 -71.5 60t-93.5 23q-26 0 -56 -11t-51 -39.5t-21 -65.5q0 -31 12 -54t40 -45t137 -70q77 -34 110 -77.5t33 -102.5q0 -35 -13.5 -68.5t-39.5 -59.5t-65.5 -41t-89.5 -15q-55 0 -107 19.5t-87 52.5v95h11q29 -50 80.5 -78.5t111.5 -28.5q32 0 62.5 12
t50 41.5t19.5 63.5q0 23 -5.5 41t-17.5 32.5t-40.5 34t-139.5 67.5q-62 27 -96 70t-34 110q0 28 10.5 59t35 57t62.5 44t87 18q55 0 101 -15.5t75 -37.5v-91zM218 -66h83q0 -18 -11.5 -46t-38 -61t-54.5 -54l-8 6q18 36 24.5 78t4.5 77z" />
    <glyph glyph-name="scommaaccent" unicode="&#x219;" horiz-adv-x="432" 
d="M360 396h-10q-39 35 -71.5 46.5t-63.5 11.5q-44 0 -71 -22t-27 -56q0 -28 20 -49.5t110 -53.5q71 -25 102 -61.5t31 -83.5q0 -44 -27.5 -79.5t-66.5 -49.5t-74 -14q-85 0 -160 50v77h11q28 -34 67.5 -51.5t81.5 -17.5q31 0 57.5 11.5t37.5 30t11 35.5q0 36 -27.5 61.5
t-93.5 46.5q-53 17 -83.5 37t-44 46t-13.5 63q0 58 46 98t120 40q69 0 138 -38v-78zM175 -66h83q0 -18 -11.5 -46t-38 -61t-54.5 -54l-8 6q18 36 24.5 78t4.5 77z" />
    <glyph glyph-name="uni021A" unicode="&#x21a;" horiz-adv-x="642" 
d="M582 680v-114h-5l-58 57h-167v-563l89 -49v-11h-242v11l90 50v562h-166l-58 -57h-5v114h522zM259 -227l-8 6q18 36 24.5 78t4.5 77h83q0 -18 -11.5 -46t-38 -61t-54.5 -54z" />
    <glyph glyph-name="uni021B" unicode="&#x21b;" horiz-adv-x="403" 
d="M179 443v-297q0 -52 23 -80.5t66 -28.5q46 0 81 49l9 -3v-65q-42 -33 -98 -33q-22 0 -46 7t-45 24t-36 47t-15 74v306h-93v9l148 152h7v-107h181v-54h-182zM176 -227l-8 6q18 36 24.5 78t4.5 77h83q0 -18 -11.5 -46t-38 -61t-54.5 -54z" />
    <glyph glyph-name="circumflex" unicode="&#x2c6;" horiz-adv-x="396" 
d="M354 588l-17 -10l-140 76l-140 -76l-15 10l155 143z" />
    <glyph glyph-name="caron" unicode="&#x2c7;" horiz-adv-x="396" 
d="M42 742l17 10l140 -76l140 76l15 -10l-155 -143z" />
    <glyph glyph-name="breve" unicode="&#x2d8;" horiz-adv-x="395" 
d="M345 729l8 -8q-14 -37 -41 -68t-58 -43.5t-57 -12.5q-53 0 -94 35.5t-61 88.5l7 8q58 -74 148 -74q92 0 148 74z" />
    <glyph glyph-name="dotaccent" unicode="&#x2d9;" horiz-adv-x="191" 
d="M94 717q23 0 39 -15t16 -38t-16 -38t-39 -15q-21 0 -36.5 15.5t-15.5 37.5t15.5 37.5t36.5 15.5z" />
    <glyph glyph-name="ring" unicode="&#x2da;" horiz-adv-x="274" 
d="M137 757q18 0 40.5 -8.5t38.5 -31t16 -51.5q0 -19 -9.5 -40.5t-33 -36t-52.5 -14.5q-18 0 -40.5 8.5t-38.5 31t-16 51.5q0 19 9.5 40.5t33 36t52.5 14.5zM137 717q-22 0 -36 -14.5t-14 -36.5t14 -36.5t36 -14.5t36 14.5t14 36.5t-14 36.5t-36 14.5z" />
    <glyph glyph-name="ogonek" unicode="&#x2db;" horiz-adv-x="263" 
d="M133 0h88q-41 -13 -71 -32.5t-41 -39.5t-11 -36q0 -19 13.5 -32t32.5 -13q17 0 32 8.5t23 24.5h10v-60q-34 -29 -80 -29q-24 0 -46.5 13.5t-31.5 34t-9 39.5q0 36 24 68.5t67 53.5z" />
    <glyph glyph-name="tilde" unicode="&#x2dc;" horiz-adv-x="387" 
d="M332 699h13q0 -24 -9 -47t-30 -35.5t-45 -12.5q-27 0 -82.5 24t-76.5 24q-17 0 -29.5 -13t-17.5 -33h-13q0 23 9 45.5t30 36t45 13.5q27 0 82.5 -24t76.5 -24q18 0 30.5 13.5t16.5 32.5z" />
    <glyph glyph-name="hungarumlaut" unicode="&#x2dd;" horiz-adv-x="395" 
d="M59 570h-17l36 175h105zM229 570h-17l36 175h105z" />
    <glyph glyph-name="uni0326" unicode="&#x326;" horiz-adv-x="0" 
d="M71 -66h83q0 -18 -11.5 -46t-38 -61t-54.5 -54l-8 6q18 36 24.5 78t4.5 77z" />
    <glyph glyph-name="mu" unicode="&#x3bc;" horiz-adv-x="612" 
d="M508 53l77 -42v-11h-131l-5 65q-22 -33 -65.5 -57t-95.5 -24q-74 0 -121 38v-247h-76l8 515v154l-77 42v11h138v-305q0 -38 14 -74.5t49 -59t80 -22.5q67 0 105 39.5t38 116.5v252l-77 42v11h140z" />
    <glyph glyph-name="pi" unicode="&#x3c0;" horiz-adv-x="681" 
d="M642 446h-87v-446h-61v446h-225v-446h-61v446h-22q-44 0 -74.5 -19t-54.5 -55h-12q0 64 39.5 96t109.5 32h460z" />
    <glyph glyph-name="Wgrave" unicode="&#x1e80;" horiz-adv-x="996" 
d="M568 750l-204 155h116l105 -155h-17zM986 680v-11l-71 -50l-187 -638h-12l-221 532l-198 -532h-12l-210 644l-65 44v11h222v-11l-77 -42h-7l150 -483l200 555h3l220 -555l127 483h-4l-78 42v11h220z" />
    <glyph glyph-name="wgrave" unicode="&#x1e81;" horiz-adv-x="824" 
d="M465 570l-204 155h116l105 -155h-17zM807 497v-8l-72 -45l-153 -463h-11l-160 388l-163 -388h-14l-146 463l-71 45v8h216v-11l-77 -42h-1l97 -324l161 386h8l151 -373l94 312l-76 41v11h217z" />
    <glyph glyph-name="Wacute" unicode="&#x1e82;" horiz-adv-x="996" 
d="M478 750h-17l105 155h116zM986 680v-11l-71 -50l-187 -638h-12l-221 532l-198 -532h-12l-210 644l-65 44v11h222v-11l-77 -42h-7l150 -483l200 555h3l220 -555l127 483h-4l-78 42v11h220z" />
    <glyph glyph-name="wacute" unicode="&#x1e83;" horiz-adv-x="824" 
d="M375 570h-17l105 155h116zM807 497v-8l-72 -45l-153 -463h-11l-160 388l-163 -388h-14l-146 463l-71 45v8h216v-11l-77 -42h-1l97 -324l161 386h8l151 -373l94 312l-76 41v11h217z" />
    <glyph glyph-name="Wdieresis" unicode="&#x1e84;" horiz-adv-x="996" 
d="M421 784q-22 0 -38 15t-16 38t16 38t38 15t37.5 -15t15.5 -38t-15.5 -38t-37.5 -15zM616 784q-21 0 -36.5 15.5t-15.5 37.5t15.5 37.5t36.5 15.5q23 0 39 -15t16 -38t-16 -38t-39 -15zM986 680v-11l-71 -50l-187 -638h-12l-221 532l-198 -532h-12l-210 644l-65 44v11h222
v-11l-77 -42h-7l150 -483l200 555h3l220 -555l127 483h-4l-78 42v11h220z" />
    <glyph glyph-name="wdieresis" unicode="&#x1e85;" horiz-adv-x="824" 
d="M318 604q-22 0 -38 15t-16 38t16 38t38 15t37.5 -15t15.5 -38t-15.5 -38t-37.5 -15zM513 604q-21 0 -36.5 15.5t-15.5 37.5t15.5 37.5t36.5 15.5q23 0 39 -15t16 -38t-16 -38t-39 -15zM807 497v-8l-72 -45l-153 -463h-11l-160 388l-163 -388h-14l-146 463l-71 45v8h216
v-11l-77 -42h-1l97 -324l161 386h8l151 -373l94 312l-76 41v11h217z" />
    <glyph glyph-name="Ygrave" unicode="&#x1ef2;" horiz-adv-x="705" 
d="M403 750l-204 155h116l105 -155h-17zM680 680v-11l-64 -39l-227 -359v-210l89 -50v-11h-242v11l90 50v209l-220 347l-81 52v11h217v-11l-67 -37l187 -301l178 304l-63 34v11h203zM357 220l-2 -3l3 2z" />
    <glyph glyph-name="ygrave" unicode="&#x1ef3;" horiz-adv-x="612" 
d="M359 570l-204 155h116l105 -155h-17zM607 497v-8l-67 -45l-281 -627l74 -40v-12h-241v12l99 40l81 156l18 44l-205 424l-80 48v8h231v-11l-73 -40l157 -357l148 358l-72 39v11h211z" />
    <glyph glyph-name="endash" unicode="&#x2013;" horiz-adv-x="573" 
d="M528 260h-483v54h483v-54z" />
    <glyph glyph-name="emdash" unicode="&#x2014;" horiz-adv-x="778" 
d="M733 260h-688v54h688v-54z" />
    <glyph glyph-name="quoteleft" unicode="&#x2018;" horiz-adv-x="222" 
d="M125 482h-92q0 53 36 120t87 109h41q-18 -21 -36.5 -57t-28 -83.5t-7.5 -88.5z" />
    <glyph glyph-name="quoteright" unicode="&#x2019;" horiz-adv-x="222" 
d="M97 660h92q0 -53 -36 -120t-87 -109h-41q18 21 36.5 57t28 83.5t7.5 88.5z" />
    <glyph glyph-name="quotesinglbase" unicode="&#x201a;" horiz-adv-x="222" 
d="M97 84h92q0 -53 -36 -120t-87 -109h-41q18 21 36.5 57t28 83.5t7.5 88.5z" />
    <glyph glyph-name="quotedblleft" unicode="&#x201c;" horiz-adv-x="356" 
d="M135 482h-92q0 53 36 120t87 109h41q-18 -21 -36.5 -57t-28 -83.5t-7.5 -88.5zM309 482h-92q0 53 36 120t87 109h41q-18 -21 -36.5 -57t-28 -83.5t-7.5 -88.5z" />
    <glyph glyph-name="quotedblright" unicode="&#x201d;" horiz-adv-x="356" 
d="M47 660h92q0 -53 -36 -120t-87 -109h-41q18 21 36.5 57t28 83.5t7.5 88.5zM221 660h92q0 -53 -36 -120t-87 -109h-41q18 21 36.5 57t28 83.5t7.5 88.5z" />
    <glyph glyph-name="quotedblbase" unicode="&#x201e;" horiz-adv-x="374" 
d="M97 84h92q0 -53 -36 -120t-87 -109h-41q18 21 36.5 57t28 83.5t7.5 88.5zM249 84h92q0 -53 -36 -120t-87 -109h-41q18 21 36.5 57t28 83.5t7.5 88.5z" />
    <glyph glyph-name="dagger" unicode="&#x2020;" horiz-adv-x="527" 
d="M279 479l206 24v-80l-206 25l25 -191l-30 -492h-20l-30 492l24 191l-206 -25v80l206 -24l-24 201h80z" />
    <glyph glyph-name="daggerdbl" unicode="&#x2021;" horiz-adv-x="527" 
d="M279 479l206 24v-80l-206 25l25 -192l-25 -249l206 25v-80l-206 24l25 -211h-80l24 211l-206 -24v80l206 -25l-24 250l24 191l-206 -25v80l206 -24l-24 201h80z" />
    <glyph glyph-name="bullet" unicode="&#x2022;" horiz-adv-x="209" 
d="M104 401q19 0 34.5 -15.5t15.5 -35.5q0 -19 -15.5 -33.5t-34.5 -14.5q-20 0 -34.5 14.5t-14.5 33.5q0 20 14.5 35.5t34.5 15.5z" />
    <glyph glyph-name="ellipsis" unicode="&#x2026;" horiz-adv-x="609" 
d="M104 84q19 0 34.5 -15.5t15.5 -35.5q0 -19 -15.5 -33.5t-34.5 -14.5q-20 0 -34.5 14.5t-14.5 33.5q0 20 14.5 35.5t34.5 15.5zM304 84q19 0 34.5 -15.5t15.5 -35.5q0 -19 -15.5 -33.5t-34.5 -14.5q-20 0 -34.5 14.5t-14.5 33.5q0 20 14.5 35.5t34.5 15.5zM504 84
q19 0 34.5 -15.5t15.5 -35.5q0 -19 -15.5 -33.5t-34.5 -14.5q-20 0 -34.5 14.5t-14.5 33.5q0 20 14.5 35.5t34.5 15.5z" />
    <glyph glyph-name="perthousand" unicode="&#x2030;" horiz-adv-x="1041" 
d="M188 694h1q43 0 74.5 -27t48.5 -73t17 -95q0 -50 -17 -95.5t-48.5 -71.5t-75.5 -26q-26 0 -52 11.5t-47.5 39.5t-31.5 68.5t-10 73.5t9 69.5t26 64t44 44.5t62 17zM189 669h-1q-42 0 -64 -44.5t-22 -125.5q0 -41 11 -85t32 -64t46 -20q43 0 63.5 46.5t20.5 122.5
q0 38 -10 82.5t-30.5 66t-45.5 21.5zM587 693l-428 -727l-24 20l426 724zM534 374h1q26 0 52 -12t47.5 -41t31.5 -69t10 -71q0 -50 -17.5 -95.5t-49 -71.5t-75.5 -26q-43 0 -74.5 25.5t-48.5 70.5t-17 95q0 32 9.5 73t31.5 70t47.5 40.5t51.5 11.5zM535 350h-1
q-24 0 -44.5 -18t-31 -60.5t-10.5 -89.5q0 -42 11 -86t32 -64t46 -20q43 0 64 46t21 121q0 38 -8 74t-19 55.5t-26 30.5t-34 11zM851 374h1q26 0 52 -12t47.5 -41t31.5 -69t10 -71q0 -50 -17.5 -95.5t-49 -71.5t-75.5 -26t-75 25.5t-48 70.5t-17 95q0 52 17 97.5t48 71.5
t75 26zM852 350h-1q-42 0 -64 -44t-22 -124q0 -59 15.5 -101.5t35 -55.5t38.5 -13q20 0 39.5 13t32.5 52.5t13 101.5q0 38 -8 74t-19 55.5t-26 30.5t-34 11z" />
    <glyph glyph-name="guilsinglleft" unicode="&#x2039;" horiz-adv-x="321" 
d="M266 401l-142 -151l142 -151v-71l-211 222l211 222v-71z" />
    <glyph glyph-name="guilsinglright" unicode="&#x203a;" horiz-adv-x="321" 
d="M266 250l-211 -222v71l142 151l-142 151v71z" />
    <glyph glyph-name="fraction" unicode="&#x2044;" horiz-adv-x="505" 
d="M76 0h-56l409 695h56z" />
    <glyph glyph-name="Euro" unicode="&#x20ac;" 
d="M527 115v-68q-37 -30 -64 -43t-54 -16t-38 -3q-67 0 -119.5 31t-89.5 91t-51 146h-101l10 50h85l-1 37l1 36h-75l10 50h71q9 56 30 105t53.5 86t77.5 57.5t99 20.5q37 0 72.5 -10.5t73.5 -40.5v-78h-12q-34 35 -50 46.5t-39 17.5t-51 6q-46 0 -82.5 -24t-63 -70.5
t-37.5 -115.5h268l-10 -50h-264l-1 -36l1 -37h254l-10 -50h-238q14 -81 45.5 -127.5t66.5 -64t71 -17.5q39 0 74 12.5t78 58.5h10z" />
    <glyph glyph-name="afii61289" unicode="&#x2113;" horiz-adv-x="386" 
d="M351 101l16 -14q-53 -100 -151 -100q-63 0 -93 38q-16 22 -24 54.5t-8 87.5v90l-61 -48l-11 20l72 60v123q0 133 9.5 186t41.5 89q32 39 72 39q20 0 38.5 -13.5t30 -44.5t11.5 -70q0 -147 -144 -300v-98q0 -84 20.5 -127t71.5 -43q61 0 109 71zM150 473v-135
q33 40 58.5 91t35 94.5t9.5 73.5q0 44 -13 72.5t-36 28.5q-29 0 -41.5 -53t-12.5 -172z" />
    <glyph glyph-name="trademark" unicode="&#x2122;" horiz-adv-x="621" 
d="M272 635h-12l-36 24h-34v-161l33 -25v-10h-114v10l33 25v161h-34l-36 -24h-12v61h212v-61zM573 684l-36 -45l13 -141l31 -25v-10h-94v10l24 24l-10 98l-53 -66h-12l-52 66l-9 -98l24 -24v-10h-95v10l31 25l14 141l-37 45v12h53l78 -113l77 113h53v-12z" />
    <glyph glyph-name="uni2126" unicode="&#x2126;" horiz-adv-x="718" 
d="M683 127l-23 -127h-224l-5 17q2 3 5.5 9.5t36.5 59t54 101t32.5 94.5t10.5 94q0 57 -12.5 111.5t-40 95t-68 63.5t-91.5 23q-43 0 -81.5 -17t-67.5 -53t-45.5 -94t-16.5 -135q0 -20 2.5 -46.5t11.5 -60t22 -65t27 -57t27.5 -48t29 -46.5t18.5 -29l-7 -17h-222l-22 127
l20 2q11 -36 25 -57t50 -21h109q-88 82 -125.5 161.5t-37.5 162.5q0 71 22 130.5t61 101.5t91 64.5t111 22.5q60 0 112 -21t89.5 -61.5t58.5 -98.5t21 -129q0 -74 -36.5 -155t-127.5 -178h110q39 0 51 19t24 59z" />
    <glyph glyph-name="estimated" unicode="&#x212e;" horiz-adv-x="855" 
d="M821 330h-638q-2 0 -3.5 -1.5t-1.5 -3.5v-193q0 -11 8 -22q47 -49 110 -77t131 -28q73 0 140 32t114 86h57q-39 -46 -96 -79t-114.5 -45.5t-101.5 -12.5q-79 0 -151 27.5t-126.5 76t-85 113.5t-30.5 136t30.5 136t85 114t126.5 76.5t151 27.5t151.5 -27.5t127.5 -76.5
t85.5 -114t30.5 -136v-9zM676 355v194q0 14 -9 23q-47 46 -109.5 73t-130.5 27q-67 0 -130 -27.5t-110 -75.5q-3 -4 -6 -11.5t-3 -12.5v-190q2 -7 5 -7h489q3 0 4 7z" />
    <glyph glyph-name="partialdiff" unicode="&#x2202;" horiz-adv-x="510" 
d="M255 425h1q38 0 77.5 -20t63.5 -57q6 66 7 104q1 36 -6.5 80t-21.5 81q-10 25 -29 49t-48 43t-63 19q-68 0 -131 -52q-5 -1 -12.5 4.5t-12 19.5t0.5 24q27 18 62.5 30t72.5 12q123 0 195 -139q19 -38 32.5 -97.5t13.5 -130.5q0 -81 -14 -148t-32 -107
q-31 -70 -79.5 -111.5t-111.5 -41.5q-80 0 -128 54t-48 147q0 48 15.5 90.5t40.5 71.5q27 32 69.5 53.5t85.5 21.5zM271 390h-1q-72 0 -117 -59q-22 -32 -33.5 -77t-11.5 -95q0 -27 9.5 -60t36 -59t64.5 -26q20 0 43.5 10.5t45 36.5t35.5 58q15 32 26.5 70.5t22.5 120.5
q-8 18 -29.5 39t-46 31t-44.5 10z" />
    <glyph glyph-name="uni2206" unicode="&#x2206;" horiz-adv-x="614" 
d="M578 0h-544v18l255 667l28 9l261 -676v-18zM500 38l-212 558l-208 -558h420z" />
    <glyph glyph-name="product" unicode="&#x220f;" horiz-adv-x="655" 
d="M627 684v-21q-50 -4 -66 -9.5t-19 -17.5t-3 -30v-603q0 -32 6.5 -44t23.5 -17t56 -7v-21h-232v21q49 3 64.5 9t18.5 20.5t3 37.5v624q0 15 -4.5 22.5t-29.5 7.5h-236q-16 0 -24 -3t-8 -23v-628q0 -33 4.5 -43.5t20 -15.5t53.5 -8v-21h-224v21q45 3 61.5 9t20 21t3.5 37
v604q0 27 -6.5 36.5t-23.5 13.5t-58 7v21h599z" />
    <glyph glyph-name="summation" unicode="&#x2211;" horiz-adv-x="537" 
d="M512 82l-40 -170h-443v19l225 359l-220 375v19h438l12 -151l-22 -4q-11 68 -30 99q-9 16 -29 22.5t-73 6.5h-215l195 -329l-222 -360h268q48 0 68 7.5t33.5 32t32.5 80.5z" />
    <glyph glyph-name="minus" unicode="&#x2212;" horiz-adv-x="487" 
d="M446 264h-405v50h405v-50z" />
    <glyph glyph-name="radical" unicode="&#x221a;" horiz-adv-x="534" 
d="M513 887l-158 -1023l-15 -10l-217 548l-85 -42l-10 28l137 67l178 -462h2l136 903z" />
    <glyph glyph-name="infinity" unicode="&#x221e;" horiz-adv-x="833" 
d="M614 440q35 0 67.5 -13t57 -36.5t38.5 -56t14 -70.5q0 -28 -9.5 -58.5t-31.5 -56.5t-57 -43.5t-79 -17.5q-49 0 -103.5 30.5t-94.5 93.5q-39 -63 -93.5 -93.5t-103.5 -30.5q-26 0 -55.5 8.5t-56.5 29.5t-46 56t-19 82q0 38 14 70.5t38.5 56t57 36.5t67.5 13
q49 0 103.5 -31t93.5 -94q40 63 94.5 94t103.5 31zM229 381q-51 0 -84 -31t-33 -86q0 -56 33 -86.5t84 -30.5q21 0 48.5 11t57 39.5t53.5 66.5q-24 38 -53.5 66.5t-57 39.5t-48.5 11zM603 381q-21 0 -48.5 -11t-56.5 -39.5t-54 -66.5q25 -38 54 -66.5t56.5 -39.5t48.5 -11
q51 0 84 30.5t33 86.5q0 55 -33 86t-84 31z" />
    <glyph glyph-name="integral" unicode="&#x222b;" horiz-adv-x="349" 
d="M158 28l-19 414q-9 199 23 299t113 100q18 0 34 -10.5t17 -28.5q0 -16 -10.5 -25t-23.5 -9q-14 0 -24.5 15.5t-16 18t-8.5 2.5q-15 0 -27.5 -18.5t-18.5 -57t-3 -99.5l17 -389q6 -131 -3.5 -226t-40 -148.5t-90.5 -53.5q-23 0 -37.5 12t-14.5 28q-1 15 11 26t29 11
q12 0 23.5 -19t22.5 -19q25 0 38 50.5t9 126.5z" />
    <glyph glyph-name="approxequal" unicode="&#x2248;" horiz-adv-x="524" 
d="M468 428l14 -4q-20 -115 -126 -115q-36 0 -89.5 24.5t-72 28t-26.5 3.5q-30 0 -61 -24.5t-51 -56.5l-14 4q1 25 14.5 56.5t44.5 55t67 23.5t89.5 -24.5t72 -28t26.5 -3.5q33 -1 63.5 16t48.5 45zM468 248l14 -4q-20 -115 -126 -115q-36 0 -89.5 24.5t-72 28t-26.5 3.5
q-30 0 -61 -24.5t-51 -56.5l-14 4q1 25 14.5 56.5t44.5 55t67 23.5t89.5 -24.5t72 -28t26.5 -3.5q33 -1 63.5 16t48.5 45z" />
    <glyph glyph-name="notequal" unicode="&#x2260;" horiz-adv-x="492" 
d="M369 375h77v-50h-110l-68 -103h178v-50h-211l-83 -126h-76l83 126h-118v50h151l68 103h-219v50h252l82 125h76z" />
    <glyph glyph-name="lessequal" unicode="&#x2264;" horiz-adv-x="493" 
d="M422 536l-295 -156l295 -156v-69l-381 221v8l381 221v-69zM422 54v-52h-381v52h381z" />
    <glyph glyph-name="greaterequal" unicode="&#x2265;" horiz-adv-x="493" 
d="M452 384v-8l-381 -221v69l295 156l-295 156v69zM452 2h-381v52h381v-52z" />
    <glyph glyph-name="lozenge" unicode="&#x25ca;" horiz-adv-x="541" 
d="M492 331l-197 -399h-49l-197 399l198 401h48zM442 331l-169 351h-3l-172 -350l172 -351h3z" />
    <glyph glyph-name="a.salt" horiz-adv-x="654" 
d="M550 53l77 -42v-11h-138v75q-81 -90 -191 -90q-53 0 -100 20.5t-82 57t-54.5 84.5t-19.5 101t19.5 101.5t54.5 85.5t82.5 57.5t99.5 20.5q108 0 191 -90v2l44 88h17v-460zM298 43q31 0 64 10.5t61 36t47 66t19 93.5q0 42 -13.5 80t-39 66t-61 44t-77.5 16
q-31 0 -64 -10.5t-61 -36t-47 -66t-19 -93.5q0 -42 13.5 -80t39 -66t61 -44t77.5 -16z" />
    <glyph glyph-name="glyph249" horiz-adv-x="654" 
d="M462 722l-204 -155h-17l105 155h116zM550 53l77 -42v-11h-138v75q-81 -90 -191 -90q-53 0 -100 20.5t-82 57t-54.5 84.5t-19.5 101t19.5 101.5t54.5 85.5t82.5 57.5t99.5 20.5q108 0 191 -90v2l44 88h17v-460zM298 43q31 0 64 10.5t61 36t47 66t19 93.5q0 42 -13.5 80
t-39 66t-61 44t-77.5 16q-31 0 -64 -10.5t-61 -36t-47 -66t-19 -93.5q0 -42 13.5 -80t39 -66t61 -44t77.5 -16z" />
    <glyph glyph-name="glyph250" horiz-adv-x="654" 
d="M299 594q-53 0 -94 35.5t-61 88.5l7 8q58 -74 148 -74q92 0 148 74l8 -8q-14 -37 -41 -68t-58 -43.5t-57 -12.5zM550 53l77 -42v-11h-138v75q-81 -90 -191 -90q-53 0 -100 20.5t-82 57t-54.5 84.5t-19.5 101t19.5 101.5t54.5 85.5t82.5 57.5t99.5 20.5q108 0 191 -90v2
l44 88h17v-460zM298 43q31 0 64 10.5t61 36t47 66t19 93.5q0 42 -13.5 80t-39 66t-61 44t-77.5 16q-31 0 -64 -10.5t-61 -36t-47 -66t-19 -93.5q0 -42 13.5 -80t39 -66t61 -44t77.5 -16z" />
    <glyph glyph-name="glyph251" horiz-adv-x="654" 
d="M299 634l-140 -76l-15 10l155 143l157 -143l-17 -10zM550 53l77 -42v-11h-138v75q-81 -90 -191 -90q-53 0 -100 20.5t-82 57t-54.5 84.5t-19.5 101t19.5 101.5t54.5 85.5t82.5 57.5t99.5 20.5q108 0 191 -90v2l44 88h17v-460zM298 43q31 0 64 10.5t61 36t47 66t19 93.5
q0 42 -13.5 80t-39 66t-61 44t-77.5 16q-31 0 -64 -10.5t-61 -36t-47 -66t-19 -93.5q0 -42 13.5 -80t39 -66t61 -44t77.5 -16z" />
    <glyph glyph-name="glyph252" horiz-adv-x="654" 
d="M201 601q-22 0 -38 15t-16 38t16 38t38 15t37.5 -15t15.5 -38t-15.5 -38t-37.5 -15zM396 601q-21 0 -36.5 15.5t-15.5 37.5t15.5 37.5t36.5 15.5q23 0 39 -15t16 -38t-16 -38t-39 -15zM550 53l77 -42v-11h-138v75q-81 -90 -191 -90q-53 0 -100 20.5t-82 57t-54.5 84.5
t-19.5 101t19.5 101.5t54.5 85.5t82.5 57.5t99.5 20.5q108 0 191 -90v2l44 88h17v-460zM298 43q31 0 64 10.5t61 36t47 66t19 93.5q0 42 -13.5 80t-39 66t-61 44t-77.5 16q-31 0 -64 -10.5t-61 -36t-47 -66t-19 -93.5q0 -42 13.5 -80t39 -66t61 -44t77.5 -16z" />
    <glyph glyph-name="glyph253" horiz-adv-x="654" 
d="M365 567h-17l-204 155h116zM550 53l77 -42v-11h-138v75q-81 -90 -191 -90q-53 0 -100 20.5t-82 57t-54.5 84.5t-19.5 101t19.5 101.5t54.5 85.5t82.5 57.5t99.5 20.5q108 0 191 -90v2l44 88h17v-460zM298 43q31 0 64 10.5t61 36t47 66t19 93.5q0 42 -13.5 80t-39 66
t-61 44t-77.5 16q-31 0 -64 -10.5t-61 -36t-47 -66t-19 -93.5q0 -42 13.5 -80t39 -66t61 -44t77.5 -16z" />
    <glyph glyph-name="glyph254" horiz-adv-x="654" 
d="M460 662v-53h-323v53h323zM550 53l77 -42v-11h-138v75q-81 -90 -191 -90q-53 0 -100 20.5t-82 57t-54.5 84.5t-19.5 101t19.5 101.5t54.5 85.5t82.5 57.5t99.5 20.5q108 0 191 -90v2l44 88h17v-460zM298 43q31 0 64 10.5t61 36t47 66t19 93.5q0 42 -13.5 80t-39 66
t-61 44t-77.5 16q-31 0 -64 -10.5t-61 -36t-47 -66t-19 -93.5q0 -42 13.5 -80t39 -66t61 -44t77.5 -16z" />
    <glyph glyph-name="glyph255" horiz-adv-x="654" 
d="M550 53l77 -42v-11h-1q-41 -13 -71 -32.5t-41 -39.5t-11 -36q0 -19 13.5 -32t32.5 -13q17 0 32 8.5t23 24.5h10v-60q-34 -29 -80 -29q-24 0 -46.5 13.5t-31.5 34t-9 39.5q0 36 24 68.5t67 53.5h-49v75q-81 -90 -191 -90q-53 0 -100 20.5t-82 57t-54.5 84.5t-19.5 101
t19.5 101.5t54.5 85.5t82.5 57.5t99.5 20.5q108 0 191 -90v2l44 88h17v-460zM298 43q31 0 64 10.5t61 36t47 66t19 93.5q0 42 -13.5 80t-39 66t-61 44t-77.5 16q-31 0 -64 -10.5t-61 -36t-47 -66t-19 -93.5q0 -42 13.5 -80t39 -66t61 -44t77.5 -16z" />
    <glyph glyph-name="glyph256" horiz-adv-x="654" 
d="M299 575q-18 0 -40.5 8.5t-38.5 31t-16 51.5q0 19 9.5 40.5t33 36t52.5 14.5q18 0 40.5 -8.5t38.5 -31t16 -51.5q0 -19 -9.5 -40.5t-33 -36t-52.5 -14.5zM299 717q-22 0 -36 -14.5t-14 -36.5t14 -36.5t36 -14.5t36 14.5t14 36.5t-14 36.5t-36 14.5zM550 53l77 -42v-11
h-138v75q-81 -90 -191 -90q-53 0 -100 20.5t-82 57t-54.5 84.5t-19.5 101t19.5 101.5t54.5 85.5t82.5 57.5t99.5 20.5q108 0 191 -90v2l44 88h17v-460zM298 43q31 0 64 10.5t61 36t47 66t19 93.5q0 42 -13.5 80t-39 66t-61 44t-77.5 16q-31 0 -64 -10.5t-61 -36t-47 -66
t-19 -93.5q0 -42 13.5 -80t39 -66t61 -44t77.5 -16z" />
    <glyph glyph-name="glyph257" horiz-adv-x="654" 
d="M422 894l-204 -155h-17l105 155h116zM204 636q0 19 9.5 40.5t33 36t52.5 14.5q18 0 40.5 -8.5t38.5 -31t16 -51.5q0 -19 -9.5 -40.5t-33 -36t-52.5 -14.5q-18 0 -40.5 8.5t-38.5 31t-16 51.5zM349 636q0 22 -14 36.5t-36 14.5t-36 -14.5t-14 -36.5t14 -36.5t36 -14.5
t36 14.5t14 36.5zM550 53l77 -42v-11h-138v75q-81 -90 -191 -90q-53 0 -100 20.5t-82 57t-54.5 84.5t-19.5 101t19.5 101.5t54.5 85.5t82.5 57.5t99.5 20.5q108 0 191 -90v2l44 88h17v-460zM298 43q31 0 64 10.5t61 36t47 66t19 93.5q0 42 -13.5 80t-39 66t-61 44t-77.5 16
q-31 0 -64 -10.5t-61 -36t-47 -66t-19 -93.5q0 -42 13.5 -80t39 -66t61 -44t77.5 -16z" />
    <glyph glyph-name="glyph258" horiz-adv-x="654" 
d="M161 606h-13q0 23 9 45.5t30 36t45 13.5q27 0 82.5 -24t76.5 -24q18 0 30.5 13.5t16.5 32.5h13q0 -24 -9 -47t-30 -35.5t-45 -12.5q-27 0 -82.5 24t-76.5 24q-17 0 -29.5 -13t-17.5 -33zM550 53l77 -42v-11h-138v75q-81 -90 -191 -90q-53 0 -100 20.5t-82 57t-54.5 84.5
t-19.5 101t19.5 101.5t54.5 85.5t82.5 57.5t99.5 20.5q108 0 191 -90v2l44 88h17v-460zM298 43q31 0 64 10.5t61 36t47 66t19 93.5q0 42 -13.5 80t-39 66t-61 44t-77.5 16q-31 0 -64 -10.5t-61 -36t-47 -66t-19 -93.5q0 -42 13.5 -80t39 -66t61 -44t77.5 -16z" />
    <glyph glyph-name="g.salt" horiz-adv-x="579" 
d="M547 439h-122q14 -21 23 -50t9 -58q0 -81 -52 -132t-133 -51h-36q-43 0 -69 -16.5t-26 -41.5q0 -27 25 -43.5t70 -16.5h76q37 0 77.5 -7.5t73 -23t52.5 -41.5t20 -61q0 -27 -12.5 -54t-42.5 -47.5t-79 -33t-118 -12.5q-55 0 -101 7.5t-79.5 24t-52 43.5t-18.5 64
q0 29 13 49t36.5 34.5t77.5 29.5q-26 8 -42 25.5t-19 33t-3 21.5q0 27 21.5 51t59.5 39q-41 23 -66 65t-25 94q0 30 9 61.5t31.5 58t59.5 44t87 17.5q45 0 84 -17h201zM271 209q40 0 72.5 20.5t45 49.5t12.5 54q0 54 -33 88.5t-97 34.5t-97.5 -34.5t-33.5 -88.5
q0 -53 38 -88.5t93 -35.5zM313 -26h-62q-70 0 -115.5 -20t-45.5 -62q0 -87 193 -87q92 0 142.5 24.5t50.5 69.5q0 38 -36.5 56.5t-126.5 18.5z" />
    <glyph glyph-name="glyph260" horiz-adv-x="579" 
d="M275 594q-53 0 -94 35.5t-61 88.5l7 8q58 -74 148 -74q92 0 148 74l8 -8q-14 -37 -41 -68t-58 -43.5t-57 -12.5zM547 439h-122q14 -21 23 -50t9 -58q0 -81 -52 -132t-133 -51h-36q-43 0 -69 -16.5t-26 -41.5q0 -27 25 -43.5t70 -16.5h76q37 0 77.5 -7.5t73 -23
t52.5 -41.5t20 -61q0 -27 -12.5 -54t-42.5 -47.5t-79 -33t-118 -12.5q-55 0 -101 7.5t-79.5 24t-52 43.5t-18.5 64q0 29 13 49t36.5 34.5t77.5 29.5q-26 8 -42 25.5t-19 33t-3 21.5q0 27 21.5 51t59.5 39q-41 23 -66 65t-25 94q0 30 9 61.5t31.5 58t59.5 44t87 17.5
q45 0 84 -17h201zM271 209q40 0 72.5 20.5t45 49.5t12.5 54q0 54 -33 88.5t-97 34.5t-97.5 -34.5t-33.5 -88.5q0 -53 38 -88.5t93 -35.5zM313 -26h-62q-70 0 -115.5 -20t-45.5 -62q0 -87 193 -87q92 0 142.5 24.5t50.5 69.5q0 38 -36.5 56.5t-126.5 18.5z" />
    <glyph glyph-name="glyph261" horiz-adv-x="579" 
d="M250 584l-8 6q18 36 24.5 78t4.5 77h83q0 -18 -11.5 -46t-38 -61t-54.5 -54zM547 439h-122q14 -21 23 -50t9 -58q0 -81 -52 -132t-133 -51h-36q-43 0 -69 -16.5t-26 -41.5q0 -27 25 -43.5t70 -16.5h76q37 0 77.5 -7.5t73 -23t52.5 -41.5t20 -61q0 -27 -12.5 -54
t-42.5 -47.5t-79 -33t-118 -12.5q-55 0 -101 7.5t-79.5 24t-52 43.5t-18.5 64q0 29 13 49t36.5 34.5t77.5 29.5q-26 8 -42 25.5t-19 33t-3 21.5q0 27 21.5 51t59.5 39q-41 23 -66 65t-25 94q0 30 9 61.5t31.5 58t59.5 44t87 17.5q45 0 84 -17h201zM271 209q40 0 72.5 20.5
t45 49.5t12.5 54q0 54 -33 88.5t-97 34.5t-97.5 -34.5t-33.5 -88.5q0 -53 38 -88.5t93 -35.5zM313 -26h-62q-70 0 -115.5 -20t-45.5 -62q0 -87 193 -87q92 0 142.5 24.5t50.5 69.5q0 38 -36.5 56.5t-126.5 18.5z" />
    <glyph glyph-name="glyph262" horiz-adv-x="579" 
d="M273 611q-21 0 -36.5 15.5t-15.5 37.5t15.5 37.5t36.5 15.5q23 0 39 -15t16 -38t-16 -38t-39 -15zM547 439h-122q14 -21 23 -50t9 -58q0 -81 -52 -132t-133 -51h-36q-43 0 -69 -16.5t-26 -41.5q0 -27 25 -43.5t70 -16.5h76q37 0 77.5 -7.5t73 -23t52.5 -41.5t20 -61
q0 -27 -12.5 -54t-42.5 -47.5t-79 -33t-118 -12.5q-55 0 -101 7.5t-79.5 24t-52 43.5t-18.5 64q0 29 13 49t36.5 34.5t77.5 29.5q-26 8 -42 25.5t-19 33t-3 21.5q0 27 21.5 51t59.5 39q-41 23 -66 65t-25 94q0 30 9 61.5t31.5 58t59.5 44t87 17.5q45 0 84 -17h201zM271 209
q40 0 72.5 20.5t45 49.5t12.5 54q0 54 -33 88.5t-97 34.5t-97.5 -34.5t-33.5 -88.5q0 -53 38 -88.5t93 -35.5zM313 -26h-62q-70 0 -115.5 -20t-45.5 -62q0 -87 193 -87q92 0 142.5 24.5t50.5 69.5q0 38 -36.5 56.5t-126.5 18.5z" />
    <glyph glyph-name="A.c2sc" horiz-adv-x="562" 
d="M499 50l58 -42v-8h-195v11l73 39l-50 122h-211l-48 -120l76 -41v-11h-197v8l59 43l213 485h9zM193 219h172l-87 210z" />
    <glyph glyph-name="B.aalt" horiz-adv-x="529" 
d="M371 273q28 -5 55.5 -24.5t40 -45.5t12.5 -52q0 -37 -20.5 -73.5t-63.5 -57t-95 -20.5h-250v11l78 42v418l-78 42v11h246q29 0 67 -11t66 -44t28 -86q0 -19 -9.5 -42t-32 -42.5t-44.5 -25.5zM186 476v-179h99q24 0 50.5 9.5t43 31.5t16.5 47q0 39 -27.5 65t-82.5 26h-99z
M186 47h108q25 0 54.5 9.5t49.5 35t20 58.5q0 46 -39 73t-94 27h-99v-203z" />
    <glyph glyph-name="C.aalt" horiz-adv-x="608" 
d="M523 386h-10q-27 46 -79.5 73t-118.5 27q-48 0 -87.5 -16.5t-67.5 -46.5t-43 -71.5t-15 -89.5q0 -36 10 -74.5t38 -75.5t72.5 -55.5t92.5 -18.5q66 0 118.5 27t79.5 73h10v-150h-9l-50 44q-68 -44 -145 -44q-61 0 -113 21t-88.5 59t-56.5 88.5t-20 105.5t20 105.5
t56.5 88t88.5 58.5t113 21q80 0 146 -43l49 43h9v-149z" />
    <glyph glyph-name="D.aalt" horiz-adv-x="612" 
d="M50 524h221q65 0 119.5 -19t92.5 -54t58.5 -83.5t20.5 -105.5q0 -55 -20.5 -103.5t-58.5 -84t-92.5 -55t-119.5 -19.5h-221v11l78 42v418l-78 42v11zM186 48h75q52 0 96.5 15t75.5 43t48 68t17 88q0 49 -17 89.5t-48 68t-75 42t-97 14.5h-75v-428z" />
    <glyph glyph-name="E.aalt" horiz-adv-x="489" 
d="M429 111v-111h-379v11l78 42v418l-78 42v11h370v-81h-7l-40 35h-187v-186h157l33 29h6v-104h-6l-33 28h-157v-199h191l44 65h8z" />
    <glyph glyph-name="F.aalt" horiz-adv-x="486" 
d="M50 524h396v-81h-8l-39 35h-213v-193h170l33 29h6v-105h-6l-33 28h-170v-184l77 -42v-11h-213v11l78 42v418l-78 42v11z" />
    <glyph glyph-name="G.aalt" horiz-adv-x="623" 
d="M583 253v-9l-56 -36v-220h-8l-47 54q-76 -54 -157 -54q-59 0 -110 21.5t-87.5 59t-56.5 88t-20 105.5t20 105.5t56.5 88t87.5 58.5t110 21q81 0 144 -41l38 41h9v-155h-9q-28 48 -73.5 76.5t-108.5 29.5q-48 0 -87.5 -16.5t-67.5 -46.5t-43 -71.5t-15 -89.5
q0 -36 10 -74.5t38 -75.5t72.5 -55.5t92.5 -18.5q84 0 156 65l-1 105l-72 36v9h185z" />
    <glyph glyph-name="H.aalt" horiz-adv-x="658" 
d="M608 513l-76 -41v-420l76 -41v-11h-212v11l78 42v188h-288v-188l77 -42v-11h-213v11l78 42v418l-78 42v11h213v-11l-77 -42v-183h288v183l-78 42v11h212v-11z" />
    <glyph glyph-name="I.aalt" horiz-adv-x="313" 
d="M263 513l-77 -42v-418l77 -42v-11h-213v11l78 42v418l-78 42v11h213v-11z" />
    <glyph glyph-name="J.aalt" horiz-adv-x="429" 
d="M394 524v-11l-77 -42h-1v-319q0 -74 -44.5 -119t-117.5 -45q-29 0 -64 12.5t-70 42.5v102h9q24 -50 55 -78.5t70 -28.5q53 0 78.5 36t25.5 89v308l-78 42v11h214z" />
    <glyph glyph-name="K.aalt" horiz-adv-x="602" 
d="M514 39l58 -31v-8h-203v11l59 32l-242 226v-216l77 -42v-11h-213v11l78 42v418l-78 42v11h213v-11l-77 -42v-200l224 209l-61 33v11h205v-9l-62 -31l-236 -211z" />
    <glyph glyph-name="L.aalt" horiz-adv-x="489" 
d="M439 112v-112h-389v11l78 42v418l-78 42v11h213v-11l-77 -42v-424h201l44 65h8z" />
    <glyph glyph-name="M.aalt" horiz-adv-x="755" 
d="M629 52l76 -41v-11h-213v11l78 42h6l-14 350l-178 -278h-11l-177 278l-15 -353l72 -39v-11h-203v11l77 41l15 419l-79 46v7h116l199 -316l204 316h113v-7l-81 -46z" />
    <glyph glyph-name="N.aalt" horiz-adv-x="675" 
d="M419 524h216v-11l-77 -42v-483h-7l-362 437v-372l77 -42v-11h-216v11l78 42v418l-78 48v5h133l314 -385v332l-78 42v11z" />
    <glyph glyph-name="O.c2sc" horiz-adv-x="653" 
d="M326 535q58 0 109 -20.5t88.5 -57t58.5 -87.5t21 -108q0 -56 -21 -107t-58.5 -88t-88.5 -58t-109 -21t-109 21t-88.5 58t-58 88t-20.5 107q0 57 20.5 108t58 87.5t88.5 57t109 20.5zM326 485q-45 0 -85 -17t-69 -48t-45 -72t-16 -86q0 -44 16 -85t45 -72.5t69 -49
t85 -17.5t85 17.5t69 49t45 72.5t16 85q0 46 -16 87t-45 71.5t-69 47.5t-85 17z" />
    <glyph glyph-name="P.aalt" horiz-adv-x="523" 
d="M50 524h242q56 0 97.5 -19.5t67 -56t25.5 -85.5q0 -33 -12 -63t-35.5 -53t-60 -36t-82.5 -13h-106v-150l67 -37v-11h-203v11l78 42v418l-78 42v11zM186 246h98q66 0 100.5 33t34.5 81t-34.5 82t-100.5 34h-98v-230z" />
    <glyph glyph-name="Q.aalt" horiz-adv-x="635" 
d="M502 -12l43 -34v-9h-77l-50 60q-48 -17 -101 -17q-58 0 -109 21t-88.5 58t-58 88t-20.5 107q0 57 20.5 108t58 87.5t88.5 57t109 20.5t109 -20.5t88.5 -57t58.5 -87.5t21 -108q0 -54 -20 -104t-50.5 -81.5t-57.5 -48.5zM102 262q0 -44 16 -85t45 -72.5t69 -49t85 -17.5
t85 17.5t69 49t45 72.5t16 85q0 46 -16 87t-45 71.5t-69 47.5t-85 17t-85 -17t-69 -48t-45 -72t-16 -86z" />
    <glyph glyph-name="R.aalt" horiz-adv-x="584" 
d="M549 8v-8h-119l-220 262v15h71q56 0 89.5 25.5t33.5 74.5q0 48 -34 73.5t-89 25.5h-95v-424l74 -41v-11h-210v11l78 42v418l-78 42v11h256q68 0 114.5 -41.5t46.5 -106.5q0 -48 -28 -83.5t-65.5 -49t-65.5 -14.5l166 -177z" />
    <glyph glyph-name="S.aalt" horiz-adv-x="429" 
d="M356 418h-9q-27 35 -55 51.5t-70 16.5q-44 0 -70.5 -24.5t-26.5 -62.5q0 -33 23 -57.5t78 -51.5q60 -28 90.5 -49.5t46.5 -48t16 -64.5q0 -27 -10.5 -52t-31.5 -45t-52.5 -31.5t-71.5 -11.5q-85 0 -163 70v71h8q47 -51 80.5 -71t76.5 -20q52 0 79 24t27 65q0 31 -24.5 60
t-122.5 74q-69 32 -88.5 65.5t-19.5 71.5q0 26 15.5 57.5t55.5 55.5t85 24q36 0 68 -9t65 -37z" />
    <glyph glyph-name="T.aalt" horiz-adv-x="489" 
d="M449 524v-107h-11l-40 59h-120v-427l69 -38v-11h-197v11l70 39v426h-120l-40 -59h-10v107h399z" />
    <glyph glyph-name="U.aalt" horiz-adv-x="651" 
d="M616 524v-11l-77 -42v-272q0 -35 -11 -72t-41 -71.5t-74.5 -51t-88.5 -16.5t-83 14.5t-67.5 42t-44.5 67t-16 87.5v272l-78 42v11h214v-11l-77 -42v-276q0 -70 41.5 -113.5t110.5 -43.5t113 41t44 111v281l-78 42v11h213z" />
    <glyph glyph-name="V.aalt" horiz-adv-x="561" 
d="M551 524v-9l-55 -39l-210 -490h-9l-210 489l-57 40v9h194v-11l-69 -38l150 -373l146 373l-70 38v11h190z" />
    <glyph glyph-name="W.aalt" horiz-adv-x="782" 
d="M772 524v-9l-55 -38l-149 -492h-9l-171 410l-152 -410h-9l-167 496l-50 34v9h189v-11l-71 -39l109 -358l154 422h2l169 -422l92 360l-70 37v11h188z" />
    <glyph glyph-name="X.aalt" horiz-adv-x="601" 
d="M501 50l70 -42v-8h-207v11l72 39l-139 176l-131 -176l72 -39v-11h-208v8l78 51l161 203l-162 208l-74 45v9h210v-11l-74 -40l129 -170l130 174l-67 36v11h205v-9l-77 -43l-161 -205z" />
    <glyph glyph-name="Y.aalt" horiz-adv-x="564" 
d="M529 524v-9l-49 -30l-165 -255v-181l68 -38v-11h-196v11l69 39v180l-159 245l-62 40v9h191v-11l-64 -35l127 -203l120 205l-61 33v11h181zM286 185l-2 -3z" />
    <glyph glyph-name="Z.aalt" horiz-adv-x="512" 
d="M432 123h8v-123h-386l-4 8l319 468h-245l-44 -66h-7v114h385l4 -8l-317 -468h234z" />
    <glyph glyph-name="zero.aalt" horiz-adv-x="646" 
d="M323 562q59 0 111.5 -23t90.5 -63t58.5 -93t20.5 -109q0 -57 -20.5 -109.5t-58.5 -93t-90.5 -63.5t-111.5 -23q-60 0 -112 23t-90 63t-58.5 93t-20.5 110q0 56 20.5 109t58.5 93t90.5 63t111.5 23zM323 504q-36 0 -74 -12t-69.5 -41t-52 -74t-20.5 -103q0 -46 15 -88.5
t43 -74.5t68.5 -50t89.5 -18t89.5 18t68.5 50t43 74.5t15 88.5t-15 88t-43 74t-68.5 50t-89.5 18z" />
    <glyph glyph-name="one.aalt" horiz-adv-x="391" 
d="M231 53l110 -44v-9h-291v9l120 44v406l-120 22v9l171 53h10v-490z" />
    <glyph glyph-name="two.aalt" horiz-adv-x="545" 
d="M251 562q58 0 101 -24t65.5 -60.5t22.5 -82.5q0 -18 -4.5 -39.5t-20 -48t-43.5 -57t-62 -62t-86.5 -79t-59.5 -53.5h241l50 64h10v-120h-415v16q90 90 248 237q42 39 59.5 68.5t17.5 68.5q0 31 -16.5 55t-47 40.5t-63.5 16.5q-39 0 -78.5 -19t-83.5 -75h-10v79
q39 39 85 57t90 18z" />
    <glyph glyph-name="three.aalt" horiz-adv-x="537" 
d="M233 565q41 0 79 -11.5t67.5 -34.5t46.5 -58t17 -79q0 -42 -19 -75t-44.5 -53.5t-48.5 -34.5q48 -15 87 -60.5t39 -107.5q0 -32 -11 -66.5t-38 -63.5t-71 -48.5t-104 -19.5q-41 0 -82.5 13t-95.5 53v91h12q48 -64 88.5 -81.5t87.5 -17.5q26 0 61 11t61.5 43.5t26.5 82.5
q0 25 -8.5 50t-31 46.5t-56 31.5t-63.5 10h-66v58h66q28 0 61.5 12.5t58.5 44t25 74.5q0 55 -42 93.5t-103 38.5q-87 0 -148 -77h-12v84q37 26 75.5 38.5t84.5 12.5z" />
    <glyph glyph-name="four.aalt" horiz-adv-x="569" 
d="M515 64h-105v-140l77 -42v-11h-216v11l78 42v140h-309v12l358 490h11v-2l1 2v-446h118zM140 120h209v287z" />
    <glyph glyph-name="five.aalt" horiz-adv-x="557" 
d="M469 494h-276l-22 -225q55 18 72 21t31 3q49 0 91 -13.5t73.5 -40.5t49 -68.5t17.5 -95.5q0 -36 -11.5 -74.5t-43.5 -75t-79.5 -54.5t-95.5 -18q-27 0 -57 6t-62 23.5t-71 54.5v91h12q42 -58 67.5 -78t53.5 -29.5t64 -9.5q31 0 60 11.5t51 33t34.5 52t12.5 66.5t-11 63
t-28.5 47t-48.5 35.5t-70 15.5t-78.5 -12.5t-85.5 -49.5l-11 5l37 372h333z" />
    <glyph glyph-name="six.aalt" horiz-adv-x="574" 
d="M443 680l-227 -256q14 10 33.5 16t61.5 6t81.5 -18t69.5 -49.5t47 -72.5t17 -84q0 -35 -12.5 -75t-46.5 -81t-81.5 -62.5t-92.5 -21.5q-51 0 -94.5 18.5t-74.5 51t-47.5 75.5t-16.5 91q0 45 22 97t123 176l153 189h85zM293 387q-46 0 -83 -21t-61 -60.5t-24 -91.5
q0 -42 20.5 -84t61 -65.5t86.5 -23.5q37 0 76 17.5t65.5 60.5t26.5 95t-24 91.5t-61 60.5t-83 21z" />
    <glyph glyph-name="seven.aalt" horiz-adv-x="531" 
d="M506 537l-370 -669h-73l351 623h-304l-51 -64h-9v120h456v-10z" />
    <glyph glyph-name="eight.aalt" horiz-adv-x="566" 
d="M283 695q42 0 79 -14.5t63.5 -39.5t40.5 -58t14 -69q0 -40 -16 -71t-43.5 -53.5t-58.5 -34.5q48 -15 82.5 -47t45.5 -65t11 -62q0 -30 -11.5 -63.5t-38.5 -62.5t-70 -49.5t-98 -20.5q-33 0 -69.5 10t-73.5 37t-56 67.5t-19 81.5q0 29 11 62t45 65t82 47
q-31 12 -58.5 34.5t-43.5 53.5t-16 71q0 36 14 69t40.5 58t63.5 39.5t80 14.5zM282 637q-25 0 -55.5 -12.5t-53.5 -44t-23 -70.5q0 -27 14 -55.5t47 -49t71 -20.5q24 0 55 12t54.5 43.5t23.5 69.5t-23 70t-54 44.5t-56 12.5zM283 326q-41 0 -81 -24t-56 -56t-16 -62
q0 -23 8.5 -47t30.5 -47t54.5 -35t59.5 -12t56 10.5t50.5 29t34 45t12.5 56.5q0 22 -8.5 46.5t-30.5 47.5t-54.5 35.5t-59.5 12.5z" />
    <glyph glyph-name="nine.aalt" horiz-adv-x="574" 
d="M131 -131l227 256q-14 -10 -33.5 -16t-61.5 -6t-81.5 18t-69.5 49.5t-47 72.5t-17 84q0 35 12.5 75t46.5 81t81.5 62.5t92.5 21.5q51 0 94.5 -18.5t74.5 -51t47.5 -75.5t16.5 -91q0 -45 -22 -97t-123 -176l-153 -189h-85zM281 162q46 0 83 21t61 60.5t24 91.5
q0 42 -20.5 84t-61 65.5t-86.5 23.5q-37 0 -76 -17.5t-65.5 -60.5t-26.5 -95t24 -91.5t61 -60.5t83 -21z" />
    <glyph glyph-name="colon.aalt" horiz-adv-x="209" 
d="M104 554q19 0 34.5 -15.5t15.5 -35.5q0 -19 -15.5 -33.5t-34.5 -14.5q-20 0 -34.5 14.5t-14.5 33.5q0 20 14.5 35.5t34.5 15.5zM104 184q19 0 34.5 -15.5t15.5 -35.5q0 -19 -15.5 -33.5t-34.5 -14.5q-20 0 -34.5 14.5t-14.5 33.5q0 20 14.5 35.5t34.5 15.5z" />
    <glyph glyph-name="semicolon.aalt" horiz-adv-x="230" 
d="M125 554q19 0 34.5 -15.5t15.5 -35.5q0 -19 -15.5 -33.5t-34.5 -14.5q-20 0 -34.5 14.5t-14.5 33.5q0 20 14.5 35.5t34.5 15.5zM77 184h92q0 -53 -36 -120t-87 -109h-41q18 21 36.5 57t28 83.5t7.5 88.5z" />
    <glyph glyph-name="braceleft.aalt" horiz-adv-x="387" 
d="M330 826l2 -7q-54 -33 -84.5 -93.5t-30.5 -128.5v-128q0 -37 -14.5 -67.5t-30 -42t-21.5 -14.5q24 -11 40 -35.5t21 -48.5t5 -40v-128q0 -73 30 -131t85 -91l-2 -7q-67 24 -100.5 51.5t-49.5 70.5t-16 110v146q0 34 -16 52.5t-39.5 27.5t-53.5 19v8q60 19 79 33t24.5 31
t5.5 35v146q0 87 34.5 142t131.5 90z" />
    <glyph glyph-name="braceright.aalt" horiz-adv-x="387" 
d="M55 819l2 7q97 -35 131.5 -90t34.5 -142v-146q0 -34 16 -52.5t39.5 -27.5t53.5 -19v-8q-60 -19 -79 -33t-24.5 -31t-5.5 -35v-146q0 -54 -11.5 -96.5t-44 -75t-110.5 -60.5l-2 7q55 33 85 91t30 131v128q0 37 14.5 67.5t30 42t21.5 14.5q-24 11 -40 35.5t-21 48.5t-5 40
v128q0 68 -30.5 128.5t-84.5 93.5z" />
    <glyph glyph-name="bracketleft.aalt" horiz-adv-x="255" 
d="M200 759h-94v-843h94v-46h-145v935h145v-46z" />
    <glyph glyph-name="bracketright.aalt" horiz-adv-x="255" 
d="M200 805v-935h-145v46h94v843h-94v46h145z" />
    <glyph glyph-name="parenleft.aalt" horiz-adv-x="316" 
d="M248 821l9 -14q-137 -246 -137 -463q0 -220 141 -469l-7 -12q-28 27 -56 64t-52 80.5t-43 92t-33.5 111.5t-14.5 133q0 52 9 105.5t28 111t58.5 129t97.5 131.5z" />
    <glyph glyph-name="parenright.aalt" horiz-adv-x="316" 
d="M59 807l9 14q28 -28 55 -65t50 -80t41.5 -91t32.5 -110t14 -131q0 -52 -11 -115t-39.5 -136t-69 -133t-79.5 -97l-7 12q141 249 141 469q0 217 -137 463z" />
    <glyph glyph-name="emdash.aalt" horiz-adv-x="798" 
d="M733 306h-688v54h688v-54z" />
    <glyph glyph-name="endash.aalt" horiz-adv-x="593" 
d="M528 306h-483v54h483v-54z" />
    <glyph glyph-name="hyphen.aalt" horiz-adv-x="385" 
d="M320 306h-275v54h275v-54z" />
    <glyph glyph-name="uni00AD.aalt" horiz-adv-x="385" 
d="M320 306h-275v54h275v-54z" />
    <glyph glyph-name="guillemotleft.aalt" horiz-adv-x="511" 
d="M266 501l-142 -151l142 -151v-71l-211 222l211 222v-71zM456 501l-142 -151l142 -151v-71l-211 222l211 222v-71z" />
    <glyph glyph-name="guillemotright.aalt" horiz-adv-x="503" 
d="M266 350l-211 -222v71l142 151l-142 151v71zM448 350l-211 -222v71l142 151l-142 151v71z" />
    <glyph glyph-name="guilsinglleft.aalt" horiz-adv-x="321" 
d="M266 501l-142 -151l142 -151v-71l-211 222l211 222v-71z" />
    <glyph glyph-name="guilsinglright.aalt" horiz-adv-x="321" 
d="M266 350l-211 -222v71l142 151l-142 151v71z" />
    <glyph glyph-name="glyph421" horiz-adv-x="254" 
d="M43 0h-121v11l78 42h43v-53z" />
    <glyph glyph-name="glyph422" horiz-adv-x="296" 
d="M0 53l77 -42v-11h-120v53h43z" />
    <glyph glyph-name="glyph423" horiz-adv-x="254" 
d="M43 -53h-43l-78 42v11h121v-53z" />
    <glyph glyph-name="glyph424" horiz-adv-x="282" 
d="M77 -11l-77 -42h-43v53h120v-11z" />
    <glyph glyph-name="glyph425" horiz-adv-x="600" 
d="M348 0h-348v58h338z" />
    </font>
</defs>
</svg>
